G04 #@! TF.GenerationSoftware,KiCad,Pcbnew,(5.0.1)-4*
G04 #@! TF.CreationDate,2020-10-11T14:42:23+02:00*
G04 #@! TF.ProjectId,GP2Y0D8xxZ0F,4750325930443878785A30462E6B6963,1*
G04 #@! TF.SameCoordinates,Original*
G04 #@! TF.FileFunction,Copper,L2,Bot,Signal*
G04 #@! TF.FilePolarity,Positive*
%FSLAX46Y46*%
G04 Gerber Fmt 4.6, Leading zero omitted, Abs format (unit mm)*
G04 Created by KiCad (PCBNEW (5.0.1)-4) date 10/11/2020 2:42:23 PM*
%MOMM*%
%LPD*%
G01*
G04 APERTURE LIST*
G04 #@! TA.AperFunction,ComponentPad*
%ADD10R,1.540000X1.000000*%
G04 #@! TD*
G04 #@! TA.AperFunction,ComponentPad*
%ADD11O,1.540000X1.000000*%
G04 #@! TD*
G04 #@! TA.AperFunction,ComponentPad*
%ADD12R,1.727200X2.032000*%
G04 #@! TD*
G04 #@! TA.AperFunction,ComponentPad*
%ADD13O,1.727200X2.032000*%
G04 #@! TD*
G04 #@! TA.AperFunction,ComponentPad*
%ADD14R,1.998980X1.998980*%
G04 #@! TD*
G04 #@! TA.AperFunction,ComponentPad*
%ADD15C,1.524000*%
G04 #@! TD*
G04 #@! TA.AperFunction,ComponentPad*
%ADD16C,4.064000*%
G04 #@! TD*
G04 #@! TA.AperFunction,SMDPad,CuDef*
%ADD17R,0.280000X0.430000*%
G04 #@! TD*
G04 #@! TA.AperFunction,Conductor*
%ADD18C,0.304800*%
G04 #@! TD*
G04 #@! TA.AperFunction,Conductor*
%ADD19C,0.152400*%
G04 #@! TD*
G04 #@! TA.AperFunction,Conductor*
%ADD20C,0.406400*%
G04 #@! TD*
G04 #@! TA.AperFunction,Conductor*
%ADD21C,0.254000*%
G04 #@! TD*
G04 APERTURE END LIST*
D10*
G04 #@! TO.P,U1,1*
G04 #@! TO.N,Net-(U1-Pad1)*
X77750000Y-78000000D03*
D11*
G04 #@! TO.P,U1,2*
G04 #@! TO.N,Net-(R1-Pad1)*
X77750000Y-81000000D03*
G04 #@! TO.P,U1,3*
G04 #@! TO.N,Net-(U1-Pad1)*
X77750000Y-82500000D03*
G04 #@! TO.P,U1,4*
G04 #@! TO.N,GND*
X77750000Y-84000000D03*
G04 #@! TO.P,U1,5*
G04 #@! TO.N,N/C*
X77750000Y-85500000D03*
G04 #@! TO.P,U1,6*
X77750000Y-87000000D03*
G04 #@! TO.P,U1,7*
G04 #@! TO.N,Net-(C1-Pad1)*
X77750000Y-88500000D03*
G04 #@! TO.P,U1,8*
G04 #@! TO.N,N/C*
X84250000Y-88500000D03*
G04 #@! TO.P,U1,9*
X84250000Y-87000000D03*
G04 #@! TO.P,U1,10*
X84250000Y-85500000D03*
G04 #@! TO.P,U1,11*
G04 #@! TO.N,VCC*
X84250000Y-84000000D03*
G04 #@! TO.P,U1,12*
G04 #@! TO.N,/Enable*
X84250000Y-82500000D03*
G04 #@! TO.P,U1,13*
G04 #@! TO.N,/Output*
X84250000Y-81000000D03*
G04 #@! TO.P,U1,14*
G04 #@! TO.N,VCC*
X84250000Y-78000000D03*
G04 #@! TD*
D12*
G04 #@! TO.P,P1,1*
G04 #@! TO.N,VCC*
X77000000Y-99000000D03*
D13*
G04 #@! TO.P,P1,2*
G04 #@! TO.N,/Enable*
X79540000Y-99000000D03*
G04 #@! TO.P,P1,3*
G04 #@! TO.N,/Output*
X82080000Y-99000000D03*
G04 #@! TO.P,P1,4*
G04 #@! TO.N,GND*
X84620000Y-99000000D03*
G04 #@! TD*
D14*
G04 #@! TO.P,R1,1*
G04 #@! TO.N,Net-(R1-Pad1)*
X70500000Y-83498740D03*
G04 #@! TO.P,R1,2*
G04 #@! TO.N,GND*
X70500000Y-93501260D03*
G04 #@! TD*
G04 #@! TO.P,R2,1*
G04 #@! TO.N,VCC*
X91500000Y-83498740D03*
G04 #@! TO.P,R2,2*
G04 #@! TO.N,Net-(D1-Pad2)*
X91500000Y-93501260D03*
G04 #@! TD*
D15*
G04 #@! TO.P,D1,1*
G04 #@! TO.N,GND*
X88000000Y-84000000D03*
G04 #@! TO.P,D1,2*
G04 #@! TO.N,Net-(D1-Pad2)*
X88000000Y-87000000D03*
G04 #@! TD*
D16*
G04 #@! TO.P,REF\002A\002A,1*
G04 #@! TO.N,N/C*
X91000000Y-78500000D03*
G04 #@! TD*
G04 #@! TO.P,REF\002A\002A,1*
G04 #@! TO.N,N/C*
X71000000Y-78500000D03*
G04 #@! TD*
G04 #@! TO.P,REF\002A\002A,1*
G04 #@! TO.N,N/C*
X71000000Y-98500000D03*
G04 #@! TD*
G04 #@! TO.P,REF\002A\002A,1*
G04 #@! TO.N,N/C*
X91000000Y-98500000D03*
G04 #@! TD*
D15*
G04 #@! TO.P,C2,1*
G04 #@! TO.N,VCC*
X86000000Y-94750000D03*
G04 #@! TO.P,C2,2*
G04 #@! TO.N,GND*
X86000000Y-92250000D03*
G04 #@! TD*
G04 #@! TO.P,C1,1*
G04 #@! TO.N,Net-(C1-Pad1)*
X76000000Y-92250000D03*
G04 #@! TO.P,C1,2*
G04 #@! TO.N,GND*
X76000000Y-94750000D03*
G04 #@! TD*
G04 #@! TO.P,C3,1*
G04 #@! TO.N,VCC*
X81000000Y-94750000D03*
G04 #@! TO.P,C3,2*
G04 #@! TO.N,GND*
X81000000Y-92250000D03*
G04 #@! TD*
D17*
G04 #@! TO.P,JP1,1*
G04 #@! TO.N,VCC*
X81745000Y-82500000D03*
G04 #@! TO.P,JP1,2*
G04 #@! TO.N,/Enable*
X82255000Y-82500000D03*
G04 #@! TD*
D18*
G04 #@! TO.N,GND*
X71080000Y-93108000D02*
X71080000Y-93001260D01*
D19*
X71080000Y-93001260D02*
X71080000Y-93108000D01*
D20*
G04 #@! TO.N,VCC*
X84034000Y-83964000D02*
X84744000Y-83964000D01*
D19*
X84034000Y-83964000D02*
X84744000Y-83964000D01*
D18*
X81000000Y-94750000D02*
X86000000Y-94750000D01*
D19*
X81745000Y-82500000D02*
X81745000Y-81755000D01*
D18*
X81745000Y-81755000D02*
X81745000Y-79005000D01*
X82750000Y-78000000D02*
X84250000Y-78000000D01*
X81745000Y-79005000D02*
X82750000Y-78000000D01*
X91500000Y-82998740D02*
X91498740Y-82998740D01*
X84250000Y-78000000D02*
X85750000Y-78000000D01*
X91500000Y-84803030D02*
X91500000Y-83498740D01*
X91500000Y-88328866D02*
X91500000Y-84803030D01*
X86000000Y-93828866D02*
X91500000Y-88328866D01*
X86000000Y-94750000D02*
X86000000Y-93828866D01*
X90501260Y-82500000D02*
X91500000Y-83498740D01*
X86000000Y-82500000D02*
X90501260Y-82500000D01*
X86000000Y-83324800D02*
X86000000Y-82500000D01*
X84250000Y-84000000D02*
X85324800Y-84000000D01*
X85324800Y-84000000D02*
X86000000Y-83324800D01*
X85750000Y-78000000D02*
X86000000Y-78250000D01*
X86000000Y-78250000D02*
X86000000Y-82500000D01*
G04 #@! TO.N,/Enable*
X79540000Y-98847600D02*
X79500000Y-98807600D01*
X79540000Y-99000000D02*
X79540000Y-98847600D01*
X79500000Y-98807600D02*
X79500000Y-97750000D01*
X79500000Y-97750000D02*
X78500000Y-96750000D01*
X78500000Y-96750000D02*
X78500000Y-90250000D01*
X78500000Y-90250000D02*
X80250000Y-88500000D01*
X82255000Y-86495000D02*
X82255000Y-83255000D01*
X80250000Y-88500000D02*
X82255000Y-86495000D01*
D19*
X82255000Y-83255000D02*
X82255000Y-82500000D01*
X82255000Y-82500000D02*
X84250000Y-82500000D01*
D18*
G04 #@! TO.N,Net-(U1-Pad1)*
X76500000Y-78000000D02*
X77750000Y-78000000D01*
X75750000Y-78750000D02*
X76500000Y-78000000D01*
X75750000Y-81750000D02*
X75750000Y-78750000D01*
X77750000Y-82500000D02*
X76500000Y-82500000D01*
X76500000Y-82500000D02*
X75750000Y-81750000D01*
G04 #@! TD*
D21*
G04 #@! TO.N,GND*
G36*
X89853070Y-84498230D02*
X89902353Y-84745995D01*
X90042701Y-84956039D01*
X90252745Y-85096387D01*
X90500510Y-85145670D01*
X90712601Y-85145670D01*
X90712600Y-88002714D01*
X87202239Y-91513075D01*
X86980213Y-91449392D01*
X86179605Y-92250000D01*
X86193748Y-92264143D01*
X86014143Y-92443748D01*
X86000000Y-92429605D01*
X85199392Y-93230213D01*
X85268857Y-93472397D01*
X85286889Y-93478830D01*
X85258286Y-93521638D01*
X85253194Y-93547234D01*
X85208663Y-93565680D01*
X84815680Y-93958663D01*
X84814049Y-93962600D01*
X82185951Y-93962600D01*
X82184320Y-93958663D01*
X81791337Y-93565680D01*
X81648637Y-93506572D01*
X81731143Y-93472397D01*
X81800608Y-93230213D01*
X81000000Y-92429605D01*
X80199392Y-93230213D01*
X80268857Y-93472397D01*
X80357510Y-93504025D01*
X80208663Y-93565680D01*
X79815680Y-93958663D01*
X79603000Y-94472119D01*
X79603000Y-95027881D01*
X79815680Y-95541337D01*
X80208663Y-95934320D01*
X80722119Y-96147000D01*
X81277881Y-96147000D01*
X81791337Y-95934320D01*
X82184320Y-95541337D01*
X82185951Y-95537400D01*
X84814049Y-95537400D01*
X84815680Y-95541337D01*
X85208663Y-95934320D01*
X85722119Y-96147000D01*
X86277881Y-96147000D01*
X86791337Y-95934320D01*
X87184320Y-95541337D01*
X87397000Y-95027881D01*
X87397000Y-94472119D01*
X87184320Y-93958663D01*
X87084037Y-93858380D01*
X92001938Y-88940480D01*
X92067684Y-88896550D01*
X92241715Y-88636094D01*
X92287400Y-88406418D01*
X92287400Y-88406417D01*
X92302826Y-88328866D01*
X92287400Y-88251315D01*
X92287400Y-85145670D01*
X92499490Y-85145670D01*
X92747255Y-85096387D01*
X92790000Y-85067825D01*
X92790001Y-91932175D01*
X92747255Y-91903613D01*
X92499490Y-91854330D01*
X90500510Y-91854330D01*
X90252745Y-91903613D01*
X90042701Y-92043961D01*
X89902353Y-92254005D01*
X89853070Y-92501770D01*
X89853070Y-94500750D01*
X89902353Y-94748515D01*
X90042701Y-94958559D01*
X90252745Y-95098907D01*
X90500510Y-95148190D01*
X92499490Y-95148190D01*
X92747255Y-95098907D01*
X92790001Y-95070345D01*
X92790001Y-96518293D01*
X92510734Y-96239026D01*
X91530499Y-95833000D01*
X90469501Y-95833000D01*
X89489266Y-96239026D01*
X88739026Y-96989266D01*
X88333000Y-97969501D01*
X88333000Y-99030499D01*
X88739026Y-100010734D01*
X89018292Y-100290000D01*
X85576298Y-100290000D01*
X85911954Y-99914320D01*
X86105184Y-99361913D01*
X85960924Y-99127000D01*
X84747000Y-99127000D01*
X84747000Y-99147000D01*
X84493000Y-99147000D01*
X84493000Y-99127000D01*
X84473000Y-99127000D01*
X84473000Y-98873000D01*
X84493000Y-98873000D01*
X84493000Y-97513783D01*
X84747000Y-97513783D01*
X84747000Y-98873000D01*
X85960924Y-98873000D01*
X86105184Y-98638087D01*
X85911954Y-98085680D01*
X85522036Y-97649268D01*
X84994791Y-97395291D01*
X84979026Y-97392642D01*
X84747000Y-97513783D01*
X84493000Y-97513783D01*
X84260974Y-97392642D01*
X84245209Y-97395291D01*
X83717964Y-97649268D01*
X83353910Y-98056732D01*
X83160430Y-97767170D01*
X82664724Y-97435950D01*
X82080000Y-97319641D01*
X81495275Y-97435950D01*
X80999570Y-97767170D01*
X80810000Y-98050881D01*
X80620430Y-97767170D01*
X80258083Y-97525057D01*
X80241715Y-97442771D01*
X80111613Y-97248061D01*
X80067684Y-97182316D01*
X80001938Y-97138386D01*
X79287400Y-96423849D01*
X79287400Y-92042302D01*
X79590856Y-92042302D01*
X79618638Y-92597368D01*
X79777603Y-92981143D01*
X80019787Y-93050608D01*
X80820395Y-92250000D01*
X81179605Y-92250000D01*
X81980213Y-93050608D01*
X82222397Y-92981143D01*
X82409144Y-92457698D01*
X82388353Y-92042302D01*
X84590856Y-92042302D01*
X84618638Y-92597368D01*
X84777603Y-92981143D01*
X85019787Y-93050608D01*
X85820395Y-92250000D01*
X85019787Y-91449392D01*
X84777603Y-91518857D01*
X84590856Y-92042302D01*
X82388353Y-92042302D01*
X82381362Y-91902632D01*
X82222397Y-91518857D01*
X81980213Y-91449392D01*
X81179605Y-92250000D01*
X80820395Y-92250000D01*
X80019787Y-91449392D01*
X79777603Y-91518857D01*
X79590856Y-92042302D01*
X79287400Y-92042302D01*
X79287400Y-91269787D01*
X80199392Y-91269787D01*
X81000000Y-92070395D01*
X81800608Y-91269787D01*
X85199392Y-91269787D01*
X86000000Y-92070395D01*
X86800608Y-91269787D01*
X86731143Y-91027603D01*
X86207698Y-90840856D01*
X85652632Y-90868638D01*
X85268857Y-91027603D01*
X85199392Y-91269787D01*
X81800608Y-91269787D01*
X81731143Y-91027603D01*
X81207698Y-90840856D01*
X80652632Y-90868638D01*
X80268857Y-91027603D01*
X80199392Y-91269787D01*
X79287400Y-91269787D01*
X79287400Y-90576151D01*
X80861613Y-89001939D01*
X80861615Y-89001936D01*
X82756938Y-87106614D01*
X82822684Y-87062684D01*
X82832355Y-87048211D01*
X82910854Y-87442855D01*
X83116082Y-87750000D01*
X82910854Y-88057145D01*
X82822765Y-88500000D01*
X82910854Y-88942855D01*
X83161711Y-89318289D01*
X83537145Y-89569146D01*
X83868217Y-89635000D01*
X84631783Y-89635000D01*
X84962855Y-89569146D01*
X85338289Y-89318289D01*
X85589146Y-88942855D01*
X85677235Y-88500000D01*
X85589146Y-88057145D01*
X85383918Y-87750000D01*
X85589146Y-87442855D01*
X85677235Y-87000000D01*
X85621962Y-86722119D01*
X86603000Y-86722119D01*
X86603000Y-87277881D01*
X86815680Y-87791337D01*
X87208663Y-88184320D01*
X87722119Y-88397000D01*
X88277881Y-88397000D01*
X88791337Y-88184320D01*
X89184320Y-87791337D01*
X89397000Y-87277881D01*
X89397000Y-86722119D01*
X89184320Y-86208663D01*
X88791337Y-85815680D01*
X88277881Y-85603000D01*
X87722119Y-85603000D01*
X87208663Y-85815680D01*
X86815680Y-86208663D01*
X86603000Y-86722119D01*
X85621962Y-86722119D01*
X85589146Y-86557145D01*
X85383918Y-86250000D01*
X85589146Y-85942855D01*
X85677235Y-85500000D01*
X85589146Y-85057145D01*
X85537742Y-84980213D01*
X87199392Y-84980213D01*
X87268857Y-85222397D01*
X87792302Y-85409144D01*
X88347368Y-85381362D01*
X88731143Y-85222397D01*
X88800608Y-84980213D01*
X88000000Y-84179605D01*
X87199392Y-84980213D01*
X85537742Y-84980213D01*
X85408139Y-84786249D01*
X85632028Y-84741715D01*
X85892484Y-84567684D01*
X85936416Y-84501935D01*
X86501938Y-83936414D01*
X86567684Y-83892484D01*
X86593906Y-83853240D01*
X86618638Y-84347368D01*
X86777603Y-84731143D01*
X87019787Y-84800608D01*
X87820395Y-84000000D01*
X87806253Y-83985858D01*
X87985858Y-83806253D01*
X88000000Y-83820395D01*
X88014143Y-83806253D01*
X88193748Y-83985858D01*
X88179605Y-84000000D01*
X88980213Y-84800608D01*
X89222397Y-84731143D01*
X89409144Y-84207698D01*
X89381362Y-83652632D01*
X89230078Y-83287400D01*
X89853070Y-83287400D01*
X89853070Y-84498230D01*
X89853070Y-84498230D01*
G37*
X89853070Y-84498230D02*
X89902353Y-84745995D01*
X90042701Y-84956039D01*
X90252745Y-85096387D01*
X90500510Y-85145670D01*
X90712601Y-85145670D01*
X90712600Y-88002714D01*
X87202239Y-91513075D01*
X86980213Y-91449392D01*
X86179605Y-92250000D01*
X86193748Y-92264143D01*
X86014143Y-92443748D01*
X86000000Y-92429605D01*
X85199392Y-93230213D01*
X85268857Y-93472397D01*
X85286889Y-93478830D01*
X85258286Y-93521638D01*
X85253194Y-93547234D01*
X85208663Y-93565680D01*
X84815680Y-93958663D01*
X84814049Y-93962600D01*
X82185951Y-93962600D01*
X82184320Y-93958663D01*
X81791337Y-93565680D01*
X81648637Y-93506572D01*
X81731143Y-93472397D01*
X81800608Y-93230213D01*
X81000000Y-92429605D01*
X80199392Y-93230213D01*
X80268857Y-93472397D01*
X80357510Y-93504025D01*
X80208663Y-93565680D01*
X79815680Y-93958663D01*
X79603000Y-94472119D01*
X79603000Y-95027881D01*
X79815680Y-95541337D01*
X80208663Y-95934320D01*
X80722119Y-96147000D01*
X81277881Y-96147000D01*
X81791337Y-95934320D01*
X82184320Y-95541337D01*
X82185951Y-95537400D01*
X84814049Y-95537400D01*
X84815680Y-95541337D01*
X85208663Y-95934320D01*
X85722119Y-96147000D01*
X86277881Y-96147000D01*
X86791337Y-95934320D01*
X87184320Y-95541337D01*
X87397000Y-95027881D01*
X87397000Y-94472119D01*
X87184320Y-93958663D01*
X87084037Y-93858380D01*
X92001938Y-88940480D01*
X92067684Y-88896550D01*
X92241715Y-88636094D01*
X92287400Y-88406418D01*
X92287400Y-88406417D01*
X92302826Y-88328866D01*
X92287400Y-88251315D01*
X92287400Y-85145670D01*
X92499490Y-85145670D01*
X92747255Y-85096387D01*
X92790000Y-85067825D01*
X92790001Y-91932175D01*
X92747255Y-91903613D01*
X92499490Y-91854330D01*
X90500510Y-91854330D01*
X90252745Y-91903613D01*
X90042701Y-92043961D01*
X89902353Y-92254005D01*
X89853070Y-92501770D01*
X89853070Y-94500750D01*
X89902353Y-94748515D01*
X90042701Y-94958559D01*
X90252745Y-95098907D01*
X90500510Y-95148190D01*
X92499490Y-95148190D01*
X92747255Y-95098907D01*
X92790001Y-95070345D01*
X92790001Y-96518293D01*
X92510734Y-96239026D01*
X91530499Y-95833000D01*
X90469501Y-95833000D01*
X89489266Y-96239026D01*
X88739026Y-96989266D01*
X88333000Y-97969501D01*
X88333000Y-99030499D01*
X88739026Y-100010734D01*
X89018292Y-100290000D01*
X85576298Y-100290000D01*
X85911954Y-99914320D01*
X86105184Y-99361913D01*
X85960924Y-99127000D01*
X84747000Y-99127000D01*
X84747000Y-99147000D01*
X84493000Y-99147000D01*
X84493000Y-99127000D01*
X84473000Y-99127000D01*
X84473000Y-98873000D01*
X84493000Y-98873000D01*
X84493000Y-97513783D01*
X84747000Y-97513783D01*
X84747000Y-98873000D01*
X85960924Y-98873000D01*
X86105184Y-98638087D01*
X85911954Y-98085680D01*
X85522036Y-97649268D01*
X84994791Y-97395291D01*
X84979026Y-97392642D01*
X84747000Y-97513783D01*
X84493000Y-97513783D01*
X84260974Y-97392642D01*
X84245209Y-97395291D01*
X83717964Y-97649268D01*
X83353910Y-98056732D01*
X83160430Y-97767170D01*
X82664724Y-97435950D01*
X82080000Y-97319641D01*
X81495275Y-97435950D01*
X80999570Y-97767170D01*
X80810000Y-98050881D01*
X80620430Y-97767170D01*
X80258083Y-97525057D01*
X80241715Y-97442771D01*
X80111613Y-97248061D01*
X80067684Y-97182316D01*
X80001938Y-97138386D01*
X79287400Y-96423849D01*
X79287400Y-92042302D01*
X79590856Y-92042302D01*
X79618638Y-92597368D01*
X79777603Y-92981143D01*
X80019787Y-93050608D01*
X80820395Y-92250000D01*
X81179605Y-92250000D01*
X81980213Y-93050608D01*
X82222397Y-92981143D01*
X82409144Y-92457698D01*
X82388353Y-92042302D01*
X84590856Y-92042302D01*
X84618638Y-92597368D01*
X84777603Y-92981143D01*
X85019787Y-93050608D01*
X85820395Y-92250000D01*
X85019787Y-91449392D01*
X84777603Y-91518857D01*
X84590856Y-92042302D01*
X82388353Y-92042302D01*
X82381362Y-91902632D01*
X82222397Y-91518857D01*
X81980213Y-91449392D01*
X81179605Y-92250000D01*
X80820395Y-92250000D01*
X80019787Y-91449392D01*
X79777603Y-91518857D01*
X79590856Y-92042302D01*
X79287400Y-92042302D01*
X79287400Y-91269787D01*
X80199392Y-91269787D01*
X81000000Y-92070395D01*
X81800608Y-91269787D01*
X85199392Y-91269787D01*
X86000000Y-92070395D01*
X86800608Y-91269787D01*
X86731143Y-91027603D01*
X86207698Y-90840856D01*
X85652632Y-90868638D01*
X85268857Y-91027603D01*
X85199392Y-91269787D01*
X81800608Y-91269787D01*
X81731143Y-91027603D01*
X81207698Y-90840856D01*
X80652632Y-90868638D01*
X80268857Y-91027603D01*
X80199392Y-91269787D01*
X79287400Y-91269787D01*
X79287400Y-90576151D01*
X80861613Y-89001939D01*
X80861615Y-89001936D01*
X82756938Y-87106614D01*
X82822684Y-87062684D01*
X82832355Y-87048211D01*
X82910854Y-87442855D01*
X83116082Y-87750000D01*
X82910854Y-88057145D01*
X82822765Y-88500000D01*
X82910854Y-88942855D01*
X83161711Y-89318289D01*
X83537145Y-89569146D01*
X83868217Y-89635000D01*
X84631783Y-89635000D01*
X84962855Y-89569146D01*
X85338289Y-89318289D01*
X85589146Y-88942855D01*
X85677235Y-88500000D01*
X85589146Y-88057145D01*
X85383918Y-87750000D01*
X85589146Y-87442855D01*
X85677235Y-87000000D01*
X85621962Y-86722119D01*
X86603000Y-86722119D01*
X86603000Y-87277881D01*
X86815680Y-87791337D01*
X87208663Y-88184320D01*
X87722119Y-88397000D01*
X88277881Y-88397000D01*
X88791337Y-88184320D01*
X89184320Y-87791337D01*
X89397000Y-87277881D01*
X89397000Y-86722119D01*
X89184320Y-86208663D01*
X88791337Y-85815680D01*
X88277881Y-85603000D01*
X87722119Y-85603000D01*
X87208663Y-85815680D01*
X86815680Y-86208663D01*
X86603000Y-86722119D01*
X85621962Y-86722119D01*
X85589146Y-86557145D01*
X85383918Y-86250000D01*
X85589146Y-85942855D01*
X85677235Y-85500000D01*
X85589146Y-85057145D01*
X85537742Y-84980213D01*
X87199392Y-84980213D01*
X87268857Y-85222397D01*
X87792302Y-85409144D01*
X88347368Y-85381362D01*
X88731143Y-85222397D01*
X88800608Y-84980213D01*
X88000000Y-84179605D01*
X87199392Y-84980213D01*
X85537742Y-84980213D01*
X85408139Y-84786249D01*
X85632028Y-84741715D01*
X85892484Y-84567684D01*
X85936416Y-84501935D01*
X86501938Y-83936414D01*
X86567684Y-83892484D01*
X86593906Y-83853240D01*
X86618638Y-84347368D01*
X86777603Y-84731143D01*
X87019787Y-84800608D01*
X87820395Y-84000000D01*
X87806253Y-83985858D01*
X87985858Y-83806253D01*
X88000000Y-83820395D01*
X88014143Y-83806253D01*
X88193748Y-83985858D01*
X88179605Y-84000000D01*
X88980213Y-84800608D01*
X89222397Y-84731143D01*
X89409144Y-84207698D01*
X89381362Y-83652632D01*
X89230078Y-83287400D01*
X89853070Y-83287400D01*
X89853070Y-84498230D01*
G36*
X88739026Y-76989266D02*
X88333000Y-77969501D01*
X88333000Y-79030499D01*
X88739026Y-80010734D01*
X89489266Y-80760974D01*
X90469501Y-81167000D01*
X91530499Y-81167000D01*
X92510734Y-80760974D01*
X92790000Y-80481708D01*
X92790000Y-81929655D01*
X92747255Y-81901093D01*
X92499490Y-81851810D01*
X90948458Y-81851810D01*
X90808488Y-81758285D01*
X90578812Y-81712600D01*
X90578811Y-81712600D01*
X90501260Y-81697174D01*
X90423709Y-81712600D01*
X86787400Y-81712600D01*
X86787400Y-78327550D01*
X86802826Y-78249999D01*
X86786853Y-78169696D01*
X86741715Y-77942772D01*
X86567684Y-77682316D01*
X86501935Y-77638384D01*
X86361616Y-77498065D01*
X86317684Y-77432316D01*
X86057228Y-77258285D01*
X85827552Y-77212600D01*
X85827551Y-77212600D01*
X85750000Y-77197174D01*
X85672449Y-77212600D01*
X85358928Y-77212600D01*
X85338289Y-77181711D01*
X84962855Y-76930854D01*
X84631783Y-76865000D01*
X83868217Y-76865000D01*
X83537145Y-76930854D01*
X83161711Y-77181711D01*
X83141072Y-77212600D01*
X82827551Y-77212600D01*
X82750000Y-77197174D01*
X82672449Y-77212600D01*
X82672448Y-77212600D01*
X82442772Y-77258285D01*
X82182316Y-77432316D01*
X82138386Y-77498062D01*
X81243063Y-78393386D01*
X81177317Y-78437316D01*
X81126377Y-78513553D01*
X81003286Y-78697772D01*
X80942174Y-79005000D01*
X80957601Y-79082556D01*
X80957600Y-81832551D01*
X81002578Y-82058675D01*
X80957560Y-82285000D01*
X80957560Y-82715000D01*
X81006843Y-82962765D01*
X81147191Y-83172809D01*
X81357235Y-83313157D01*
X81467601Y-83335110D01*
X81467600Y-86168848D01*
X79748064Y-87888385D01*
X79748061Y-87888387D01*
X79170468Y-88465980D01*
X79089146Y-88057145D01*
X78883918Y-87750000D01*
X79089146Y-87442855D01*
X79177235Y-87000000D01*
X79089146Y-86557145D01*
X78883918Y-86250000D01*
X79089146Y-85942855D01*
X79177235Y-85500000D01*
X79089146Y-85057145D01*
X78878255Y-84741524D01*
X78912368Y-84712763D01*
X79114119Y-84301874D01*
X78987954Y-84127000D01*
X77877000Y-84127000D01*
X77877000Y-84147000D01*
X77623000Y-84147000D01*
X77623000Y-84127000D01*
X76512046Y-84127000D01*
X76385881Y-84301874D01*
X76587632Y-84712763D01*
X76621745Y-84741524D01*
X76410854Y-85057145D01*
X76322765Y-85500000D01*
X76410854Y-85942855D01*
X76616082Y-86250000D01*
X76410854Y-86557145D01*
X76322765Y-87000000D01*
X76410854Y-87442855D01*
X76616082Y-87750000D01*
X76410854Y-88057145D01*
X76322765Y-88500000D01*
X76410854Y-88942855D01*
X76661711Y-89318289D01*
X77037145Y-89569146D01*
X77368217Y-89635000D01*
X78001449Y-89635000D01*
X77998063Y-89638386D01*
X77932317Y-89682316D01*
X77888387Y-89748062D01*
X77758286Y-89942772D01*
X77697174Y-90250000D01*
X77712601Y-90327556D01*
X77712600Y-96672449D01*
X77697174Y-96750000D01*
X77712600Y-96827551D01*
X77758285Y-97057227D01*
X77932316Y-97317684D01*
X77998065Y-97361616D01*
X78000175Y-97363726D01*
X77863600Y-97336560D01*
X76136400Y-97336560D01*
X75888635Y-97385843D01*
X75678591Y-97526191D01*
X75538243Y-97736235D01*
X75488960Y-97984000D01*
X75488960Y-100016000D01*
X75538243Y-100263765D01*
X75555773Y-100290000D01*
X72981708Y-100290000D01*
X73260974Y-100010734D01*
X73667000Y-99030499D01*
X73667000Y-97969501D01*
X73260974Y-96989266D01*
X72510734Y-96239026D01*
X71530499Y-95833000D01*
X70469501Y-95833000D01*
X69489266Y-96239026D01*
X69210000Y-96518292D01*
X69210000Y-95730213D01*
X75199392Y-95730213D01*
X75268857Y-95972397D01*
X75792302Y-96159144D01*
X76347368Y-96131362D01*
X76731143Y-95972397D01*
X76800608Y-95730213D01*
X76000000Y-94929605D01*
X75199392Y-95730213D01*
X69210000Y-95730213D01*
X69210000Y-95067736D01*
X69374200Y-95135750D01*
X70214250Y-95135750D01*
X70373000Y-94977000D01*
X70373000Y-93628260D01*
X70627000Y-93628260D01*
X70627000Y-94977000D01*
X70785750Y-95135750D01*
X71625800Y-95135750D01*
X71859189Y-95039077D01*
X72037817Y-94860448D01*
X72134490Y-94627059D01*
X72134490Y-94542302D01*
X74590856Y-94542302D01*
X74618638Y-95097368D01*
X74777603Y-95481143D01*
X75019787Y-95550608D01*
X75820395Y-94750000D01*
X76179605Y-94750000D01*
X76980213Y-95550608D01*
X77222397Y-95481143D01*
X77409144Y-94957698D01*
X77381362Y-94402632D01*
X77222397Y-94018857D01*
X76980213Y-93949392D01*
X76179605Y-94750000D01*
X75820395Y-94750000D01*
X75019787Y-93949392D01*
X74777603Y-94018857D01*
X74590856Y-94542302D01*
X72134490Y-94542302D01*
X72134490Y-93787010D01*
X71975740Y-93628260D01*
X70627000Y-93628260D01*
X70373000Y-93628260D01*
X70353000Y-93628260D01*
X70353000Y-93374260D01*
X70373000Y-93374260D01*
X70373000Y-92025520D01*
X70627000Y-92025520D01*
X70627000Y-93374260D01*
X71975740Y-93374260D01*
X72134490Y-93215510D01*
X72134490Y-92375461D01*
X72037817Y-92142072D01*
X71867865Y-91972119D01*
X74603000Y-91972119D01*
X74603000Y-92527881D01*
X74815680Y-93041337D01*
X75208663Y-93434320D01*
X75351363Y-93493428D01*
X75268857Y-93527603D01*
X75199392Y-93769787D01*
X76000000Y-94570395D01*
X76800608Y-93769787D01*
X76731143Y-93527603D01*
X76642490Y-93495975D01*
X76791337Y-93434320D01*
X77184320Y-93041337D01*
X77397000Y-92527881D01*
X77397000Y-91972119D01*
X77184320Y-91458663D01*
X76791337Y-91065680D01*
X76277881Y-90853000D01*
X75722119Y-90853000D01*
X75208663Y-91065680D01*
X74815680Y-91458663D01*
X74603000Y-91972119D01*
X71867865Y-91972119D01*
X71859189Y-91963443D01*
X71625800Y-91866770D01*
X70785750Y-91866770D01*
X70627000Y-92025520D01*
X70373000Y-92025520D01*
X70214250Y-91866770D01*
X69374200Y-91866770D01*
X69210000Y-91934784D01*
X69210000Y-85067825D01*
X69252745Y-85096387D01*
X69500510Y-85145670D01*
X71499490Y-85145670D01*
X71747255Y-85096387D01*
X71957299Y-84956039D01*
X72097647Y-84745995D01*
X72146930Y-84498230D01*
X72146930Y-82499250D01*
X72097647Y-82251485D01*
X71957299Y-82041441D01*
X71747255Y-81901093D01*
X71499490Y-81851810D01*
X69500510Y-81851810D01*
X69252745Y-81901093D01*
X69210000Y-81929655D01*
X69210000Y-80481708D01*
X69489266Y-80760974D01*
X70469501Y-81167000D01*
X71530499Y-81167000D01*
X72510734Y-80760974D01*
X73260974Y-80010734D01*
X73667000Y-79030499D01*
X73667000Y-78750000D01*
X74947174Y-78750000D01*
X74962601Y-78827556D01*
X74962600Y-81672449D01*
X74947174Y-81750000D01*
X74962600Y-81827551D01*
X75008285Y-82057227D01*
X75182316Y-82317684D01*
X75248065Y-82361616D01*
X75888386Y-83001937D01*
X75932316Y-83067684D01*
X76192772Y-83241715D01*
X76422448Y-83287400D01*
X76499999Y-83302826D01*
X76577550Y-83287400D01*
X76587552Y-83287400D01*
X76385881Y-83698126D01*
X76512046Y-83873000D01*
X77623000Y-83873000D01*
X77623000Y-83853000D01*
X77877000Y-83853000D01*
X77877000Y-83873000D01*
X78987954Y-83873000D01*
X79114119Y-83698126D01*
X78912368Y-83287237D01*
X78878255Y-83258476D01*
X79089146Y-82942855D01*
X79177235Y-82500000D01*
X79089146Y-82057145D01*
X78883918Y-81750000D01*
X79089146Y-81442855D01*
X79177235Y-81000000D01*
X79089146Y-80557145D01*
X78838289Y-80181711D01*
X78462855Y-79930854D01*
X78131783Y-79865000D01*
X77368217Y-79865000D01*
X77037145Y-79930854D01*
X76661711Y-80181711D01*
X76537400Y-80367756D01*
X76537400Y-79076151D01*
X76602249Y-79011302D01*
X76732235Y-79098157D01*
X76980000Y-79147440D01*
X78520000Y-79147440D01*
X78767765Y-79098157D01*
X78977809Y-78957809D01*
X79118157Y-78747765D01*
X79167440Y-78500000D01*
X79167440Y-77500000D01*
X79118157Y-77252235D01*
X78977809Y-77042191D01*
X78767765Y-76901843D01*
X78520000Y-76852560D01*
X76980000Y-76852560D01*
X76732235Y-76901843D01*
X76522191Y-77042191D01*
X76406162Y-77215839D01*
X76192772Y-77258285D01*
X75932316Y-77432316D01*
X75888386Y-77498063D01*
X75248063Y-78138386D01*
X75182317Y-78182316D01*
X75102441Y-78301859D01*
X75008286Y-78442772D01*
X74947174Y-78750000D01*
X73667000Y-78750000D01*
X73667000Y-77969501D01*
X73260974Y-76989266D01*
X72981708Y-76710000D01*
X89018292Y-76710000D01*
X88739026Y-76989266D01*
X88739026Y-76989266D01*
G37*
X88739026Y-76989266D02*
X88333000Y-77969501D01*
X88333000Y-79030499D01*
X88739026Y-80010734D01*
X89489266Y-80760974D01*
X90469501Y-81167000D01*
X91530499Y-81167000D01*
X92510734Y-80760974D01*
X92790000Y-80481708D01*
X92790000Y-81929655D01*
X92747255Y-81901093D01*
X92499490Y-81851810D01*
X90948458Y-81851810D01*
X90808488Y-81758285D01*
X90578812Y-81712600D01*
X90578811Y-81712600D01*
X90501260Y-81697174D01*
X90423709Y-81712600D01*
X86787400Y-81712600D01*
X86787400Y-78327550D01*
X86802826Y-78249999D01*
X86786853Y-78169696D01*
X86741715Y-77942772D01*
X86567684Y-77682316D01*
X86501935Y-77638384D01*
X86361616Y-77498065D01*
X86317684Y-77432316D01*
X86057228Y-77258285D01*
X85827552Y-77212600D01*
X85827551Y-77212600D01*
X85750000Y-77197174D01*
X85672449Y-77212600D01*
X85358928Y-77212600D01*
X85338289Y-77181711D01*
X84962855Y-76930854D01*
X84631783Y-76865000D01*
X83868217Y-76865000D01*
X83537145Y-76930854D01*
X83161711Y-77181711D01*
X83141072Y-77212600D01*
X82827551Y-77212600D01*
X82750000Y-77197174D01*
X82672449Y-77212600D01*
X82672448Y-77212600D01*
X82442772Y-77258285D01*
X82182316Y-77432316D01*
X82138386Y-77498062D01*
X81243063Y-78393386D01*
X81177317Y-78437316D01*
X81126377Y-78513553D01*
X81003286Y-78697772D01*
X80942174Y-79005000D01*
X80957601Y-79082556D01*
X80957600Y-81832551D01*
X81002578Y-82058675D01*
X80957560Y-82285000D01*
X80957560Y-82715000D01*
X81006843Y-82962765D01*
X81147191Y-83172809D01*
X81357235Y-83313157D01*
X81467601Y-83335110D01*
X81467600Y-86168848D01*
X79748064Y-87888385D01*
X79748061Y-87888387D01*
X79170468Y-88465980D01*
X79089146Y-88057145D01*
X78883918Y-87750000D01*
X79089146Y-87442855D01*
X79177235Y-87000000D01*
X79089146Y-86557145D01*
X78883918Y-86250000D01*
X79089146Y-85942855D01*
X79177235Y-85500000D01*
X79089146Y-85057145D01*
X78878255Y-84741524D01*
X78912368Y-84712763D01*
X79114119Y-84301874D01*
X78987954Y-84127000D01*
X77877000Y-84127000D01*
X77877000Y-84147000D01*
X77623000Y-84147000D01*
X77623000Y-84127000D01*
X76512046Y-84127000D01*
X76385881Y-84301874D01*
X76587632Y-84712763D01*
X76621745Y-84741524D01*
X76410854Y-85057145D01*
X76322765Y-85500000D01*
X76410854Y-85942855D01*
X76616082Y-86250000D01*
X76410854Y-86557145D01*
X76322765Y-87000000D01*
X76410854Y-87442855D01*
X76616082Y-87750000D01*
X76410854Y-88057145D01*
X76322765Y-88500000D01*
X76410854Y-88942855D01*
X76661711Y-89318289D01*
X77037145Y-89569146D01*
X77368217Y-89635000D01*
X78001449Y-89635000D01*
X77998063Y-89638386D01*
X77932317Y-89682316D01*
X77888387Y-89748062D01*
X77758286Y-89942772D01*
X77697174Y-90250000D01*
X77712601Y-90327556D01*
X77712600Y-96672449D01*
X77697174Y-96750000D01*
X77712600Y-96827551D01*
X77758285Y-97057227D01*
X77932316Y-97317684D01*
X77998065Y-97361616D01*
X78000175Y-97363726D01*
X77863600Y-97336560D01*
X76136400Y-97336560D01*
X75888635Y-97385843D01*
X75678591Y-97526191D01*
X75538243Y-97736235D01*
X75488960Y-97984000D01*
X75488960Y-100016000D01*
X75538243Y-100263765D01*
X75555773Y-100290000D01*
X72981708Y-100290000D01*
X73260974Y-100010734D01*
X73667000Y-99030499D01*
X73667000Y-97969501D01*
X73260974Y-96989266D01*
X72510734Y-96239026D01*
X71530499Y-95833000D01*
X70469501Y-95833000D01*
X69489266Y-96239026D01*
X69210000Y-96518292D01*
X69210000Y-95730213D01*
X75199392Y-95730213D01*
X75268857Y-95972397D01*
X75792302Y-96159144D01*
X76347368Y-96131362D01*
X76731143Y-95972397D01*
X76800608Y-95730213D01*
X76000000Y-94929605D01*
X75199392Y-95730213D01*
X69210000Y-95730213D01*
X69210000Y-95067736D01*
X69374200Y-95135750D01*
X70214250Y-95135750D01*
X70373000Y-94977000D01*
X70373000Y-93628260D01*
X70627000Y-93628260D01*
X70627000Y-94977000D01*
X70785750Y-95135750D01*
X71625800Y-95135750D01*
X71859189Y-95039077D01*
X72037817Y-94860448D01*
X72134490Y-94627059D01*
X72134490Y-94542302D01*
X74590856Y-94542302D01*
X74618638Y-95097368D01*
X74777603Y-95481143D01*
X75019787Y-95550608D01*
X75820395Y-94750000D01*
X76179605Y-94750000D01*
X76980213Y-95550608D01*
X77222397Y-95481143D01*
X77409144Y-94957698D01*
X77381362Y-94402632D01*
X77222397Y-94018857D01*
X76980213Y-93949392D01*
X76179605Y-94750000D01*
X75820395Y-94750000D01*
X75019787Y-93949392D01*
X74777603Y-94018857D01*
X74590856Y-94542302D01*
X72134490Y-94542302D01*
X72134490Y-93787010D01*
X71975740Y-93628260D01*
X70627000Y-93628260D01*
X70373000Y-93628260D01*
X70353000Y-93628260D01*
X70353000Y-93374260D01*
X70373000Y-93374260D01*
X70373000Y-92025520D01*
X70627000Y-92025520D01*
X70627000Y-93374260D01*
X71975740Y-93374260D01*
X72134490Y-93215510D01*
X72134490Y-92375461D01*
X72037817Y-92142072D01*
X71867865Y-91972119D01*
X74603000Y-91972119D01*
X74603000Y-92527881D01*
X74815680Y-93041337D01*
X75208663Y-93434320D01*
X75351363Y-93493428D01*
X75268857Y-93527603D01*
X75199392Y-93769787D01*
X76000000Y-94570395D01*
X76800608Y-93769787D01*
X76731143Y-93527603D01*
X76642490Y-93495975D01*
X76791337Y-93434320D01*
X77184320Y-93041337D01*
X77397000Y-92527881D01*
X77397000Y-91972119D01*
X77184320Y-91458663D01*
X76791337Y-91065680D01*
X76277881Y-90853000D01*
X75722119Y-90853000D01*
X75208663Y-91065680D01*
X74815680Y-91458663D01*
X74603000Y-91972119D01*
X71867865Y-91972119D01*
X71859189Y-91963443D01*
X71625800Y-91866770D01*
X70785750Y-91866770D01*
X70627000Y-92025520D01*
X70373000Y-92025520D01*
X70214250Y-91866770D01*
X69374200Y-91866770D01*
X69210000Y-91934784D01*
X69210000Y-85067825D01*
X69252745Y-85096387D01*
X69500510Y-85145670D01*
X71499490Y-85145670D01*
X71747255Y-85096387D01*
X71957299Y-84956039D01*
X72097647Y-84745995D01*
X72146930Y-84498230D01*
X72146930Y-82499250D01*
X72097647Y-82251485D01*
X71957299Y-82041441D01*
X71747255Y-81901093D01*
X71499490Y-81851810D01*
X69500510Y-81851810D01*
X69252745Y-81901093D01*
X69210000Y-81929655D01*
X69210000Y-80481708D01*
X69489266Y-80760974D01*
X70469501Y-81167000D01*
X71530499Y-81167000D01*
X72510734Y-80760974D01*
X73260974Y-80010734D01*
X73667000Y-79030499D01*
X73667000Y-78750000D01*
X74947174Y-78750000D01*
X74962601Y-78827556D01*
X74962600Y-81672449D01*
X74947174Y-81750000D01*
X74962600Y-81827551D01*
X75008285Y-82057227D01*
X75182316Y-82317684D01*
X75248065Y-82361616D01*
X75888386Y-83001937D01*
X75932316Y-83067684D01*
X76192772Y-83241715D01*
X76422448Y-83287400D01*
X76499999Y-83302826D01*
X76577550Y-83287400D01*
X76587552Y-83287400D01*
X76385881Y-83698126D01*
X76512046Y-83873000D01*
X77623000Y-83873000D01*
X77623000Y-83853000D01*
X77877000Y-83853000D01*
X77877000Y-83873000D01*
X78987954Y-83873000D01*
X79114119Y-83698126D01*
X78912368Y-83287237D01*
X78878255Y-83258476D01*
X79089146Y-82942855D01*
X79177235Y-82500000D01*
X79089146Y-82057145D01*
X78883918Y-81750000D01*
X79089146Y-81442855D01*
X79177235Y-81000000D01*
X79089146Y-80557145D01*
X78838289Y-80181711D01*
X78462855Y-79930854D01*
X78131783Y-79865000D01*
X77368217Y-79865000D01*
X77037145Y-79930854D01*
X76661711Y-80181711D01*
X76537400Y-80367756D01*
X76537400Y-79076151D01*
X76602249Y-79011302D01*
X76732235Y-79098157D01*
X76980000Y-79147440D01*
X78520000Y-79147440D01*
X78767765Y-79098157D01*
X78977809Y-78957809D01*
X79118157Y-78747765D01*
X79167440Y-78500000D01*
X79167440Y-77500000D01*
X79118157Y-77252235D01*
X78977809Y-77042191D01*
X78767765Y-76901843D01*
X78520000Y-76852560D01*
X76980000Y-76852560D01*
X76732235Y-76901843D01*
X76522191Y-77042191D01*
X76406162Y-77215839D01*
X76192772Y-77258285D01*
X75932316Y-77432316D01*
X75888386Y-77498063D01*
X75248063Y-78138386D01*
X75182317Y-78182316D01*
X75102441Y-78301859D01*
X75008286Y-78442772D01*
X74947174Y-78750000D01*
X73667000Y-78750000D01*
X73667000Y-77969501D01*
X73260974Y-76989266D01*
X72981708Y-76710000D01*
X89018292Y-76710000D01*
X88739026Y-76989266D01*
G04 #@! TD*
M02*
