G04 #@! TF.GenerationSoftware,KiCad,Pcbnew,(5.0.1)-4*
G04 #@! TF.CreationDate,2020-10-11T14:42:23+02:00*
G04 #@! TF.ProjectId,GP2Y0D8xxZ0F,4750325930443878785A30462E6B6963,1*
G04 #@! TF.SameCoordinates,Original*
G04 #@! TF.FileFunction,Soldermask,Top*
G04 #@! TF.FilePolarity,Negative*
%FSLAX46Y46*%
G04 Gerber Fmt 4.6, Leading zero omitted, Abs format (unit mm)*
G04 Created by KiCad (PCBNEW (5.0.1)-4) date 10/11/2020 2:42:23 PM*
%MOMM*%
%LPD*%
G01*
G04 APERTURE LIST*
%ADD10C,0.100000*%
G04 APERTURE END LIST*
D10*
G36*
X91651050Y-96353774D02*
X92057249Y-96522027D01*
X92323604Y-96700000D01*
X92422820Y-96766294D01*
X92733706Y-97077180D01*
X92977974Y-97442753D01*
X93146226Y-97848950D01*
X93226764Y-98253841D01*
X93232000Y-98280167D01*
X93232000Y-98719833D01*
X93146226Y-99151050D01*
X92977973Y-99557249D01*
X92851743Y-99746165D01*
X92733706Y-99922820D01*
X92422820Y-100233706D01*
X92422817Y-100233708D01*
X92057249Y-100477973D01*
X92057248Y-100477974D01*
X92057247Y-100477974D01*
X91651050Y-100646226D01*
X91219834Y-100732000D01*
X90780166Y-100732000D01*
X90348950Y-100646226D01*
X89942753Y-100477974D01*
X89942752Y-100477974D01*
X89942751Y-100477973D01*
X89577183Y-100233708D01*
X89577180Y-100233706D01*
X89266294Y-99922820D01*
X89148257Y-99746165D01*
X89022027Y-99557249D01*
X88853774Y-99151050D01*
X88768000Y-98719833D01*
X88768000Y-98280167D01*
X88773237Y-98253841D01*
X88853774Y-97848950D01*
X89022026Y-97442753D01*
X89266294Y-97077180D01*
X89577180Y-96766294D01*
X89676396Y-96700000D01*
X89942751Y-96522027D01*
X90348950Y-96353774D01*
X90780166Y-96268000D01*
X91219834Y-96268000D01*
X91651050Y-96353774D01*
X91651050Y-96353774D01*
G37*
G36*
X71651050Y-96353774D02*
X72057249Y-96522027D01*
X72323604Y-96700000D01*
X72422820Y-96766294D01*
X72733706Y-97077180D01*
X72977974Y-97442753D01*
X73146226Y-97848950D01*
X73226764Y-98253841D01*
X73232000Y-98280167D01*
X73232000Y-98719833D01*
X73146226Y-99151050D01*
X72977973Y-99557249D01*
X72851743Y-99746165D01*
X72733706Y-99922820D01*
X72422820Y-100233706D01*
X72422817Y-100233708D01*
X72057249Y-100477973D01*
X72057248Y-100477974D01*
X72057247Y-100477974D01*
X71651050Y-100646226D01*
X71219834Y-100732000D01*
X70780166Y-100732000D01*
X70348950Y-100646226D01*
X69942753Y-100477974D01*
X69942752Y-100477974D01*
X69942751Y-100477973D01*
X69577183Y-100233708D01*
X69577180Y-100233706D01*
X69266294Y-99922820D01*
X69148257Y-99746165D01*
X69022027Y-99557249D01*
X68853774Y-99151050D01*
X68768000Y-98719833D01*
X68768000Y-98280167D01*
X68773237Y-98253841D01*
X68853774Y-97848950D01*
X69022026Y-97442753D01*
X69266294Y-97077180D01*
X69577180Y-96766294D01*
X69676396Y-96700000D01*
X69942751Y-96522027D01*
X70348950Y-96353774D01*
X70780166Y-96268000D01*
X71219834Y-96268000D01*
X71651050Y-96353774D01*
X71651050Y-96353774D01*
G37*
G36*
X79748502Y-97799389D02*
X79948990Y-97860207D01*
X80133759Y-97958967D01*
X80133762Y-97958969D01*
X80133763Y-97958970D01*
X80295718Y-98091882D01*
X80295719Y-98091884D01*
X80295721Y-98091885D01*
X80428631Y-98253836D01*
X80527393Y-98438609D01*
X80588211Y-98639097D01*
X80603600Y-98795349D01*
X80603600Y-99204650D01*
X80588211Y-99360902D01*
X80527393Y-99561390D01*
X80428633Y-99746159D01*
X80428631Y-99746162D01*
X80428630Y-99746163D01*
X80295718Y-99908118D01*
X80295716Y-99908119D01*
X80295715Y-99908121D01*
X80133764Y-100041031D01*
X79948991Y-100139793D01*
X79748503Y-100200611D01*
X79540000Y-100221146D01*
X79331498Y-100200611D01*
X79131010Y-100139793D01*
X78946237Y-100041031D01*
X78784283Y-99908118D01*
X78651372Y-99746165D01*
X78651370Y-99746163D01*
X78552607Y-99561391D01*
X78533289Y-99497708D01*
X78491789Y-99360903D01*
X78476400Y-99204651D01*
X78476400Y-98795350D01*
X78491789Y-98639098D01*
X78552607Y-98438610D01*
X78651367Y-98253841D01*
X78784280Y-98091885D01*
X78784282Y-98091882D01*
X78784284Y-98091881D01*
X78784285Y-98091879D01*
X78946236Y-97958969D01*
X79131009Y-97860207D01*
X79331497Y-97799389D01*
X79540000Y-97778854D01*
X79748502Y-97799389D01*
X79748502Y-97799389D01*
G37*
G36*
X82288502Y-97799389D02*
X82488990Y-97860207D01*
X82673759Y-97958967D01*
X82673762Y-97958969D01*
X82673763Y-97958970D01*
X82835718Y-98091882D01*
X82835719Y-98091884D01*
X82835721Y-98091885D01*
X82968631Y-98253836D01*
X83067393Y-98438609D01*
X83128211Y-98639097D01*
X83143600Y-98795349D01*
X83143600Y-99204650D01*
X83128211Y-99360902D01*
X83067393Y-99561390D01*
X82968633Y-99746159D01*
X82968631Y-99746162D01*
X82968630Y-99746163D01*
X82835718Y-99908118D01*
X82835716Y-99908119D01*
X82835715Y-99908121D01*
X82673764Y-100041031D01*
X82488991Y-100139793D01*
X82288503Y-100200611D01*
X82080000Y-100221146D01*
X81871498Y-100200611D01*
X81671010Y-100139793D01*
X81486237Y-100041031D01*
X81324283Y-99908118D01*
X81191372Y-99746165D01*
X81191370Y-99746163D01*
X81092607Y-99561391D01*
X81073289Y-99497708D01*
X81031789Y-99360903D01*
X81016400Y-99204651D01*
X81016400Y-98795350D01*
X81031789Y-98639098D01*
X81092607Y-98438610D01*
X81191367Y-98253841D01*
X81324280Y-98091885D01*
X81324282Y-98091882D01*
X81324284Y-98091881D01*
X81324285Y-98091879D01*
X81486236Y-97958969D01*
X81671009Y-97860207D01*
X81871497Y-97799389D01*
X82080000Y-97778854D01*
X82288502Y-97799389D01*
X82288502Y-97799389D01*
G37*
G36*
X84828502Y-97799389D02*
X85028990Y-97860207D01*
X85213759Y-97958967D01*
X85213762Y-97958969D01*
X85213763Y-97958970D01*
X85375718Y-98091882D01*
X85375719Y-98091884D01*
X85375721Y-98091885D01*
X85508631Y-98253836D01*
X85607393Y-98438609D01*
X85668211Y-98639097D01*
X85683600Y-98795349D01*
X85683600Y-99204650D01*
X85668211Y-99360902D01*
X85607393Y-99561390D01*
X85508633Y-99746159D01*
X85508631Y-99746162D01*
X85508630Y-99746163D01*
X85375718Y-99908118D01*
X85375716Y-99908119D01*
X85375715Y-99908121D01*
X85213764Y-100041031D01*
X85028991Y-100139793D01*
X84828503Y-100200611D01*
X84620000Y-100221146D01*
X84411498Y-100200611D01*
X84211010Y-100139793D01*
X84026237Y-100041031D01*
X83864283Y-99908118D01*
X83731372Y-99746165D01*
X83731370Y-99746163D01*
X83632607Y-99561391D01*
X83613289Y-99497708D01*
X83571789Y-99360903D01*
X83556400Y-99204651D01*
X83556400Y-98795350D01*
X83571789Y-98639098D01*
X83632607Y-98438610D01*
X83731367Y-98253841D01*
X83864280Y-98091885D01*
X83864282Y-98091882D01*
X83864284Y-98091881D01*
X83864285Y-98091879D01*
X84026236Y-97958969D01*
X84211009Y-97860207D01*
X84411497Y-97799389D01*
X84620000Y-97778854D01*
X84828502Y-97799389D01*
X84828502Y-97799389D01*
G37*
G36*
X78063600Y-100216000D02*
X75936400Y-100216000D01*
X75936400Y-97784000D01*
X78063600Y-97784000D01*
X78063600Y-100216000D01*
X78063600Y-100216000D01*
G37*
G36*
X81280603Y-93824968D02*
X81280606Y-93824969D01*
X81280605Y-93824969D01*
X81455678Y-93897486D01*
X81455679Y-93897487D01*
X81613241Y-94002767D01*
X81747232Y-94136758D01*
X81747234Y-94136761D01*
X81819190Y-94244450D01*
X81834733Y-94263388D01*
X81853675Y-94278934D01*
X81875286Y-94290485D01*
X81898735Y-94297598D01*
X81923121Y-94300000D01*
X82450000Y-94300000D01*
X82450000Y-96700000D01*
X79550000Y-96700000D01*
X79550000Y-94300000D01*
X80076879Y-94300000D01*
X80101265Y-94297598D01*
X80124714Y-94290485D01*
X80146325Y-94278934D01*
X80165267Y-94263388D01*
X80180810Y-94244450D01*
X80252766Y-94136761D01*
X80252768Y-94136758D01*
X80386759Y-94002767D01*
X80544321Y-93897487D01*
X80544322Y-93897486D01*
X80719395Y-93824969D01*
X80719394Y-93824969D01*
X80719397Y-93824968D01*
X80905250Y-93788000D01*
X81094750Y-93788000D01*
X81280603Y-93824968D01*
X81280603Y-93824968D01*
G37*
G36*
X86280603Y-93824968D02*
X86280606Y-93824969D01*
X86280605Y-93824969D01*
X86455678Y-93897486D01*
X86455679Y-93897487D01*
X86613241Y-94002767D01*
X86747232Y-94136758D01*
X86747234Y-94136761D01*
X86819190Y-94244450D01*
X86834733Y-94263388D01*
X86853675Y-94278934D01*
X86875286Y-94290485D01*
X86898735Y-94297598D01*
X86923121Y-94300000D01*
X87450000Y-94300000D01*
X87450000Y-96700000D01*
X84550000Y-96700000D01*
X84550000Y-94300000D01*
X85076879Y-94300000D01*
X85101265Y-94297598D01*
X85124714Y-94290485D01*
X85146325Y-94278934D01*
X85165267Y-94263388D01*
X85180810Y-94244450D01*
X85252766Y-94136761D01*
X85252768Y-94136758D01*
X85386759Y-94002767D01*
X85544321Y-93897487D01*
X85544322Y-93897486D01*
X85719395Y-93824969D01*
X85719394Y-93824969D01*
X85719397Y-93824968D01*
X85905250Y-93788000D01*
X86094750Y-93788000D01*
X86280603Y-93824968D01*
X86280603Y-93824968D01*
G37*
G36*
X76280603Y-93824968D02*
X76280606Y-93824969D01*
X76280605Y-93824969D01*
X76455678Y-93897486D01*
X76455679Y-93897487D01*
X76613241Y-94002767D01*
X76747232Y-94136758D01*
X76747234Y-94136761D01*
X76819190Y-94244450D01*
X76834733Y-94263388D01*
X76853675Y-94278934D01*
X76875286Y-94290485D01*
X76898735Y-94297598D01*
X76923121Y-94300000D01*
X77450000Y-94300000D01*
X77450000Y-96700000D01*
X74550000Y-96700000D01*
X74550000Y-94300000D01*
X75076879Y-94300000D01*
X75101265Y-94297598D01*
X75124714Y-94290485D01*
X75146325Y-94278934D01*
X75165267Y-94263388D01*
X75180810Y-94244450D01*
X75252766Y-94136761D01*
X75252768Y-94136758D01*
X75386759Y-94002767D01*
X75544321Y-93897487D01*
X75544322Y-93897486D01*
X75719395Y-93824969D01*
X75719394Y-93824969D01*
X75719397Y-93824968D01*
X75905250Y-93788000D01*
X76094750Y-93788000D01*
X76280603Y-93824968D01*
X76280603Y-93824968D01*
G37*
G36*
X92922961Y-92863060D02*
X92824490Y-92863060D01*
X92800104Y-92865462D01*
X92776655Y-92872575D01*
X92755044Y-92884126D01*
X92736102Y-92899672D01*
X92720556Y-92918614D01*
X92709005Y-92940225D01*
X92701892Y-92963674D01*
X92699490Y-92988060D01*
X92699490Y-94700750D01*
X90300510Y-94700750D01*
X90300510Y-92988060D01*
X90298108Y-92963674D01*
X90290995Y-92940225D01*
X90279444Y-92918614D01*
X90263898Y-92899672D01*
X90244956Y-92884126D01*
X90223345Y-92872575D01*
X90199896Y-92865462D01*
X90175510Y-92863060D01*
X90077039Y-92863060D01*
X90521393Y-88962940D01*
X92478607Y-88962940D01*
X92922961Y-92863060D01*
X92922961Y-92863060D01*
G37*
G36*
X71922961Y-92863060D02*
X71824490Y-92863060D01*
X71800104Y-92865462D01*
X71776655Y-92872575D01*
X71755044Y-92884126D01*
X71736102Y-92899672D01*
X71720556Y-92918614D01*
X71709005Y-92940225D01*
X71701892Y-92963674D01*
X71699490Y-92988060D01*
X71699490Y-94700750D01*
X69300510Y-94700750D01*
X69300510Y-92988060D01*
X69298108Y-92963674D01*
X69290995Y-92940225D01*
X69279444Y-92918614D01*
X69263898Y-92899672D01*
X69244956Y-92884126D01*
X69223345Y-92872575D01*
X69199896Y-92865462D01*
X69175510Y-92863060D01*
X69077039Y-92863060D01*
X69521393Y-88962940D01*
X71478607Y-88962940D01*
X71922961Y-92863060D01*
X71922961Y-92863060D01*
G37*
G36*
X77450000Y-92700000D02*
X76923121Y-92700000D01*
X76898735Y-92702402D01*
X76875286Y-92709515D01*
X76853675Y-92721066D01*
X76834733Y-92736612D01*
X76819190Y-92755550D01*
X76747800Y-92862391D01*
X76747232Y-92863242D01*
X76613241Y-92997233D01*
X76533923Y-93050232D01*
X76455678Y-93102514D01*
X76320266Y-93158603D01*
X76280603Y-93175032D01*
X76094750Y-93212000D01*
X75905250Y-93212000D01*
X75719397Y-93175032D01*
X75679734Y-93158603D01*
X75544322Y-93102514D01*
X75466077Y-93050232D01*
X75386759Y-92997233D01*
X75252768Y-92863242D01*
X75252200Y-92862391D01*
X75180810Y-92755550D01*
X75165267Y-92736612D01*
X75146325Y-92721066D01*
X75124714Y-92709515D01*
X75101265Y-92702402D01*
X75076879Y-92700000D01*
X74550000Y-92700000D01*
X74550000Y-90300000D01*
X77450000Y-90300000D01*
X77450000Y-92700000D01*
X77450000Y-92700000D01*
G37*
G36*
X82450000Y-92700000D02*
X81923121Y-92700000D01*
X81898735Y-92702402D01*
X81875286Y-92709515D01*
X81853675Y-92721066D01*
X81834733Y-92736612D01*
X81819190Y-92755550D01*
X81747800Y-92862391D01*
X81747232Y-92863242D01*
X81613241Y-92997233D01*
X81533923Y-93050232D01*
X81455678Y-93102514D01*
X81320266Y-93158603D01*
X81280603Y-93175032D01*
X81094750Y-93212000D01*
X80905250Y-93212000D01*
X80719397Y-93175032D01*
X80679734Y-93158603D01*
X80544322Y-93102514D01*
X80466077Y-93050232D01*
X80386759Y-92997233D01*
X80252768Y-92863242D01*
X80252200Y-92862391D01*
X80180810Y-92755550D01*
X80165267Y-92736612D01*
X80146325Y-92721066D01*
X80124714Y-92709515D01*
X80101265Y-92702402D01*
X80076879Y-92700000D01*
X79550000Y-92700000D01*
X79550000Y-90300000D01*
X82450000Y-90300000D01*
X82450000Y-92700000D01*
X82450000Y-92700000D01*
G37*
G36*
X87450000Y-92700000D02*
X86923121Y-92700000D01*
X86898735Y-92702402D01*
X86875286Y-92709515D01*
X86853675Y-92721066D01*
X86834733Y-92736612D01*
X86819190Y-92755550D01*
X86747800Y-92862391D01*
X86747232Y-92863242D01*
X86613241Y-92997233D01*
X86533923Y-93050232D01*
X86455678Y-93102514D01*
X86320266Y-93158603D01*
X86280603Y-93175032D01*
X86094750Y-93212000D01*
X85905250Y-93212000D01*
X85719397Y-93175032D01*
X85679734Y-93158603D01*
X85544322Y-93102514D01*
X85466077Y-93050232D01*
X85386759Y-92997233D01*
X85252768Y-92863242D01*
X85252200Y-92862391D01*
X85180810Y-92755550D01*
X85165267Y-92736612D01*
X85146325Y-92721066D01*
X85124714Y-92709515D01*
X85101265Y-92702402D01*
X85076879Y-92700000D01*
X84550000Y-92700000D01*
X84550000Y-90300000D01*
X87450000Y-90300000D01*
X87450000Y-92700000D01*
X87450000Y-92700000D01*
G37*
G36*
X84657224Y-80310128D02*
X84789175Y-80350155D01*
X84910781Y-80415155D01*
X85017370Y-80502630D01*
X85104845Y-80609219D01*
X85169845Y-80730825D01*
X85209872Y-80862776D01*
X85223387Y-81000000D01*
X85209872Y-81137224D01*
X85169845Y-81269175D01*
X85104845Y-81390781D01*
X85017370Y-81497370D01*
X84910781Y-81584845D01*
X84808034Y-81639764D01*
X84787666Y-81653373D01*
X84770339Y-81670701D01*
X84756725Y-81691075D01*
X84747348Y-81713714D01*
X84742567Y-81737748D01*
X84742567Y-81762252D01*
X84747347Y-81786285D01*
X84756725Y-81808924D01*
X84770338Y-81829299D01*
X84787666Y-81846626D01*
X84808034Y-81860236D01*
X84910781Y-81915155D01*
X85017370Y-82002630D01*
X85104845Y-82109219D01*
X85169845Y-82230825D01*
X85209872Y-82362776D01*
X85223387Y-82500000D01*
X85209872Y-82637224D01*
X85169845Y-82769175D01*
X85104845Y-82890781D01*
X85017370Y-82997370D01*
X84910781Y-83084845D01*
X84808034Y-83139764D01*
X84787666Y-83153373D01*
X84770339Y-83170701D01*
X84756725Y-83191075D01*
X84747348Y-83213714D01*
X84742567Y-83237748D01*
X84742567Y-83262252D01*
X84747347Y-83286285D01*
X84756725Y-83308924D01*
X84770338Y-83329299D01*
X84787666Y-83346626D01*
X84808034Y-83360236D01*
X84910781Y-83415155D01*
X85017370Y-83502630D01*
X85104845Y-83609219D01*
X85169845Y-83730825D01*
X85209872Y-83862776D01*
X85223387Y-84000000D01*
X85209872Y-84137224D01*
X85169845Y-84269175D01*
X85104845Y-84390781D01*
X85017370Y-84497370D01*
X84910781Y-84584845D01*
X84808034Y-84639764D01*
X84787666Y-84653373D01*
X84770339Y-84670701D01*
X84756725Y-84691075D01*
X84747348Y-84713714D01*
X84742567Y-84737748D01*
X84742567Y-84762252D01*
X84747347Y-84786285D01*
X84756725Y-84808924D01*
X84770338Y-84829299D01*
X84787666Y-84846626D01*
X84808034Y-84860236D01*
X84910781Y-84915155D01*
X85017370Y-85002630D01*
X85104845Y-85109219D01*
X85169845Y-85230825D01*
X85209872Y-85362776D01*
X85223387Y-85500000D01*
X85209872Y-85637224D01*
X85169845Y-85769175D01*
X85104845Y-85890781D01*
X85017370Y-85997370D01*
X84910781Y-86084845D01*
X84808034Y-86139764D01*
X84787666Y-86153373D01*
X84770339Y-86170701D01*
X84756725Y-86191075D01*
X84747348Y-86213714D01*
X84742567Y-86237748D01*
X84742567Y-86262252D01*
X84747347Y-86286285D01*
X84756725Y-86308924D01*
X84770338Y-86329299D01*
X84787666Y-86346626D01*
X84808034Y-86360236D01*
X84910781Y-86415155D01*
X85017370Y-86502630D01*
X85104845Y-86609219D01*
X85169845Y-86730825D01*
X85209872Y-86862776D01*
X85223387Y-87000000D01*
X85209872Y-87137224D01*
X85169845Y-87269175D01*
X85104845Y-87390781D01*
X85017370Y-87497370D01*
X84910781Y-87584845D01*
X84808034Y-87639764D01*
X84787666Y-87653373D01*
X84770339Y-87670701D01*
X84756725Y-87691075D01*
X84747348Y-87713714D01*
X84742567Y-87737748D01*
X84742567Y-87762252D01*
X84747347Y-87786285D01*
X84756725Y-87808924D01*
X84770338Y-87829299D01*
X84787666Y-87846626D01*
X84808034Y-87860236D01*
X84910781Y-87915155D01*
X85017370Y-88002630D01*
X85104845Y-88109219D01*
X85169845Y-88230825D01*
X85209872Y-88362776D01*
X85223387Y-88500000D01*
X85209872Y-88637224D01*
X85169845Y-88769175D01*
X85104845Y-88890781D01*
X85017370Y-88997370D01*
X84910781Y-89084845D01*
X84789175Y-89149845D01*
X84657224Y-89189872D01*
X84554390Y-89200000D01*
X83945610Y-89200000D01*
X83842776Y-89189872D01*
X83710825Y-89149845D01*
X83589219Y-89084845D01*
X83482630Y-88997370D01*
X83395155Y-88890781D01*
X83330155Y-88769175D01*
X83290128Y-88637224D01*
X83276613Y-88500000D01*
X83290128Y-88362776D01*
X83330155Y-88230825D01*
X83395155Y-88109219D01*
X83482630Y-88002630D01*
X83589219Y-87915155D01*
X83691966Y-87860236D01*
X83712334Y-87846627D01*
X83729661Y-87829299D01*
X83743275Y-87808925D01*
X83752652Y-87786286D01*
X83757433Y-87762252D01*
X83757433Y-87737748D01*
X83752653Y-87713715D01*
X83743275Y-87691076D01*
X83729662Y-87670701D01*
X83712334Y-87653374D01*
X83691966Y-87639764D01*
X83589219Y-87584845D01*
X83482630Y-87497370D01*
X83395155Y-87390781D01*
X83330155Y-87269175D01*
X83290128Y-87137224D01*
X83276613Y-87000000D01*
X83290128Y-86862776D01*
X83330155Y-86730825D01*
X83395155Y-86609219D01*
X83482630Y-86502630D01*
X83589219Y-86415155D01*
X83691966Y-86360236D01*
X83712334Y-86346627D01*
X83729661Y-86329299D01*
X83743275Y-86308925D01*
X83752652Y-86286286D01*
X83757433Y-86262252D01*
X83757433Y-86237748D01*
X83752653Y-86213715D01*
X83743275Y-86191076D01*
X83729662Y-86170701D01*
X83712334Y-86153374D01*
X83691966Y-86139764D01*
X83589219Y-86084845D01*
X83482630Y-85997370D01*
X83395155Y-85890781D01*
X83330155Y-85769175D01*
X83290128Y-85637224D01*
X83276613Y-85500000D01*
X83290128Y-85362776D01*
X83330155Y-85230825D01*
X83395155Y-85109219D01*
X83482630Y-85002630D01*
X83589219Y-84915155D01*
X83691966Y-84860236D01*
X83712334Y-84846627D01*
X83729661Y-84829299D01*
X83743275Y-84808925D01*
X83752652Y-84786286D01*
X83757433Y-84762252D01*
X83757433Y-84737748D01*
X83752653Y-84713715D01*
X83743275Y-84691076D01*
X83729662Y-84670701D01*
X83712334Y-84653374D01*
X83691966Y-84639764D01*
X83589219Y-84584845D01*
X83482630Y-84497370D01*
X83395155Y-84390781D01*
X83330155Y-84269175D01*
X83290128Y-84137224D01*
X83276613Y-84000000D01*
X83290128Y-83862776D01*
X83330155Y-83730825D01*
X83395155Y-83609219D01*
X83482630Y-83502630D01*
X83589219Y-83415155D01*
X83691966Y-83360236D01*
X83712334Y-83346627D01*
X83729661Y-83329299D01*
X83743275Y-83308925D01*
X83752652Y-83286286D01*
X83757433Y-83262252D01*
X83757433Y-83237748D01*
X83752653Y-83213715D01*
X83743275Y-83191076D01*
X83729662Y-83170701D01*
X83712334Y-83153374D01*
X83691966Y-83139764D01*
X83589219Y-83084845D01*
X83482630Y-82997370D01*
X83395155Y-82890781D01*
X83330155Y-82769175D01*
X83290128Y-82637224D01*
X83276613Y-82500000D01*
X83290128Y-82362776D01*
X83330155Y-82230825D01*
X83395155Y-82109219D01*
X83482630Y-82002630D01*
X83589219Y-81915155D01*
X83691966Y-81860236D01*
X83712334Y-81846627D01*
X83729661Y-81829299D01*
X83743275Y-81808925D01*
X83752652Y-81786286D01*
X83757433Y-81762252D01*
X83757433Y-81737748D01*
X83752653Y-81713715D01*
X83743275Y-81691076D01*
X83729662Y-81670701D01*
X83712334Y-81653374D01*
X83691966Y-81639764D01*
X83589219Y-81584845D01*
X83482630Y-81497370D01*
X83395155Y-81390781D01*
X83330155Y-81269175D01*
X83290128Y-81137224D01*
X83276613Y-81000000D01*
X83290128Y-80862776D01*
X83330155Y-80730825D01*
X83395155Y-80609219D01*
X83482630Y-80502630D01*
X83589219Y-80415155D01*
X83710825Y-80350155D01*
X83842776Y-80310128D01*
X83945610Y-80300000D01*
X84554390Y-80300000D01*
X84657224Y-80310128D01*
X84657224Y-80310128D01*
G37*
G36*
X78157224Y-80310128D02*
X78289175Y-80350155D01*
X78410781Y-80415155D01*
X78517370Y-80502630D01*
X78604845Y-80609219D01*
X78669845Y-80730825D01*
X78709872Y-80862776D01*
X78723387Y-81000000D01*
X78709872Y-81137224D01*
X78669845Y-81269175D01*
X78604845Y-81390781D01*
X78517370Y-81497370D01*
X78410781Y-81584845D01*
X78308034Y-81639764D01*
X78287666Y-81653373D01*
X78270339Y-81670701D01*
X78256725Y-81691075D01*
X78247348Y-81713714D01*
X78242567Y-81737748D01*
X78242567Y-81762252D01*
X78247347Y-81786285D01*
X78256725Y-81808924D01*
X78270338Y-81829299D01*
X78287666Y-81846626D01*
X78308034Y-81860236D01*
X78410781Y-81915155D01*
X78517370Y-82002630D01*
X78604845Y-82109219D01*
X78669845Y-82230825D01*
X78709872Y-82362776D01*
X78723387Y-82500000D01*
X78709872Y-82637224D01*
X78669845Y-82769175D01*
X78604845Y-82890781D01*
X78517370Y-82997370D01*
X78410781Y-83084845D01*
X78308034Y-83139764D01*
X78287666Y-83153373D01*
X78270339Y-83170701D01*
X78256725Y-83191075D01*
X78247348Y-83213714D01*
X78242567Y-83237748D01*
X78242567Y-83262252D01*
X78247347Y-83286285D01*
X78256725Y-83308924D01*
X78270338Y-83329299D01*
X78287666Y-83346626D01*
X78308034Y-83360236D01*
X78410781Y-83415155D01*
X78517370Y-83502630D01*
X78604845Y-83609219D01*
X78669845Y-83730825D01*
X78709872Y-83862776D01*
X78723387Y-84000000D01*
X78709872Y-84137224D01*
X78669845Y-84269175D01*
X78604845Y-84390781D01*
X78517370Y-84497370D01*
X78410781Y-84584845D01*
X78308034Y-84639764D01*
X78287666Y-84653373D01*
X78270339Y-84670701D01*
X78256725Y-84691075D01*
X78247348Y-84713714D01*
X78242567Y-84737748D01*
X78242567Y-84762252D01*
X78247347Y-84786285D01*
X78256725Y-84808924D01*
X78270338Y-84829299D01*
X78287666Y-84846626D01*
X78308034Y-84860236D01*
X78410781Y-84915155D01*
X78517370Y-85002630D01*
X78604845Y-85109219D01*
X78669845Y-85230825D01*
X78709872Y-85362776D01*
X78723387Y-85500000D01*
X78709872Y-85637224D01*
X78669845Y-85769175D01*
X78604845Y-85890781D01*
X78517370Y-85997370D01*
X78410781Y-86084845D01*
X78308034Y-86139764D01*
X78287666Y-86153373D01*
X78270339Y-86170701D01*
X78256725Y-86191075D01*
X78247348Y-86213714D01*
X78242567Y-86237748D01*
X78242567Y-86262252D01*
X78247347Y-86286285D01*
X78256725Y-86308924D01*
X78270338Y-86329299D01*
X78287666Y-86346626D01*
X78308034Y-86360236D01*
X78410781Y-86415155D01*
X78517370Y-86502630D01*
X78604845Y-86609219D01*
X78669845Y-86730825D01*
X78709872Y-86862776D01*
X78723387Y-87000000D01*
X78709872Y-87137224D01*
X78669845Y-87269175D01*
X78604845Y-87390781D01*
X78517370Y-87497370D01*
X78410781Y-87584845D01*
X78308034Y-87639764D01*
X78287666Y-87653373D01*
X78270339Y-87670701D01*
X78256725Y-87691075D01*
X78247348Y-87713714D01*
X78242567Y-87737748D01*
X78242567Y-87762252D01*
X78247347Y-87786285D01*
X78256725Y-87808924D01*
X78270338Y-87829299D01*
X78287666Y-87846626D01*
X78308034Y-87860236D01*
X78410781Y-87915155D01*
X78517370Y-88002630D01*
X78604845Y-88109219D01*
X78669845Y-88230825D01*
X78709872Y-88362776D01*
X78723387Y-88500000D01*
X78709872Y-88637224D01*
X78669845Y-88769175D01*
X78604845Y-88890781D01*
X78517370Y-88997370D01*
X78410781Y-89084845D01*
X78289175Y-89149845D01*
X78157224Y-89189872D01*
X78054390Y-89200000D01*
X77445610Y-89200000D01*
X77342776Y-89189872D01*
X77210825Y-89149845D01*
X77089219Y-89084845D01*
X76982630Y-88997370D01*
X76895155Y-88890781D01*
X76830155Y-88769175D01*
X76790128Y-88637224D01*
X76776613Y-88500000D01*
X76790128Y-88362776D01*
X76830155Y-88230825D01*
X76895155Y-88109219D01*
X76982630Y-88002630D01*
X77089219Y-87915155D01*
X77191966Y-87860236D01*
X77212334Y-87846627D01*
X77229661Y-87829299D01*
X77243275Y-87808925D01*
X77252652Y-87786286D01*
X77257433Y-87762252D01*
X77257433Y-87737748D01*
X77252653Y-87713715D01*
X77243275Y-87691076D01*
X77229662Y-87670701D01*
X77212334Y-87653374D01*
X77191966Y-87639764D01*
X77089219Y-87584845D01*
X76982630Y-87497370D01*
X76895155Y-87390781D01*
X76830155Y-87269175D01*
X76790128Y-87137224D01*
X76776613Y-87000000D01*
X76790128Y-86862776D01*
X76830155Y-86730825D01*
X76895155Y-86609219D01*
X76982630Y-86502630D01*
X77089219Y-86415155D01*
X77191966Y-86360236D01*
X77212334Y-86346627D01*
X77229661Y-86329299D01*
X77243275Y-86308925D01*
X77252652Y-86286286D01*
X77257433Y-86262252D01*
X77257433Y-86237748D01*
X77252653Y-86213715D01*
X77243275Y-86191076D01*
X77229662Y-86170701D01*
X77212334Y-86153374D01*
X77191966Y-86139764D01*
X77089219Y-86084845D01*
X76982630Y-85997370D01*
X76895155Y-85890781D01*
X76830155Y-85769175D01*
X76790128Y-85637224D01*
X76776613Y-85500000D01*
X76790128Y-85362776D01*
X76830155Y-85230825D01*
X76895155Y-85109219D01*
X76982630Y-85002630D01*
X77089219Y-84915155D01*
X77191966Y-84860236D01*
X77212334Y-84846627D01*
X77229661Y-84829299D01*
X77243275Y-84808925D01*
X77252652Y-84786286D01*
X77257433Y-84762252D01*
X77257433Y-84737748D01*
X77252653Y-84713715D01*
X77243275Y-84691076D01*
X77229662Y-84670701D01*
X77212334Y-84653374D01*
X77191966Y-84639764D01*
X77089219Y-84584845D01*
X76982630Y-84497370D01*
X76895155Y-84390781D01*
X76830155Y-84269175D01*
X76790128Y-84137224D01*
X76776613Y-84000000D01*
X76790128Y-83862776D01*
X76830155Y-83730825D01*
X76895155Y-83609219D01*
X76982630Y-83502630D01*
X77089219Y-83415155D01*
X77191966Y-83360236D01*
X77212334Y-83346627D01*
X77229661Y-83329299D01*
X77243275Y-83308925D01*
X77252652Y-83286286D01*
X77257433Y-83262252D01*
X77257433Y-83237748D01*
X77252653Y-83213715D01*
X77243275Y-83191076D01*
X77229662Y-83170701D01*
X77212334Y-83153374D01*
X77191966Y-83139764D01*
X77089219Y-83084845D01*
X76982630Y-82997370D01*
X76895155Y-82890781D01*
X76830155Y-82769175D01*
X76790128Y-82637224D01*
X76776613Y-82500000D01*
X76790128Y-82362776D01*
X76830155Y-82230825D01*
X76895155Y-82109219D01*
X76982630Y-82002630D01*
X77089219Y-81915155D01*
X77191966Y-81860236D01*
X77212334Y-81846627D01*
X77229661Y-81829299D01*
X77243275Y-81808925D01*
X77252652Y-81786286D01*
X77257433Y-81762252D01*
X77257433Y-81737748D01*
X77252653Y-81713715D01*
X77243275Y-81691076D01*
X77229662Y-81670701D01*
X77212334Y-81653374D01*
X77191966Y-81639764D01*
X77089219Y-81584845D01*
X76982630Y-81497370D01*
X76895155Y-81390781D01*
X76830155Y-81269175D01*
X76790128Y-81137224D01*
X76776613Y-81000000D01*
X76790128Y-80862776D01*
X76830155Y-80730825D01*
X76895155Y-80609219D01*
X76982630Y-80502630D01*
X77089219Y-80415155D01*
X77210825Y-80350155D01*
X77342776Y-80310128D01*
X77445610Y-80300000D01*
X78054390Y-80300000D01*
X78157224Y-80310128D01*
X78157224Y-80310128D01*
G37*
G36*
X92699490Y-84011940D02*
X92701892Y-84036326D01*
X92709005Y-84059775D01*
X92720556Y-84081386D01*
X92736102Y-84100328D01*
X92755044Y-84115874D01*
X92776655Y-84127425D01*
X92800104Y-84134538D01*
X92824490Y-84136940D01*
X92922961Y-84136940D01*
X92478607Y-88037060D01*
X90521393Y-88037060D01*
X90077039Y-84136940D01*
X90175510Y-84136940D01*
X90199896Y-84134538D01*
X90223345Y-84127425D01*
X90244956Y-84115874D01*
X90263898Y-84100328D01*
X90279444Y-84081386D01*
X90290995Y-84059775D01*
X90298108Y-84036326D01*
X90300510Y-84011940D01*
X90300510Y-82299250D01*
X92699490Y-82299250D01*
X92699490Y-84011940D01*
X92699490Y-84011940D01*
G37*
G36*
X71699490Y-84011940D02*
X71701892Y-84036326D01*
X71709005Y-84059775D01*
X71720556Y-84081386D01*
X71736102Y-84100328D01*
X71755044Y-84115874D01*
X71776655Y-84127425D01*
X71800104Y-84134538D01*
X71824490Y-84136940D01*
X71922961Y-84136940D01*
X71478607Y-88037060D01*
X69521393Y-88037060D01*
X69077039Y-84136940D01*
X69175510Y-84136940D01*
X69199896Y-84134538D01*
X69223345Y-84127425D01*
X69244956Y-84115874D01*
X69263898Y-84100328D01*
X69279444Y-84081386D01*
X69290995Y-84059775D01*
X69298108Y-84036326D01*
X69300510Y-84011940D01*
X69300510Y-82299250D01*
X71699490Y-82299250D01*
X71699490Y-84011940D01*
X71699490Y-84011940D01*
G37*
G36*
X89100430Y-87918690D02*
X88320779Y-87918690D01*
X88296393Y-87921092D01*
X88288737Y-87923414D01*
X88094750Y-87962000D01*
X87905250Y-87962000D01*
X87711265Y-87923415D01*
X87703608Y-87921092D01*
X87679221Y-87918690D01*
X86899570Y-87918690D01*
X86899570Y-85921030D01*
X89100430Y-85921030D01*
X89100430Y-87918690D01*
X89100430Y-87918690D01*
G37*
G36*
X88288735Y-83076585D02*
X88296392Y-83078908D01*
X88320779Y-83081310D01*
X89100430Y-83081310D01*
X89100430Y-85078970D01*
X86899570Y-85078970D01*
X86899570Y-83081310D01*
X87679221Y-83081310D01*
X87703607Y-83078908D01*
X87711263Y-83076586D01*
X87905250Y-83038000D01*
X88094750Y-83038000D01*
X88288735Y-83076585D01*
X88288735Y-83076585D01*
G37*
G36*
X71651050Y-76353774D02*
X72057249Y-76522027D01*
X72417953Y-76763042D01*
X72422820Y-76766294D01*
X72733706Y-77077180D01*
X72733708Y-77077183D01*
X72916104Y-77350157D01*
X72977974Y-77442753D01*
X73146226Y-77848950D01*
X73232000Y-78280166D01*
X73232000Y-78719834D01*
X73146226Y-79151050D01*
X72977974Y-79557247D01*
X72733706Y-79922820D01*
X72422820Y-80233706D01*
X72422817Y-80233708D01*
X72057249Y-80477973D01*
X72057248Y-80477974D01*
X72057247Y-80477974D01*
X71651050Y-80646226D01*
X71219834Y-80732000D01*
X70780166Y-80732000D01*
X70348950Y-80646226D01*
X69942753Y-80477974D01*
X69942752Y-80477974D01*
X69942751Y-80477973D01*
X69577183Y-80233708D01*
X69577180Y-80233706D01*
X69266294Y-79922820D01*
X69022026Y-79557247D01*
X68853774Y-79151050D01*
X68768000Y-78719834D01*
X68768000Y-78280166D01*
X68853774Y-77848950D01*
X69022026Y-77442753D01*
X69083897Y-77350157D01*
X69266292Y-77077183D01*
X69266294Y-77077180D01*
X69577180Y-76766294D01*
X69582047Y-76763042D01*
X69942751Y-76522027D01*
X70348950Y-76353774D01*
X70780166Y-76268000D01*
X71219834Y-76268000D01*
X71651050Y-76353774D01*
X71651050Y-76353774D01*
G37*
G36*
X91651050Y-76353774D02*
X92057249Y-76522027D01*
X92417953Y-76763042D01*
X92422820Y-76766294D01*
X92733706Y-77077180D01*
X92733708Y-77077183D01*
X92916104Y-77350157D01*
X92977974Y-77442753D01*
X93146226Y-77848950D01*
X93232000Y-78280166D01*
X93232000Y-78719834D01*
X93146226Y-79151050D01*
X92977974Y-79557247D01*
X92733706Y-79922820D01*
X92422820Y-80233706D01*
X92422817Y-80233708D01*
X92057249Y-80477973D01*
X92057248Y-80477974D01*
X92057247Y-80477974D01*
X91651050Y-80646226D01*
X91219834Y-80732000D01*
X90780166Y-80732000D01*
X90348950Y-80646226D01*
X89942753Y-80477974D01*
X89942752Y-80477974D01*
X89942751Y-80477973D01*
X89577183Y-80233708D01*
X89577180Y-80233706D01*
X89266294Y-79922820D01*
X89022026Y-79557247D01*
X88853774Y-79151050D01*
X88768000Y-78719834D01*
X88768000Y-78280166D01*
X88853774Y-77848950D01*
X89022026Y-77442753D01*
X89083897Y-77350157D01*
X89266292Y-77077183D01*
X89266294Y-77077180D01*
X89577180Y-76766294D01*
X89582047Y-76763042D01*
X89942751Y-76522027D01*
X90348950Y-76353774D01*
X90780166Y-76268000D01*
X91219834Y-76268000D01*
X91651050Y-76353774D01*
X91651050Y-76353774D01*
G37*
G36*
X78720000Y-78700000D02*
X76780000Y-78700000D01*
X76780000Y-77300000D01*
X78720000Y-77300000D01*
X78720000Y-78700000D01*
X78720000Y-78700000D01*
G37*
G36*
X84657224Y-77310128D02*
X84789175Y-77350155D01*
X84910781Y-77415155D01*
X85017370Y-77502630D01*
X85104845Y-77609219D01*
X85169845Y-77730825D01*
X85209872Y-77862776D01*
X85223387Y-78000000D01*
X85209872Y-78137224D01*
X85169845Y-78269175D01*
X85104845Y-78390781D01*
X85017370Y-78497370D01*
X84910781Y-78584845D01*
X84789175Y-78649845D01*
X84657224Y-78689872D01*
X84554390Y-78700000D01*
X83945610Y-78700000D01*
X83842776Y-78689872D01*
X83710825Y-78649845D01*
X83589219Y-78584845D01*
X83482630Y-78497370D01*
X83395155Y-78390781D01*
X83330155Y-78269175D01*
X83290128Y-78137224D01*
X83276613Y-78000000D01*
X83290128Y-77862776D01*
X83330155Y-77730825D01*
X83395155Y-77609219D01*
X83482630Y-77502630D01*
X83589219Y-77415155D01*
X83710825Y-77350155D01*
X83842776Y-77310128D01*
X83945610Y-77300000D01*
X84554390Y-77300000D01*
X84657224Y-77310128D01*
X84657224Y-77310128D01*
G37*
M02*
