G04 #@! TF.GenerationSoftware,KiCad,Pcbnew,(5.0.1)-4*
G04 #@! TF.CreationDate,2020-10-11T14:42:23+02:00*
G04 #@! TF.ProjectId,GP2Y0D8xxZ0F,4750325930443878785A30462E6B6963,1*
G04 #@! TF.SameCoordinates,Original*
G04 #@! TF.FileFunction,Copper,L1,Top,Signal*
G04 #@! TF.FilePolarity,Positive*
%FSLAX46Y46*%
G04 Gerber Fmt 4.6, Leading zero omitted, Abs format (unit mm)*
G04 Created by KiCad (PCBNEW (5.0.1)-4) date 10/11/2020 2:42:23 PM*
%MOMM*%
%LPD*%
G01*
G04 APERTURE LIST*
G04 #@! TA.AperFunction,ComponentPad*
%ADD10R,1.540000X1.000000*%
G04 #@! TD*
G04 #@! TA.AperFunction,ComponentPad*
%ADD11O,1.540000X1.000000*%
G04 #@! TD*
G04 #@! TA.AperFunction,ComponentPad*
%ADD12R,1.727200X2.032000*%
G04 #@! TD*
G04 #@! TA.AperFunction,ComponentPad*
%ADD13O,1.727200X2.032000*%
G04 #@! TD*
G04 #@! TA.AperFunction,SMDPad,CuDef*
%ADD14C,1.986130*%
G04 #@! TD*
G04 #@! TA.AperFunction,Conductor*
%ADD15C,0.100000*%
G04 #@! TD*
G04 #@! TA.AperFunction,ComponentPad*
%ADD16R,1.998980X1.998980*%
G04 #@! TD*
G04 #@! TA.AperFunction,SMDPad,CuDef*
%ADD17R,1.800860X1.597660*%
G04 #@! TD*
G04 #@! TA.AperFunction,ComponentPad*
%ADD18C,1.524000*%
G04 #@! TD*
G04 #@! TA.AperFunction,ComponentPad*
%ADD19C,4.064000*%
G04 #@! TD*
G04 #@! TA.AperFunction,SMDPad,CuDef*
%ADD20R,2.500000X2.000000*%
G04 #@! TD*
G04 #@! TA.AperFunction,Conductor*
%ADD21C,0.304800*%
G04 #@! TD*
G04 #@! TA.AperFunction,Conductor*
%ADD22C,0.152400*%
G04 #@! TD*
G04 #@! TA.AperFunction,Conductor*
%ADD23C,0.254000*%
G04 #@! TD*
G04 APERTURE END LIST*
D10*
G04 #@! TO.P,U1,1*
G04 #@! TO.N,Net-(U1-Pad1)*
X77750000Y-78000000D03*
D11*
G04 #@! TO.P,U1,2*
G04 #@! TO.N,Net-(R1-Pad1)*
X77750000Y-81000000D03*
G04 #@! TO.P,U1,3*
G04 #@! TO.N,Net-(U1-Pad1)*
X77750000Y-82500000D03*
G04 #@! TO.P,U1,4*
G04 #@! TO.N,GND*
X77750000Y-84000000D03*
G04 #@! TO.P,U1,5*
G04 #@! TO.N,N/C*
X77750000Y-85500000D03*
G04 #@! TO.P,U1,6*
X77750000Y-87000000D03*
G04 #@! TO.P,U1,7*
G04 #@! TO.N,Net-(C1-Pad1)*
X77750000Y-88500000D03*
G04 #@! TO.P,U1,8*
G04 #@! TO.N,N/C*
X84250000Y-88500000D03*
G04 #@! TO.P,U1,9*
X84250000Y-87000000D03*
G04 #@! TO.P,U1,10*
X84250000Y-85500000D03*
G04 #@! TO.P,U1,11*
G04 #@! TO.N,VCC*
X84250000Y-84000000D03*
G04 #@! TO.P,U1,12*
G04 #@! TO.N,/Enable*
X84250000Y-82500000D03*
G04 #@! TO.P,U1,13*
G04 #@! TO.N,/Output*
X84250000Y-81000000D03*
G04 #@! TO.P,U1,14*
G04 #@! TO.N,VCC*
X84250000Y-78000000D03*
G04 #@! TD*
D12*
G04 #@! TO.P,P1,1*
G04 #@! TO.N,VCC*
X77000000Y-99000000D03*
D13*
G04 #@! TO.P,P1,2*
G04 #@! TO.N,/Enable*
X79540000Y-99000000D03*
G04 #@! TO.P,P1,3*
G04 #@! TO.N,/Output*
X82080000Y-99000000D03*
G04 #@! TO.P,P1,4*
G04 #@! TO.N,GND*
X84620000Y-99000000D03*
G04 #@! TD*
D14*
G04 #@! TO.P,R1,1*
G04 #@! TO.N,Net-(R1-Pad1)*
X70500000Y-86087000D03*
D15*
G04 #@! TD*
G04 #@! TO.N,Net-(R1-Pad1)*
G04 #@! TO.C,R1*
G36*
X69301120Y-84336940D02*
X71698880Y-84336940D01*
X71300100Y-87837060D01*
X69699900Y-87837060D01*
X69301120Y-84336940D01*
X69301120Y-84336940D01*
G37*
D14*
G04 #@! TO.P,R1,2*
G04 #@! TO.N,GND*
X70500000Y-90913000D03*
D15*
G04 #@! TD*
G04 #@! TO.N,GND*
G04 #@! TO.C,R1*
G36*
X71698880Y-92663060D02*
X69301120Y-92663060D01*
X69699900Y-89162940D01*
X71300100Y-89162940D01*
X71698880Y-92663060D01*
X71698880Y-92663060D01*
G37*
D16*
G04 #@! TO.P,R1,1*
G04 #@! TO.N,Net-(R1-Pad1)*
X70500000Y-83498740D03*
G04 #@! TO.P,R1,2*
G04 #@! TO.N,GND*
X70500000Y-93501260D03*
G04 #@! TD*
D14*
G04 #@! TO.P,R2,1*
G04 #@! TO.N,VCC*
X91500000Y-86087000D03*
D15*
G04 #@! TD*
G04 #@! TO.N,VCC*
G04 #@! TO.C,R2*
G36*
X90301120Y-84336940D02*
X92698880Y-84336940D01*
X92300100Y-87837060D01*
X90699900Y-87837060D01*
X90301120Y-84336940D01*
X90301120Y-84336940D01*
G37*
D14*
G04 #@! TO.P,R2,2*
G04 #@! TO.N,Net-(D1-Pad2)*
X91500000Y-90913000D03*
D15*
G04 #@! TD*
G04 #@! TO.N,Net-(D1-Pad2)*
G04 #@! TO.C,R2*
G36*
X92698880Y-92663060D02*
X90301120Y-92663060D01*
X90699900Y-89162940D01*
X92300100Y-89162940D01*
X92698880Y-92663060D01*
X92698880Y-92663060D01*
G37*
D16*
G04 #@! TO.P,R2,1*
G04 #@! TO.N,VCC*
X91500000Y-83498740D03*
G04 #@! TO.P,R2,2*
G04 #@! TO.N,Net-(D1-Pad2)*
X91500000Y-93501260D03*
G04 #@! TD*
D17*
G04 #@! TO.P,D1,2*
G04 #@! TO.N,Net-(D1-Pad2)*
X88000000Y-86919860D03*
G04 #@! TO.P,D1,1*
G04 #@! TO.N,GND*
X88000000Y-84080140D03*
D18*
X88000000Y-84000000D03*
G04 #@! TO.P,D1,2*
G04 #@! TO.N,Net-(D1-Pad2)*
X88000000Y-87000000D03*
G04 #@! TD*
D19*
G04 #@! TO.P,REF\002A\002A,1*
G04 #@! TO.N,N/C*
X91000000Y-78500000D03*
G04 #@! TD*
G04 #@! TO.P,REF\002A\002A,1*
G04 #@! TO.N,N/C*
X71000000Y-78500000D03*
G04 #@! TD*
G04 #@! TO.P,REF\002A\002A,1*
G04 #@! TO.N,N/C*
X71000000Y-98500000D03*
G04 #@! TD*
G04 #@! TO.P,REF\002A\002A,1*
G04 #@! TO.N,N/C*
X91000000Y-98500000D03*
G04 #@! TD*
D20*
G04 #@! TO.P,C2,1*
G04 #@! TO.N,VCC*
X86000000Y-95500000D03*
G04 #@! TO.P,C2,2*
G04 #@! TO.N,GND*
X86000000Y-91500000D03*
D18*
G04 #@! TO.P,C2,1*
G04 #@! TO.N,VCC*
X86000000Y-94750000D03*
G04 #@! TO.P,C2,2*
G04 #@! TO.N,GND*
X86000000Y-92250000D03*
G04 #@! TD*
D20*
G04 #@! TO.P,C1,1*
G04 #@! TO.N,Net-(C1-Pad1)*
X76000000Y-91500000D03*
G04 #@! TO.P,C1,2*
G04 #@! TO.N,GND*
X76000000Y-95500000D03*
D18*
G04 #@! TO.P,C1,1*
G04 #@! TO.N,Net-(C1-Pad1)*
X76000000Y-92250000D03*
G04 #@! TO.P,C1,2*
G04 #@! TO.N,GND*
X76000000Y-94750000D03*
G04 #@! TD*
D20*
G04 #@! TO.P,C3,1*
G04 #@! TO.N,VCC*
X81000000Y-95500000D03*
G04 #@! TO.P,C3,2*
G04 #@! TO.N,GND*
X81000000Y-91500000D03*
D18*
G04 #@! TO.P,C3,1*
G04 #@! TO.N,VCC*
X81000000Y-94750000D03*
G04 #@! TO.P,C3,2*
G04 #@! TO.N,GND*
X81000000Y-92250000D03*
G04 #@! TD*
D21*
G04 #@! TO.N,Net-(C1-Pad1)*
X77480000Y-88500000D02*
X77750000Y-88500000D01*
X76000000Y-89980000D02*
X77480000Y-88500000D01*
X76000000Y-92250000D02*
X76000000Y-89980000D01*
D22*
G04 #@! TO.N,GND*
X71080000Y-93001260D02*
X71080000Y-90413000D01*
D21*
X86922370Y-84000000D02*
X88000000Y-84000000D01*
X86500000Y-84000000D02*
X86922370Y-84000000D01*
X86000000Y-84500000D02*
X86500000Y-84000000D01*
X86000000Y-91500000D02*
X86000000Y-84500000D01*
G04 #@! TO.N,VCC*
X80750000Y-95500000D02*
X81000000Y-95500000D01*
X78750000Y-97500000D02*
X80750000Y-95500000D01*
X77179200Y-97500000D02*
X78750000Y-97500000D01*
X77000000Y-97679200D02*
X77179200Y-97500000D01*
X77000000Y-99000000D02*
X77000000Y-97679200D01*
X85250000Y-95500000D02*
X86000000Y-94750000D01*
D22*
X91500000Y-86087000D02*
X91500000Y-83498740D01*
D21*
G04 #@! TO.N,Net-(D1-Pad2)*
X91500000Y-90500000D02*
X91500000Y-90913000D01*
X88000000Y-87000000D02*
X91500000Y-90500000D01*
X91500000Y-90913000D02*
X91500000Y-93501260D01*
G04 #@! TO.N,/Output*
X83175200Y-81000000D02*
X84250000Y-81000000D01*
X82080000Y-99000000D02*
X82080000Y-98670000D01*
X83500000Y-90250000D02*
X82750000Y-89500000D01*
X82080000Y-98670000D02*
X83500000Y-97250000D01*
X82750000Y-89500000D02*
X82750000Y-81425200D01*
X83500000Y-97250000D02*
X83500000Y-90250000D01*
X82750000Y-81425200D02*
X83175200Y-81000000D01*
D22*
G04 #@! TO.N,Net-(R1-Pad1)*
X71080000Y-85587000D02*
X71080000Y-82998740D01*
D21*
X70500000Y-83250000D02*
X70500000Y-83498740D01*
X77750000Y-81000000D02*
X72750000Y-81000000D01*
X72750000Y-81000000D02*
X70500000Y-83250000D01*
G04 #@! TD*
D23*
G04 #@! TO.N,GND*
G36*
X88739026Y-76989266D02*
X88333000Y-77969501D01*
X88333000Y-79030499D01*
X88739026Y-80010734D01*
X89489266Y-80760974D01*
X90469501Y-81167000D01*
X91530499Y-81167000D01*
X92510734Y-80760974D01*
X92790000Y-80481708D01*
X92790000Y-81929655D01*
X92747255Y-81901093D01*
X92499490Y-81851810D01*
X90500510Y-81851810D01*
X90252745Y-81901093D01*
X90042701Y-82041441D01*
X89902353Y-82251485D01*
X89853070Y-82499250D01*
X89853070Y-83884255D01*
X89794429Y-83933898D01*
X89678761Y-84158480D01*
X89657842Y-84410231D01*
X90056622Y-87910351D01*
X90068035Y-87954484D01*
X89547870Y-87434319D01*
X89547870Y-86121030D01*
X89498587Y-85873265D01*
X89358239Y-85663221D01*
X89148195Y-85522873D01*
X89051622Y-85503664D01*
X89260129Y-85417297D01*
X89438757Y-85238668D01*
X89535430Y-85005279D01*
X89535430Y-84365890D01*
X89400754Y-84231214D01*
X89409144Y-84207698D01*
X89395463Y-83934357D01*
X89535430Y-83794390D01*
X89535430Y-83155001D01*
X89438757Y-82921612D01*
X89260129Y-82742983D01*
X89026740Y-82646310D01*
X88363134Y-82646310D01*
X88207698Y-82590856D01*
X87652632Y-82618638D01*
X87585826Y-82646310D01*
X86973260Y-82646310D01*
X86739871Y-82742983D01*
X86561243Y-82921612D01*
X86464570Y-83155001D01*
X86464570Y-83794390D01*
X86597620Y-83927440D01*
X86612177Y-84218283D01*
X86464570Y-84365890D01*
X86464570Y-85005279D01*
X86561243Y-85238668D01*
X86739871Y-85417297D01*
X86948378Y-85503664D01*
X86851805Y-85522873D01*
X86641761Y-85663221D01*
X86501413Y-85873265D01*
X86452130Y-86121030D01*
X86452130Y-87718690D01*
X86501413Y-87966455D01*
X86641761Y-88176499D01*
X86851805Y-88316847D01*
X87099570Y-88366130D01*
X87647592Y-88366130D01*
X87722119Y-88397000D01*
X88277881Y-88397000D01*
X88281818Y-88395369D01*
X89946106Y-90059658D01*
X89657842Y-92589769D01*
X89702963Y-92910825D01*
X89843311Y-93120869D01*
X89853070Y-93127390D01*
X89853070Y-94500750D01*
X89902353Y-94748515D01*
X90042701Y-94958559D01*
X90252745Y-95098907D01*
X90500510Y-95148190D01*
X92499490Y-95148190D01*
X92747255Y-95098907D01*
X92790001Y-95070345D01*
X92790001Y-96518293D01*
X92510734Y-96239026D01*
X91530499Y-95833000D01*
X90469501Y-95833000D01*
X89489266Y-96239026D01*
X88739026Y-96989266D01*
X88333000Y-97969501D01*
X88333000Y-99030499D01*
X88739026Y-100010734D01*
X89018292Y-100290000D01*
X85576298Y-100290000D01*
X85911954Y-99914320D01*
X86105184Y-99361913D01*
X85960924Y-99127000D01*
X84747000Y-99127000D01*
X84747000Y-99147000D01*
X84493000Y-99147000D01*
X84493000Y-99127000D01*
X84473000Y-99127000D01*
X84473000Y-98873000D01*
X84493000Y-98873000D01*
X84493000Y-97513783D01*
X84747000Y-97513783D01*
X84747000Y-98873000D01*
X85960924Y-98873000D01*
X86105184Y-98638087D01*
X85911954Y-98085680D01*
X85522036Y-97649268D01*
X84994791Y-97395291D01*
X84979026Y-97392642D01*
X84747000Y-97513783D01*
X84493000Y-97513783D01*
X84273185Y-97399017D01*
X84287400Y-97327552D01*
X84287400Y-97327551D01*
X84302826Y-97250001D01*
X84287400Y-97172450D01*
X84287400Y-96950639D01*
X84292191Y-96957809D01*
X84502235Y-97098157D01*
X84750000Y-97147440D01*
X87250000Y-97147440D01*
X87497765Y-97098157D01*
X87707809Y-96957809D01*
X87848157Y-96747765D01*
X87897440Y-96500000D01*
X87897440Y-94500000D01*
X87848157Y-94252235D01*
X87707809Y-94042191D01*
X87497765Y-93901843D01*
X87250000Y-93852560D01*
X87078217Y-93852560D01*
X86791337Y-93565680D01*
X86648637Y-93506572D01*
X86731143Y-93472397D01*
X86800608Y-93230213D01*
X86705395Y-93135000D01*
X87376310Y-93135000D01*
X87609699Y-93038327D01*
X87788327Y-92859698D01*
X87885000Y-92626309D01*
X87885000Y-91785750D01*
X87726250Y-91627000D01*
X87267191Y-91627000D01*
X87222397Y-91518857D01*
X86980215Y-91449393D01*
X87056608Y-91373000D01*
X87726250Y-91373000D01*
X87885000Y-91214250D01*
X87885000Y-90373691D01*
X87788327Y-90140302D01*
X87609699Y-89961673D01*
X87376310Y-89865000D01*
X86285750Y-89865000D01*
X86127000Y-90023750D01*
X86127000Y-90844895D01*
X85873000Y-90857608D01*
X85873000Y-90023750D01*
X85714250Y-89865000D01*
X84623690Y-89865000D01*
X84390301Y-89961673D01*
X84269503Y-90082472D01*
X84257822Y-90023750D01*
X84241715Y-89942772D01*
X84067684Y-89682316D01*
X84001937Y-89638386D01*
X83998552Y-89635000D01*
X84631783Y-89635000D01*
X84962855Y-89569146D01*
X85338289Y-89318289D01*
X85589146Y-88942855D01*
X85677235Y-88500000D01*
X85589146Y-88057145D01*
X85383918Y-87750000D01*
X85589146Y-87442855D01*
X85677235Y-87000000D01*
X85589146Y-86557145D01*
X85383918Y-86250000D01*
X85589146Y-85942855D01*
X85677235Y-85500000D01*
X85589146Y-85057145D01*
X85383918Y-84750000D01*
X85589146Y-84442855D01*
X85677235Y-84000000D01*
X85589146Y-83557145D01*
X85383918Y-83250000D01*
X85589146Y-82942855D01*
X85677235Y-82500000D01*
X85589146Y-82057145D01*
X85383918Y-81750000D01*
X85589146Y-81442855D01*
X85677235Y-81000000D01*
X85589146Y-80557145D01*
X85338289Y-80181711D01*
X84962855Y-79930854D01*
X84631783Y-79865000D01*
X83868217Y-79865000D01*
X83537145Y-79930854D01*
X83161711Y-80181711D01*
X83147728Y-80202639D01*
X83097649Y-80212600D01*
X83097648Y-80212600D01*
X82867972Y-80258285D01*
X82607516Y-80432316D01*
X82563584Y-80498065D01*
X82248063Y-80813586D01*
X82182317Y-80857516D01*
X82138387Y-80923262D01*
X82008286Y-81117972D01*
X81947174Y-81425200D01*
X81962601Y-81502756D01*
X81962600Y-89422449D01*
X81947174Y-89500000D01*
X81962600Y-89577551D01*
X82008285Y-89807227D01*
X82046888Y-89865000D01*
X81285750Y-89865000D01*
X81127000Y-90023750D01*
X81127000Y-90844895D01*
X80873000Y-90857608D01*
X80873000Y-90023750D01*
X80714250Y-89865000D01*
X79623690Y-89865000D01*
X79390301Y-89961673D01*
X79211673Y-90140302D01*
X79115000Y-90373691D01*
X79115000Y-91214250D01*
X79273750Y-91373000D01*
X79943392Y-91373000D01*
X80019785Y-91449393D01*
X79777603Y-91518857D01*
X79739021Y-91627000D01*
X79273750Y-91627000D01*
X79115000Y-91785750D01*
X79115000Y-92626309D01*
X79211673Y-92859698D01*
X79390301Y-93038327D01*
X79623690Y-93135000D01*
X80294605Y-93135000D01*
X80199392Y-93230213D01*
X80268857Y-93472397D01*
X80357510Y-93504025D01*
X80208663Y-93565680D01*
X79921783Y-93852560D01*
X79750000Y-93852560D01*
X79502235Y-93901843D01*
X79292191Y-94042191D01*
X79151843Y-94252235D01*
X79102560Y-94500000D01*
X79102560Y-96033889D01*
X78423849Y-96712600D01*
X77849257Y-96712600D01*
X77885000Y-96626309D01*
X77885000Y-95785750D01*
X77726250Y-95627000D01*
X77056608Y-95627000D01*
X76980215Y-95550607D01*
X77222397Y-95481143D01*
X77260979Y-95373000D01*
X77726250Y-95373000D01*
X77885000Y-95214250D01*
X77885000Y-94373691D01*
X77788327Y-94140302D01*
X77609699Y-93961673D01*
X77376310Y-93865000D01*
X76705395Y-93865000D01*
X76800608Y-93769787D01*
X76731143Y-93527603D01*
X76642490Y-93495975D01*
X76791337Y-93434320D01*
X77078217Y-93147440D01*
X77250000Y-93147440D01*
X77497765Y-93098157D01*
X77707809Y-92957809D01*
X77848157Y-92747765D01*
X77897440Y-92500000D01*
X77897440Y-90500000D01*
X77848157Y-90252235D01*
X77707809Y-90042191D01*
X77497765Y-89901843D01*
X77250000Y-89852560D01*
X77240991Y-89852560D01*
X77458552Y-89635000D01*
X78131783Y-89635000D01*
X78462855Y-89569146D01*
X78838289Y-89318289D01*
X79089146Y-88942855D01*
X79177235Y-88500000D01*
X79089146Y-88057145D01*
X78883918Y-87750000D01*
X79089146Y-87442855D01*
X79177235Y-87000000D01*
X79089146Y-86557145D01*
X78883918Y-86250000D01*
X79089146Y-85942855D01*
X79177235Y-85500000D01*
X79089146Y-85057145D01*
X78878255Y-84741524D01*
X78912368Y-84712763D01*
X79114119Y-84301874D01*
X78987954Y-84127000D01*
X77877000Y-84127000D01*
X77877000Y-84147000D01*
X77623000Y-84147000D01*
X77623000Y-84127000D01*
X76512046Y-84127000D01*
X76385881Y-84301874D01*
X76587632Y-84712763D01*
X76621745Y-84741524D01*
X76410854Y-85057145D01*
X76322765Y-85500000D01*
X76410854Y-85942855D01*
X76616082Y-86250000D01*
X76410854Y-86557145D01*
X76322765Y-87000000D01*
X76410854Y-87442855D01*
X76616082Y-87750000D01*
X76410854Y-88057145D01*
X76322765Y-88500000D01*
X76330013Y-88536436D01*
X75498063Y-89368386D01*
X75432317Y-89412316D01*
X75368193Y-89508285D01*
X75258286Y-89672772D01*
X75222524Y-89852560D01*
X74750000Y-89852560D01*
X74502235Y-89901843D01*
X74292191Y-90042191D01*
X74151843Y-90252235D01*
X74102560Y-90500000D01*
X74102560Y-92500000D01*
X74151843Y-92747765D01*
X74292191Y-92957809D01*
X74502235Y-93098157D01*
X74750000Y-93147440D01*
X74921783Y-93147440D01*
X75208663Y-93434320D01*
X75351363Y-93493428D01*
X75268857Y-93527603D01*
X75199392Y-93769787D01*
X75294605Y-93865000D01*
X74623690Y-93865000D01*
X74390301Y-93961673D01*
X74211673Y-94140302D01*
X74115000Y-94373691D01*
X74115000Y-95214250D01*
X74273750Y-95373000D01*
X74732809Y-95373000D01*
X74777603Y-95481143D01*
X75019785Y-95550607D01*
X74943392Y-95627000D01*
X74273750Y-95627000D01*
X74115000Y-95785750D01*
X74115000Y-96626309D01*
X74211673Y-96859698D01*
X74390301Y-97038327D01*
X74623690Y-97135000D01*
X75714250Y-97135000D01*
X75873000Y-96976250D01*
X75873000Y-96155105D01*
X76127000Y-96142392D01*
X76127000Y-96976250D01*
X76285750Y-97135000D01*
X76416626Y-97135000D01*
X76388387Y-97177262D01*
X76281948Y-97336560D01*
X76136400Y-97336560D01*
X75888635Y-97385843D01*
X75678591Y-97526191D01*
X75538243Y-97736235D01*
X75488960Y-97984000D01*
X75488960Y-100016000D01*
X75538243Y-100263765D01*
X75555773Y-100290000D01*
X72981708Y-100290000D01*
X73260974Y-100010734D01*
X73667000Y-99030499D01*
X73667000Y-97969501D01*
X73260974Y-96989266D01*
X72510734Y-96239026D01*
X71530499Y-95833000D01*
X70469501Y-95833000D01*
X69489266Y-96239026D01*
X69210000Y-96518292D01*
X69210000Y-95067736D01*
X69374200Y-95135750D01*
X70214250Y-95135750D01*
X70373000Y-94977000D01*
X70373000Y-93628260D01*
X70627000Y-93628260D01*
X70627000Y-94977000D01*
X70785750Y-95135750D01*
X71625800Y-95135750D01*
X71859189Y-95039077D01*
X72037817Y-94860448D01*
X72134490Y-94627059D01*
X72134490Y-93787010D01*
X71975740Y-93628260D01*
X70627000Y-93628260D01*
X70373000Y-93628260D01*
X70353000Y-93628260D01*
X70353000Y-93374260D01*
X70373000Y-93374260D01*
X70373000Y-91040000D01*
X70627000Y-91040000D01*
X70627000Y-93374260D01*
X71975740Y-93374260D01*
X72134490Y-93215510D01*
X72134490Y-93126276D01*
X72205571Y-93066102D01*
X72321239Y-92841520D01*
X72342158Y-92589769D01*
X72165588Y-91040000D01*
X70627000Y-91040000D01*
X70373000Y-91040000D01*
X70353000Y-91040000D01*
X70353000Y-90786000D01*
X70373000Y-90786000D01*
X70373000Y-88515500D01*
X70627000Y-88515500D01*
X70627000Y-90786000D01*
X72136649Y-90786000D01*
X71943378Y-89089649D01*
X71898257Y-88915175D01*
X71757909Y-88705131D01*
X71547865Y-88564783D01*
X71300100Y-88515500D01*
X70627000Y-88515500D01*
X70373000Y-88515500D01*
X69699900Y-88515500D01*
X69521440Y-88540581D01*
X69296858Y-88656249D01*
X69210000Y-88758850D01*
X69210000Y-88246842D01*
X69242091Y-88294869D01*
X69452135Y-88435217D01*
X69699900Y-88484500D01*
X71300100Y-88484500D01*
X71478560Y-88459419D01*
X71703142Y-88343751D01*
X71866365Y-88150944D01*
X71943378Y-87910351D01*
X72342158Y-84410231D01*
X72297037Y-84089175D01*
X72156689Y-83879131D01*
X72146930Y-83872610D01*
X72146930Y-82716621D01*
X73076151Y-81787400D01*
X76591092Y-81787400D01*
X76410854Y-82057145D01*
X76322765Y-82500000D01*
X76410854Y-82942855D01*
X76621745Y-83258476D01*
X76587632Y-83287237D01*
X76385881Y-83698126D01*
X76512046Y-83873000D01*
X77623000Y-83873000D01*
X77623000Y-83853000D01*
X77877000Y-83853000D01*
X77877000Y-83873000D01*
X78987954Y-83873000D01*
X79114119Y-83698126D01*
X78912368Y-83287237D01*
X78878255Y-83258476D01*
X79089146Y-82942855D01*
X79177235Y-82500000D01*
X79089146Y-82057145D01*
X78883918Y-81750000D01*
X79089146Y-81442855D01*
X79177235Y-81000000D01*
X79089146Y-80557145D01*
X78838289Y-80181711D01*
X78462855Y-79930854D01*
X78131783Y-79865000D01*
X77368217Y-79865000D01*
X77037145Y-79930854D01*
X76661711Y-80181711D01*
X76641072Y-80212600D01*
X73059108Y-80212600D01*
X73260974Y-80010734D01*
X73667000Y-79030499D01*
X73667000Y-77969501D01*
X73472527Y-77500000D01*
X76332560Y-77500000D01*
X76332560Y-78500000D01*
X76381843Y-78747765D01*
X76522191Y-78957809D01*
X76732235Y-79098157D01*
X76980000Y-79147440D01*
X78520000Y-79147440D01*
X78767765Y-79098157D01*
X78977809Y-78957809D01*
X79118157Y-78747765D01*
X79167440Y-78500000D01*
X79167440Y-78000000D01*
X82822765Y-78000000D01*
X82910854Y-78442855D01*
X83161711Y-78818289D01*
X83537145Y-79069146D01*
X83868217Y-79135000D01*
X84631783Y-79135000D01*
X84962855Y-79069146D01*
X85338289Y-78818289D01*
X85589146Y-78442855D01*
X85677235Y-78000000D01*
X85589146Y-77557145D01*
X85338289Y-77181711D01*
X84962855Y-76930854D01*
X84631783Y-76865000D01*
X83868217Y-76865000D01*
X83537145Y-76930854D01*
X83161711Y-77181711D01*
X82910854Y-77557145D01*
X82822765Y-78000000D01*
X79167440Y-78000000D01*
X79167440Y-77500000D01*
X79118157Y-77252235D01*
X78977809Y-77042191D01*
X78767765Y-76901843D01*
X78520000Y-76852560D01*
X76980000Y-76852560D01*
X76732235Y-76901843D01*
X76522191Y-77042191D01*
X76381843Y-77252235D01*
X76332560Y-77500000D01*
X73472527Y-77500000D01*
X73260974Y-76989266D01*
X72981708Y-76710000D01*
X89018292Y-76710000D01*
X88739026Y-76989266D01*
X88739026Y-76989266D01*
G37*
X88739026Y-76989266D02*
X88333000Y-77969501D01*
X88333000Y-79030499D01*
X88739026Y-80010734D01*
X89489266Y-80760974D01*
X90469501Y-81167000D01*
X91530499Y-81167000D01*
X92510734Y-80760974D01*
X92790000Y-80481708D01*
X92790000Y-81929655D01*
X92747255Y-81901093D01*
X92499490Y-81851810D01*
X90500510Y-81851810D01*
X90252745Y-81901093D01*
X90042701Y-82041441D01*
X89902353Y-82251485D01*
X89853070Y-82499250D01*
X89853070Y-83884255D01*
X89794429Y-83933898D01*
X89678761Y-84158480D01*
X89657842Y-84410231D01*
X90056622Y-87910351D01*
X90068035Y-87954484D01*
X89547870Y-87434319D01*
X89547870Y-86121030D01*
X89498587Y-85873265D01*
X89358239Y-85663221D01*
X89148195Y-85522873D01*
X89051622Y-85503664D01*
X89260129Y-85417297D01*
X89438757Y-85238668D01*
X89535430Y-85005279D01*
X89535430Y-84365890D01*
X89400754Y-84231214D01*
X89409144Y-84207698D01*
X89395463Y-83934357D01*
X89535430Y-83794390D01*
X89535430Y-83155001D01*
X89438757Y-82921612D01*
X89260129Y-82742983D01*
X89026740Y-82646310D01*
X88363134Y-82646310D01*
X88207698Y-82590856D01*
X87652632Y-82618638D01*
X87585826Y-82646310D01*
X86973260Y-82646310D01*
X86739871Y-82742983D01*
X86561243Y-82921612D01*
X86464570Y-83155001D01*
X86464570Y-83794390D01*
X86597620Y-83927440D01*
X86612177Y-84218283D01*
X86464570Y-84365890D01*
X86464570Y-85005279D01*
X86561243Y-85238668D01*
X86739871Y-85417297D01*
X86948378Y-85503664D01*
X86851805Y-85522873D01*
X86641761Y-85663221D01*
X86501413Y-85873265D01*
X86452130Y-86121030D01*
X86452130Y-87718690D01*
X86501413Y-87966455D01*
X86641761Y-88176499D01*
X86851805Y-88316847D01*
X87099570Y-88366130D01*
X87647592Y-88366130D01*
X87722119Y-88397000D01*
X88277881Y-88397000D01*
X88281818Y-88395369D01*
X89946106Y-90059658D01*
X89657842Y-92589769D01*
X89702963Y-92910825D01*
X89843311Y-93120869D01*
X89853070Y-93127390D01*
X89853070Y-94500750D01*
X89902353Y-94748515D01*
X90042701Y-94958559D01*
X90252745Y-95098907D01*
X90500510Y-95148190D01*
X92499490Y-95148190D01*
X92747255Y-95098907D01*
X92790001Y-95070345D01*
X92790001Y-96518293D01*
X92510734Y-96239026D01*
X91530499Y-95833000D01*
X90469501Y-95833000D01*
X89489266Y-96239026D01*
X88739026Y-96989266D01*
X88333000Y-97969501D01*
X88333000Y-99030499D01*
X88739026Y-100010734D01*
X89018292Y-100290000D01*
X85576298Y-100290000D01*
X85911954Y-99914320D01*
X86105184Y-99361913D01*
X85960924Y-99127000D01*
X84747000Y-99127000D01*
X84747000Y-99147000D01*
X84493000Y-99147000D01*
X84493000Y-99127000D01*
X84473000Y-99127000D01*
X84473000Y-98873000D01*
X84493000Y-98873000D01*
X84493000Y-97513783D01*
X84747000Y-97513783D01*
X84747000Y-98873000D01*
X85960924Y-98873000D01*
X86105184Y-98638087D01*
X85911954Y-98085680D01*
X85522036Y-97649268D01*
X84994791Y-97395291D01*
X84979026Y-97392642D01*
X84747000Y-97513783D01*
X84493000Y-97513783D01*
X84273185Y-97399017D01*
X84287400Y-97327552D01*
X84287400Y-97327551D01*
X84302826Y-97250001D01*
X84287400Y-97172450D01*
X84287400Y-96950639D01*
X84292191Y-96957809D01*
X84502235Y-97098157D01*
X84750000Y-97147440D01*
X87250000Y-97147440D01*
X87497765Y-97098157D01*
X87707809Y-96957809D01*
X87848157Y-96747765D01*
X87897440Y-96500000D01*
X87897440Y-94500000D01*
X87848157Y-94252235D01*
X87707809Y-94042191D01*
X87497765Y-93901843D01*
X87250000Y-93852560D01*
X87078217Y-93852560D01*
X86791337Y-93565680D01*
X86648637Y-93506572D01*
X86731143Y-93472397D01*
X86800608Y-93230213D01*
X86705395Y-93135000D01*
X87376310Y-93135000D01*
X87609699Y-93038327D01*
X87788327Y-92859698D01*
X87885000Y-92626309D01*
X87885000Y-91785750D01*
X87726250Y-91627000D01*
X87267191Y-91627000D01*
X87222397Y-91518857D01*
X86980215Y-91449393D01*
X87056608Y-91373000D01*
X87726250Y-91373000D01*
X87885000Y-91214250D01*
X87885000Y-90373691D01*
X87788327Y-90140302D01*
X87609699Y-89961673D01*
X87376310Y-89865000D01*
X86285750Y-89865000D01*
X86127000Y-90023750D01*
X86127000Y-90844895D01*
X85873000Y-90857608D01*
X85873000Y-90023750D01*
X85714250Y-89865000D01*
X84623690Y-89865000D01*
X84390301Y-89961673D01*
X84269503Y-90082472D01*
X84257822Y-90023750D01*
X84241715Y-89942772D01*
X84067684Y-89682316D01*
X84001937Y-89638386D01*
X83998552Y-89635000D01*
X84631783Y-89635000D01*
X84962855Y-89569146D01*
X85338289Y-89318289D01*
X85589146Y-88942855D01*
X85677235Y-88500000D01*
X85589146Y-88057145D01*
X85383918Y-87750000D01*
X85589146Y-87442855D01*
X85677235Y-87000000D01*
X85589146Y-86557145D01*
X85383918Y-86250000D01*
X85589146Y-85942855D01*
X85677235Y-85500000D01*
X85589146Y-85057145D01*
X85383918Y-84750000D01*
X85589146Y-84442855D01*
X85677235Y-84000000D01*
X85589146Y-83557145D01*
X85383918Y-83250000D01*
X85589146Y-82942855D01*
X85677235Y-82500000D01*
X85589146Y-82057145D01*
X85383918Y-81750000D01*
X85589146Y-81442855D01*
X85677235Y-81000000D01*
X85589146Y-80557145D01*
X85338289Y-80181711D01*
X84962855Y-79930854D01*
X84631783Y-79865000D01*
X83868217Y-79865000D01*
X83537145Y-79930854D01*
X83161711Y-80181711D01*
X83147728Y-80202639D01*
X83097649Y-80212600D01*
X83097648Y-80212600D01*
X82867972Y-80258285D01*
X82607516Y-80432316D01*
X82563584Y-80498065D01*
X82248063Y-80813586D01*
X82182317Y-80857516D01*
X82138387Y-80923262D01*
X82008286Y-81117972D01*
X81947174Y-81425200D01*
X81962601Y-81502756D01*
X81962600Y-89422449D01*
X81947174Y-89500000D01*
X81962600Y-89577551D01*
X82008285Y-89807227D01*
X82046888Y-89865000D01*
X81285750Y-89865000D01*
X81127000Y-90023750D01*
X81127000Y-90844895D01*
X80873000Y-90857608D01*
X80873000Y-90023750D01*
X80714250Y-89865000D01*
X79623690Y-89865000D01*
X79390301Y-89961673D01*
X79211673Y-90140302D01*
X79115000Y-90373691D01*
X79115000Y-91214250D01*
X79273750Y-91373000D01*
X79943392Y-91373000D01*
X80019785Y-91449393D01*
X79777603Y-91518857D01*
X79739021Y-91627000D01*
X79273750Y-91627000D01*
X79115000Y-91785750D01*
X79115000Y-92626309D01*
X79211673Y-92859698D01*
X79390301Y-93038327D01*
X79623690Y-93135000D01*
X80294605Y-93135000D01*
X80199392Y-93230213D01*
X80268857Y-93472397D01*
X80357510Y-93504025D01*
X80208663Y-93565680D01*
X79921783Y-93852560D01*
X79750000Y-93852560D01*
X79502235Y-93901843D01*
X79292191Y-94042191D01*
X79151843Y-94252235D01*
X79102560Y-94500000D01*
X79102560Y-96033889D01*
X78423849Y-96712600D01*
X77849257Y-96712600D01*
X77885000Y-96626309D01*
X77885000Y-95785750D01*
X77726250Y-95627000D01*
X77056608Y-95627000D01*
X76980215Y-95550607D01*
X77222397Y-95481143D01*
X77260979Y-95373000D01*
X77726250Y-95373000D01*
X77885000Y-95214250D01*
X77885000Y-94373691D01*
X77788327Y-94140302D01*
X77609699Y-93961673D01*
X77376310Y-93865000D01*
X76705395Y-93865000D01*
X76800608Y-93769787D01*
X76731143Y-93527603D01*
X76642490Y-93495975D01*
X76791337Y-93434320D01*
X77078217Y-93147440D01*
X77250000Y-93147440D01*
X77497765Y-93098157D01*
X77707809Y-92957809D01*
X77848157Y-92747765D01*
X77897440Y-92500000D01*
X77897440Y-90500000D01*
X77848157Y-90252235D01*
X77707809Y-90042191D01*
X77497765Y-89901843D01*
X77250000Y-89852560D01*
X77240991Y-89852560D01*
X77458552Y-89635000D01*
X78131783Y-89635000D01*
X78462855Y-89569146D01*
X78838289Y-89318289D01*
X79089146Y-88942855D01*
X79177235Y-88500000D01*
X79089146Y-88057145D01*
X78883918Y-87750000D01*
X79089146Y-87442855D01*
X79177235Y-87000000D01*
X79089146Y-86557145D01*
X78883918Y-86250000D01*
X79089146Y-85942855D01*
X79177235Y-85500000D01*
X79089146Y-85057145D01*
X78878255Y-84741524D01*
X78912368Y-84712763D01*
X79114119Y-84301874D01*
X78987954Y-84127000D01*
X77877000Y-84127000D01*
X77877000Y-84147000D01*
X77623000Y-84147000D01*
X77623000Y-84127000D01*
X76512046Y-84127000D01*
X76385881Y-84301874D01*
X76587632Y-84712763D01*
X76621745Y-84741524D01*
X76410854Y-85057145D01*
X76322765Y-85500000D01*
X76410854Y-85942855D01*
X76616082Y-86250000D01*
X76410854Y-86557145D01*
X76322765Y-87000000D01*
X76410854Y-87442855D01*
X76616082Y-87750000D01*
X76410854Y-88057145D01*
X76322765Y-88500000D01*
X76330013Y-88536436D01*
X75498063Y-89368386D01*
X75432317Y-89412316D01*
X75368193Y-89508285D01*
X75258286Y-89672772D01*
X75222524Y-89852560D01*
X74750000Y-89852560D01*
X74502235Y-89901843D01*
X74292191Y-90042191D01*
X74151843Y-90252235D01*
X74102560Y-90500000D01*
X74102560Y-92500000D01*
X74151843Y-92747765D01*
X74292191Y-92957809D01*
X74502235Y-93098157D01*
X74750000Y-93147440D01*
X74921783Y-93147440D01*
X75208663Y-93434320D01*
X75351363Y-93493428D01*
X75268857Y-93527603D01*
X75199392Y-93769787D01*
X75294605Y-93865000D01*
X74623690Y-93865000D01*
X74390301Y-93961673D01*
X74211673Y-94140302D01*
X74115000Y-94373691D01*
X74115000Y-95214250D01*
X74273750Y-95373000D01*
X74732809Y-95373000D01*
X74777603Y-95481143D01*
X75019785Y-95550607D01*
X74943392Y-95627000D01*
X74273750Y-95627000D01*
X74115000Y-95785750D01*
X74115000Y-96626309D01*
X74211673Y-96859698D01*
X74390301Y-97038327D01*
X74623690Y-97135000D01*
X75714250Y-97135000D01*
X75873000Y-96976250D01*
X75873000Y-96155105D01*
X76127000Y-96142392D01*
X76127000Y-96976250D01*
X76285750Y-97135000D01*
X76416626Y-97135000D01*
X76388387Y-97177262D01*
X76281948Y-97336560D01*
X76136400Y-97336560D01*
X75888635Y-97385843D01*
X75678591Y-97526191D01*
X75538243Y-97736235D01*
X75488960Y-97984000D01*
X75488960Y-100016000D01*
X75538243Y-100263765D01*
X75555773Y-100290000D01*
X72981708Y-100290000D01*
X73260974Y-100010734D01*
X73667000Y-99030499D01*
X73667000Y-97969501D01*
X73260974Y-96989266D01*
X72510734Y-96239026D01*
X71530499Y-95833000D01*
X70469501Y-95833000D01*
X69489266Y-96239026D01*
X69210000Y-96518292D01*
X69210000Y-95067736D01*
X69374200Y-95135750D01*
X70214250Y-95135750D01*
X70373000Y-94977000D01*
X70373000Y-93628260D01*
X70627000Y-93628260D01*
X70627000Y-94977000D01*
X70785750Y-95135750D01*
X71625800Y-95135750D01*
X71859189Y-95039077D01*
X72037817Y-94860448D01*
X72134490Y-94627059D01*
X72134490Y-93787010D01*
X71975740Y-93628260D01*
X70627000Y-93628260D01*
X70373000Y-93628260D01*
X70353000Y-93628260D01*
X70353000Y-93374260D01*
X70373000Y-93374260D01*
X70373000Y-91040000D01*
X70627000Y-91040000D01*
X70627000Y-93374260D01*
X71975740Y-93374260D01*
X72134490Y-93215510D01*
X72134490Y-93126276D01*
X72205571Y-93066102D01*
X72321239Y-92841520D01*
X72342158Y-92589769D01*
X72165588Y-91040000D01*
X70627000Y-91040000D01*
X70373000Y-91040000D01*
X70353000Y-91040000D01*
X70353000Y-90786000D01*
X70373000Y-90786000D01*
X70373000Y-88515500D01*
X70627000Y-88515500D01*
X70627000Y-90786000D01*
X72136649Y-90786000D01*
X71943378Y-89089649D01*
X71898257Y-88915175D01*
X71757909Y-88705131D01*
X71547865Y-88564783D01*
X71300100Y-88515500D01*
X70627000Y-88515500D01*
X70373000Y-88515500D01*
X69699900Y-88515500D01*
X69521440Y-88540581D01*
X69296858Y-88656249D01*
X69210000Y-88758850D01*
X69210000Y-88246842D01*
X69242091Y-88294869D01*
X69452135Y-88435217D01*
X69699900Y-88484500D01*
X71300100Y-88484500D01*
X71478560Y-88459419D01*
X71703142Y-88343751D01*
X71866365Y-88150944D01*
X71943378Y-87910351D01*
X72342158Y-84410231D01*
X72297037Y-84089175D01*
X72156689Y-83879131D01*
X72146930Y-83872610D01*
X72146930Y-82716621D01*
X73076151Y-81787400D01*
X76591092Y-81787400D01*
X76410854Y-82057145D01*
X76322765Y-82500000D01*
X76410854Y-82942855D01*
X76621745Y-83258476D01*
X76587632Y-83287237D01*
X76385881Y-83698126D01*
X76512046Y-83873000D01*
X77623000Y-83873000D01*
X77623000Y-83853000D01*
X77877000Y-83853000D01*
X77877000Y-83873000D01*
X78987954Y-83873000D01*
X79114119Y-83698126D01*
X78912368Y-83287237D01*
X78878255Y-83258476D01*
X79089146Y-82942855D01*
X79177235Y-82500000D01*
X79089146Y-82057145D01*
X78883918Y-81750000D01*
X79089146Y-81442855D01*
X79177235Y-81000000D01*
X79089146Y-80557145D01*
X78838289Y-80181711D01*
X78462855Y-79930854D01*
X78131783Y-79865000D01*
X77368217Y-79865000D01*
X77037145Y-79930854D01*
X76661711Y-80181711D01*
X76641072Y-80212600D01*
X73059108Y-80212600D01*
X73260974Y-80010734D01*
X73667000Y-79030499D01*
X73667000Y-77969501D01*
X73472527Y-77500000D01*
X76332560Y-77500000D01*
X76332560Y-78500000D01*
X76381843Y-78747765D01*
X76522191Y-78957809D01*
X76732235Y-79098157D01*
X76980000Y-79147440D01*
X78520000Y-79147440D01*
X78767765Y-79098157D01*
X78977809Y-78957809D01*
X79118157Y-78747765D01*
X79167440Y-78500000D01*
X79167440Y-78000000D01*
X82822765Y-78000000D01*
X82910854Y-78442855D01*
X83161711Y-78818289D01*
X83537145Y-79069146D01*
X83868217Y-79135000D01*
X84631783Y-79135000D01*
X84962855Y-79069146D01*
X85338289Y-78818289D01*
X85589146Y-78442855D01*
X85677235Y-78000000D01*
X85589146Y-77557145D01*
X85338289Y-77181711D01*
X84962855Y-76930854D01*
X84631783Y-76865000D01*
X83868217Y-76865000D01*
X83537145Y-76930854D01*
X83161711Y-77181711D01*
X82910854Y-77557145D01*
X82822765Y-78000000D01*
X79167440Y-78000000D01*
X79167440Y-77500000D01*
X79118157Y-77252235D01*
X78977809Y-77042191D01*
X78767765Y-76901843D01*
X78520000Y-76852560D01*
X76980000Y-76852560D01*
X76732235Y-76901843D01*
X76522191Y-77042191D01*
X76381843Y-77252235D01*
X76332560Y-77500000D01*
X73472527Y-77500000D01*
X73260974Y-76989266D01*
X72981708Y-76710000D01*
X89018292Y-76710000D01*
X88739026Y-76989266D01*
G36*
X88127000Y-83953140D02*
X88161030Y-83953140D01*
X88193748Y-83985858D01*
X88179605Y-84000000D01*
X88193748Y-84014143D01*
X88014143Y-84193748D01*
X88000000Y-84179605D01*
X87985858Y-84193748D01*
X87806253Y-84014143D01*
X87820395Y-84000000D01*
X87806253Y-83985858D01*
X87838970Y-83953140D01*
X87873000Y-83953140D01*
X87873000Y-83933140D01*
X88127000Y-83933140D01*
X88127000Y-83953140D01*
X88127000Y-83953140D01*
G37*
X88127000Y-83953140D02*
X88161030Y-83953140D01*
X88193748Y-83985858D01*
X88179605Y-84000000D01*
X88193748Y-84014143D01*
X88014143Y-84193748D01*
X88000000Y-84179605D01*
X87985858Y-84193748D01*
X87806253Y-84014143D01*
X87820395Y-84000000D01*
X87806253Y-83985858D01*
X87838970Y-83953140D01*
X87873000Y-83953140D01*
X87873000Y-83933140D01*
X88127000Y-83933140D01*
X88127000Y-83953140D01*
G04 #@! TD*
M02*
