G04 #@! TF.FileFunction,Legend,Top*
%FSLAX46Y46*%
G04 Gerber Fmt 4.6, Leading zero omitted, Abs format (unit mm)*
G04 Created by KiCad (PCBNEW 4.0.6) date 10/30/18 22:54:08*
%MOMM*%
%LPD*%
G01*
G04 APERTURE LIST*
%ADD10C,0.100000*%
%ADD11C,0.150000*%
G04 APERTURE END LIST*
D10*
D11*
X137994000Y-85964000D02*
X146994000Y-85964000D01*
X146994000Y-85964000D02*
X146994000Y-98464000D01*
X146994000Y-98464000D02*
X137994000Y-98464000D01*
X137994000Y-98464000D02*
X137994000Y-85964000D01*
X154940000Y-99314000D02*
X154940000Y-91694000D01*
X152400000Y-99314000D02*
X152400000Y-91694000D01*
X152120000Y-102134000D02*
X152120000Y-100584000D01*
X154940000Y-91694000D02*
X152400000Y-91694000D01*
X152400000Y-99314000D02*
X154940000Y-99314000D01*
X155220000Y-100584000D02*
X155220000Y-102134000D01*
X155220000Y-102134000D02*
X152120000Y-102134000D01*
X131279900Y-97000000D02*
X131279900Y-97200660D01*
X131279900Y-97000000D02*
X131279900Y-96799340D01*
X132880100Y-96900940D02*
X132880100Y-96799340D01*
X132880100Y-96799340D02*
X132880100Y-97200660D01*
X135089900Y-97000000D02*
X135089900Y-97200660D01*
X135089900Y-97000000D02*
X135089900Y-96799340D01*
X136690100Y-96900940D02*
X136690100Y-96799340D01*
X136690100Y-96799340D02*
X136690100Y-97200660D01*
X143825000Y-105180000D02*
G75*
G03X141825000Y-105180000I-1000000J-1000000D01*
G01*
X141825000Y-108180000D02*
G75*
G03X143825000Y-108180000I1000000J1000000D01*
G01*
X144975000Y-105630000D02*
X141375000Y-105630000D01*
X144975000Y-107730000D02*
X141375000Y-107730000D01*
X142925000Y-106980000D02*
X142925000Y-106380000D01*
X142925000Y-106380000D02*
X143225000Y-106680000D01*
X143225000Y-106680000D02*
X143025000Y-106880000D01*
X143025000Y-106880000D02*
X143025000Y-106630000D01*
X143025000Y-106630000D02*
X143075000Y-106680000D01*
X143325000Y-107180000D02*
X143325000Y-106180000D01*
X142825000Y-106680000D02*
X142325000Y-106680000D01*
X143325000Y-106680000D02*
X142825000Y-107180000D01*
X142825000Y-107180000D02*
X142825000Y-106180000D01*
X142825000Y-106180000D02*
X143325000Y-106680000D01*
X155956000Y-87630000D02*
G75*
G03X155956000Y-87630000I-2286000J0D01*
G01*
X134366000Y-87630000D02*
G75*
G03X134366000Y-87630000I-2286000J0D01*
G01*
X134366000Y-106680000D02*
G75*
G03X134366000Y-106680000I-2286000J0D01*
G01*
X155956000Y-106680000D02*
G75*
G03X155956000Y-106680000I-2286000J0D01*
G01*
X148385000Y-92726000D02*
X148385000Y-94726000D01*
X151335000Y-94726000D02*
X151335000Y-92726000D01*
X151335000Y-102346000D02*
X151335000Y-100346000D01*
X148385000Y-100346000D02*
X148385000Y-102346000D01*
X143875000Y-100760000D02*
X141875000Y-100760000D01*
X141875000Y-103710000D02*
X143875000Y-103710000D01*
X136067095Y-86066381D02*
X136067095Y-86875905D01*
X136114714Y-86971143D01*
X136162333Y-87018762D01*
X136257571Y-87066381D01*
X136448048Y-87066381D01*
X136543286Y-87018762D01*
X136590905Y-86971143D01*
X136638524Y-86875905D01*
X136638524Y-86066381D01*
X137638524Y-87066381D02*
X137067095Y-87066381D01*
X137352809Y-87066381D02*
X137352809Y-86066381D01*
X137257571Y-86209238D01*
X137162333Y-86304476D01*
X137067095Y-86352095D01*
X152931905Y-103576381D02*
X152931905Y-102576381D01*
X153312858Y-102576381D01*
X153408096Y-102624000D01*
X153455715Y-102671619D01*
X153503334Y-102766857D01*
X153503334Y-102909714D01*
X153455715Y-103004952D01*
X153408096Y-103052571D01*
X153312858Y-103100190D01*
X152931905Y-103100190D01*
X154455715Y-103576381D02*
X153884286Y-103576381D01*
X154170000Y-103576381D02*
X154170000Y-102576381D01*
X154074762Y-102719238D01*
X153979524Y-102814476D01*
X153884286Y-102862095D01*
X130832381Y-97066666D02*
X130356190Y-97400000D01*
X130832381Y-97638095D02*
X129832381Y-97638095D01*
X129832381Y-97257142D01*
X129880000Y-97161904D01*
X129927619Y-97114285D01*
X130022857Y-97066666D01*
X130165714Y-97066666D01*
X130260952Y-97114285D01*
X130308571Y-97161904D01*
X130356190Y-97257142D01*
X130356190Y-97638095D01*
X130832381Y-96114285D02*
X130832381Y-96685714D01*
X130832381Y-96400000D02*
X129832381Y-96400000D01*
X129975238Y-96495238D01*
X130070476Y-96590476D01*
X130118095Y-96685714D01*
X134642381Y-97066666D02*
X134166190Y-97400000D01*
X134642381Y-97638095D02*
X133642381Y-97638095D01*
X133642381Y-97257142D01*
X133690000Y-97161904D01*
X133737619Y-97114285D01*
X133832857Y-97066666D01*
X133975714Y-97066666D01*
X134070952Y-97114285D01*
X134118571Y-97161904D01*
X134166190Y-97257142D01*
X134166190Y-97638095D01*
X133737619Y-96685714D02*
X133690000Y-96638095D01*
X133642381Y-96542857D01*
X133642381Y-96304761D01*
X133690000Y-96209523D01*
X133737619Y-96161904D01*
X133832857Y-96114285D01*
X133928095Y-96114285D01*
X134070952Y-96161904D01*
X134642381Y-96733333D01*
X134642381Y-96114285D01*
X138276905Y-107132381D02*
X138276905Y-106132381D01*
X138515000Y-106132381D01*
X138657858Y-106180000D01*
X138753096Y-106275238D01*
X138800715Y-106370476D01*
X138848334Y-106560952D01*
X138848334Y-106703810D01*
X138800715Y-106894286D01*
X138753096Y-106989524D01*
X138657858Y-107084762D01*
X138515000Y-107132381D01*
X138276905Y-107132381D01*
X139800715Y-107132381D02*
X139229286Y-107132381D01*
X139515000Y-107132381D02*
X139515000Y-106132381D01*
X139419762Y-106275238D01*
X139324524Y-106370476D01*
X139229286Y-106418095D01*
X150217143Y-89447666D02*
X150264762Y-89495285D01*
X150312381Y-89638142D01*
X150312381Y-89733380D01*
X150264762Y-89876238D01*
X150169524Y-89971476D01*
X150074286Y-90019095D01*
X149883810Y-90066714D01*
X149740952Y-90066714D01*
X149550476Y-90019095D01*
X149455238Y-89971476D01*
X149360000Y-89876238D01*
X149312381Y-89733380D01*
X149312381Y-89638142D01*
X149360000Y-89495285D01*
X149407619Y-89447666D01*
X149407619Y-89066714D02*
X149360000Y-89019095D01*
X149312381Y-88923857D01*
X149312381Y-88685761D01*
X149360000Y-88590523D01*
X149407619Y-88542904D01*
X149502857Y-88495285D01*
X149598095Y-88495285D01*
X149740952Y-88542904D01*
X150312381Y-89114333D01*
X150312381Y-88495285D01*
X150217143Y-105957666D02*
X150264762Y-106005285D01*
X150312381Y-106148142D01*
X150312381Y-106243380D01*
X150264762Y-106386238D01*
X150169524Y-106481476D01*
X150074286Y-106529095D01*
X149883810Y-106576714D01*
X149740952Y-106576714D01*
X149550476Y-106529095D01*
X149455238Y-106481476D01*
X149360000Y-106386238D01*
X149312381Y-106243380D01*
X149312381Y-106148142D01*
X149360000Y-106005285D01*
X149407619Y-105957666D01*
X150312381Y-105005285D02*
X150312381Y-105576714D01*
X150312381Y-105291000D02*
X149312381Y-105291000D01*
X149455238Y-105386238D01*
X149550476Y-105481476D01*
X149598095Y-105576714D01*
X142835334Y-100179143D02*
X142787715Y-100226762D01*
X142644858Y-100274381D01*
X142549620Y-100274381D01*
X142406762Y-100226762D01*
X142311524Y-100131524D01*
X142263905Y-100036286D01*
X142216286Y-99845810D01*
X142216286Y-99702952D01*
X142263905Y-99512476D01*
X142311524Y-99417238D01*
X142406762Y-99322000D01*
X142549620Y-99274381D01*
X142644858Y-99274381D01*
X142787715Y-99322000D01*
X142835334Y-99369619D01*
X143168667Y-99274381D02*
X143787715Y-99274381D01*
X143454381Y-99655333D01*
X143597239Y-99655333D01*
X143692477Y-99702952D01*
X143740096Y-99750571D01*
X143787715Y-99845810D01*
X143787715Y-100083905D01*
X143740096Y-100179143D01*
X143692477Y-100226762D01*
X143597239Y-100274381D01*
X143311524Y-100274381D01*
X143216286Y-100226762D01*
X143168667Y-100179143D01*
M02*
