G04 #@! TF.FileFunction,Copper,L2,Bot,Signal*
%FSLAX46Y46*%
G04 Gerber Fmt 4.6, Leading zero omitted, Abs format (unit mm)*
G04 Created by KiCad (PCBNEW 4.0.6) date 10/30/18 22:54:08*
%MOMM*%
%LPD*%
G01*
G04 APERTURE LIST*
%ADD10C,0.100000*%
%ADD11R,1.540000X1.000000*%
%ADD12O,1.540000X1.000000*%
%ADD13R,2.032000X1.727200*%
%ADD14O,2.032000X1.727200*%
%ADD15R,1.998980X1.998980*%
%ADD16C,1.524000*%
%ADD17C,4.064000*%
%ADD18R,0.280000X0.430000*%
%ADD19C,0.152400*%
%ADD20C,0.304800*%
%ADD21C,0.385800*%
%ADD22C,0.406400*%
%ADD23C,0.254000*%
G04 APERTURE END LIST*
D10*
D11*
X139244000Y-86964000D03*
D12*
X139244000Y-89964000D03*
X139244000Y-91464000D03*
X139244000Y-92964000D03*
X139244000Y-94464000D03*
X139244000Y-95964000D03*
X139244000Y-97464000D03*
X145744000Y-97464000D03*
X145744000Y-95964000D03*
X145744000Y-94464000D03*
X145744000Y-92964000D03*
X145744000Y-91464000D03*
X145744000Y-89964000D03*
X145744000Y-86964000D03*
D13*
X153670000Y-100584000D03*
D14*
X153670000Y-98044000D03*
X153670000Y-95504000D03*
X153670000Y-92964000D03*
D15*
X132080000Y-91998740D03*
X132080000Y-102001260D03*
X135890000Y-91998740D03*
X135890000Y-102001260D03*
D16*
X144325000Y-106680000D03*
X141325000Y-106680000D03*
D17*
X153670000Y-87630000D03*
X132080000Y-87630000D03*
X132080000Y-106680000D03*
X153670000Y-106680000D03*
D16*
X149860000Y-94976000D03*
X149860000Y-92476000D03*
X149860000Y-100096000D03*
X149860000Y-102596000D03*
X141625000Y-102235000D03*
X144125000Y-102235000D03*
D18*
X142239000Y-91694000D03*
X142749000Y-91694000D03*
D19*
X149880000Y-91440000D02*
X149860000Y-91460000D01*
D20*
X139244000Y-92964000D02*
X138430000Y-92964000D01*
X139192000Y-104648000D02*
X144125000Y-104648000D01*
X138430000Y-103886000D02*
X139192000Y-104648000D01*
X138430000Y-99822000D02*
X138430000Y-103886000D01*
X137668000Y-99060000D02*
X138430000Y-99822000D01*
X137668000Y-93726000D02*
X137668000Y-99060000D01*
X138430000Y-92964000D02*
X137668000Y-93726000D01*
X144125000Y-102235000D02*
X144125000Y-104648000D01*
X144125000Y-104648000D02*
X144125000Y-106480000D01*
X144125000Y-106480000D02*
X144325000Y-106680000D01*
X144325000Y-106680000D02*
X144325000Y-107897000D01*
X138430000Y-108458000D02*
X132080000Y-102108000D01*
X143764000Y-108458000D02*
X138430000Y-108458000D01*
X144325000Y-107897000D02*
X143764000Y-108458000D01*
X132080000Y-102108000D02*
X132080000Y-102001260D01*
X149860000Y-102596000D02*
X144486000Y-102596000D01*
X144486000Y-102596000D02*
X144125000Y-102235000D01*
D21*
X149860000Y-92476000D02*
X151658000Y-92476000D01*
X152146000Y-92964000D02*
X153670000Y-92964000D01*
X151658000Y-92476000D02*
X152146000Y-92964000D01*
X149860000Y-102596000D02*
X154960000Y-102596000D01*
X154940000Y-92964000D02*
X153670000Y-92964000D01*
X155448000Y-93472000D02*
X154940000Y-92964000D01*
X155448000Y-102108000D02*
X155448000Y-93472000D01*
X154960000Y-102596000D02*
X155448000Y-102108000D01*
D19*
X153436000Y-92476000D02*
X153670000Y-92710000D01*
X153670000Y-92710000D02*
X154178000Y-92710000D01*
X144486000Y-102596000D02*
X144125000Y-102235000D01*
X144325000Y-102435000D02*
X144125000Y-102235000D01*
X132080000Y-102001260D02*
X132080000Y-102108000D01*
D21*
X152654000Y-100584000D02*
X151892000Y-99822000D01*
D22*
X151892000Y-99822000D02*
X151892000Y-95504000D01*
X151892000Y-95504000D02*
X151364000Y-94976000D01*
X151364000Y-94976000D02*
X149860000Y-94976000D01*
D21*
X152654000Y-100584000D02*
X153670000Y-100584000D01*
D20*
X145744000Y-92964000D02*
X141478000Y-92964000D01*
X142239000Y-91694000D02*
X141478000Y-91694000D01*
X145744000Y-86964000D02*
X143922000Y-86964000D01*
X143922000Y-86964000D02*
X141478000Y-89408000D01*
X135890000Y-91998740D02*
X135890000Y-89408000D01*
X135890000Y-89408000D02*
X136906000Y-88392000D01*
X136906000Y-88392000D02*
X140462000Y-88392000D01*
X140462000Y-88392000D02*
X141478000Y-89408000D01*
X141478000Y-89408000D02*
X141478000Y-90678000D01*
X141478000Y-90678000D02*
X141478000Y-91694000D01*
X141478000Y-91694000D02*
X141478000Y-92964000D01*
X141478000Y-92964000D02*
X141478000Y-102088000D01*
D19*
X141478000Y-102088000D02*
X141625000Y-102235000D01*
D22*
X149860000Y-94976000D02*
X148316000Y-94976000D01*
X147066000Y-92964000D02*
X145744000Y-92964000D01*
X147574000Y-93472000D02*
X147066000Y-92964000D01*
X147574000Y-94234000D02*
X147574000Y-93472000D01*
X148316000Y-94976000D02*
X147574000Y-94234000D01*
X145744000Y-86964000D02*
X145192000Y-86964000D01*
X145034000Y-92964000D02*
X145744000Y-92964000D01*
D19*
X145034000Y-92964000D02*
X145744000Y-92964000D01*
D20*
X141325000Y-106680000D02*
X139192000Y-106680000D01*
X135890000Y-103378000D02*
X135890000Y-102001260D01*
X139192000Y-106680000D02*
X135890000Y-103378000D01*
X145744000Y-91464000D02*
X144248000Y-91464000D01*
X144018000Y-91694000D02*
X142749000Y-91694000D01*
X144248000Y-91464000D02*
X144018000Y-91694000D01*
D19*
X132080000Y-91998740D02*
X132283260Y-91998740D01*
D23*
G36*
X151410345Y-86117293D02*
X151003464Y-87097173D01*
X151002538Y-88158172D01*
X151407709Y-89138761D01*
X152157293Y-89889655D01*
X153137173Y-90296536D01*
X154198172Y-90297462D01*
X155178761Y-89892291D01*
X155500000Y-89571612D01*
X155500000Y-104738193D01*
X155182707Y-104420345D01*
X154202827Y-104013464D01*
X153141828Y-104012538D01*
X152161239Y-104417709D01*
X151410345Y-105167293D01*
X151003464Y-106147173D01*
X151002538Y-107208172D01*
X151407709Y-108188761D01*
X151728388Y-108510000D01*
X134021807Y-108510000D01*
X134339655Y-108192707D01*
X134746536Y-107212827D01*
X134747462Y-106151828D01*
X134342291Y-105171239D01*
X133592707Y-104420345D01*
X132612827Y-104013464D01*
X131551828Y-104012538D01*
X130571239Y-104417709D01*
X130250000Y-104738388D01*
X130250000Y-102287010D01*
X130445510Y-102287010D01*
X130445510Y-103127059D01*
X130542183Y-103360448D01*
X130720811Y-103539077D01*
X130954200Y-103635750D01*
X131794250Y-103635750D01*
X131953000Y-103477000D01*
X131953000Y-102128260D01*
X132207000Y-102128260D01*
X132207000Y-103477000D01*
X132365750Y-103635750D01*
X133205800Y-103635750D01*
X133439189Y-103539077D01*
X133617817Y-103360448D01*
X133714490Y-103127059D01*
X133714490Y-102287010D01*
X133555740Y-102128260D01*
X132207000Y-102128260D01*
X131953000Y-102128260D01*
X130604260Y-102128260D01*
X130445510Y-102287010D01*
X130250000Y-102287010D01*
X130250000Y-100875461D01*
X130445510Y-100875461D01*
X130445510Y-101715510D01*
X130604260Y-101874260D01*
X131953000Y-101874260D01*
X131953000Y-100525520D01*
X132207000Y-100525520D01*
X132207000Y-101874260D01*
X133555740Y-101874260D01*
X133714490Y-101715510D01*
X133714490Y-101001770D01*
X134243070Y-101001770D01*
X134243070Y-103000750D01*
X134287348Y-103236067D01*
X134426420Y-103452191D01*
X134638620Y-103597181D01*
X134890510Y-103648190D01*
X135156344Y-103648190D01*
X135162537Y-103679325D01*
X135333224Y-103934776D01*
X138635224Y-107236776D01*
X138890675Y-107407463D01*
X139192000Y-107467400D01*
X140138791Y-107467400D01*
X140139990Y-107470303D01*
X140532630Y-107863629D01*
X141045900Y-108076757D01*
X141601661Y-108077242D01*
X142115303Y-107865010D01*
X142320457Y-107660213D01*
X143524392Y-107660213D01*
X143593857Y-107902397D01*
X144117302Y-108089144D01*
X144672368Y-108061362D01*
X145056143Y-107902397D01*
X145125608Y-107660213D01*
X144325000Y-106859605D01*
X143524392Y-107660213D01*
X142320457Y-107660213D01*
X142508629Y-107472370D01*
X142721757Y-106959100D01*
X142722181Y-106472302D01*
X142915856Y-106472302D01*
X142943638Y-107027368D01*
X143102603Y-107411143D01*
X143344787Y-107480608D01*
X144145395Y-106680000D01*
X144504605Y-106680000D01*
X145305213Y-107480608D01*
X145547397Y-107411143D01*
X145734144Y-106887698D01*
X145706362Y-106332632D01*
X145547397Y-105948857D01*
X145305213Y-105879392D01*
X144504605Y-106680000D01*
X144145395Y-106680000D01*
X143344787Y-105879392D01*
X143102603Y-105948857D01*
X142915856Y-106472302D01*
X142722181Y-106472302D01*
X142722242Y-106403339D01*
X142510010Y-105889697D01*
X142320432Y-105699787D01*
X143524392Y-105699787D01*
X144325000Y-106500395D01*
X145125608Y-105699787D01*
X145056143Y-105457603D01*
X144532698Y-105270856D01*
X143977632Y-105298638D01*
X143593857Y-105457603D01*
X143524392Y-105699787D01*
X142320432Y-105699787D01*
X142117370Y-105496371D01*
X141604100Y-105283243D01*
X141048339Y-105282758D01*
X140534697Y-105494990D01*
X140141371Y-105887630D01*
X140139307Y-105892600D01*
X139518152Y-105892600D01*
X137188487Y-103562935D01*
X137340931Y-103464840D01*
X137485921Y-103252640D01*
X137536930Y-103000750D01*
X137536930Y-101001770D01*
X137492652Y-100766453D01*
X137353580Y-100550329D01*
X137141380Y-100405339D01*
X136889490Y-100354330D01*
X134890510Y-100354330D01*
X134655193Y-100398608D01*
X134439069Y-100537680D01*
X134294079Y-100749880D01*
X134243070Y-101001770D01*
X133714490Y-101001770D01*
X133714490Y-100875461D01*
X133617817Y-100642072D01*
X133439189Y-100463443D01*
X133205800Y-100366770D01*
X132365750Y-100366770D01*
X132207000Y-100525520D01*
X131953000Y-100525520D01*
X131794250Y-100366770D01*
X130954200Y-100366770D01*
X130720811Y-100463443D01*
X130542183Y-100642072D01*
X130445510Y-100875461D01*
X130250000Y-100875461D01*
X130250000Y-94464000D01*
X137811474Y-94464000D01*
X137897871Y-94898346D01*
X138108784Y-95214000D01*
X137897871Y-95529654D01*
X137811474Y-95964000D01*
X137897871Y-96398346D01*
X138108784Y-96714000D01*
X137897871Y-97029654D01*
X137811474Y-97464000D01*
X137897871Y-97898346D01*
X138143908Y-98266566D01*
X138512128Y-98512603D01*
X138946474Y-98599000D01*
X139541526Y-98599000D01*
X139975872Y-98512603D01*
X140344092Y-98266566D01*
X140590129Y-97898346D01*
X140676526Y-97464000D01*
X140590129Y-97029654D01*
X140379216Y-96714000D01*
X140590129Y-96398346D01*
X140676526Y-95964000D01*
X140590129Y-95529654D01*
X140379216Y-95214000D01*
X140590129Y-94898346D01*
X140676526Y-94464000D01*
X140590129Y-94029654D01*
X140373085Y-93704825D01*
X140406368Y-93676763D01*
X140608119Y-93265874D01*
X140481954Y-93091000D01*
X139371000Y-93091000D01*
X139371000Y-93111000D01*
X139117000Y-93111000D01*
X139117000Y-93091000D01*
X138006046Y-93091000D01*
X137879881Y-93265874D01*
X138081632Y-93676763D01*
X138114915Y-93704825D01*
X137897871Y-94029654D01*
X137811474Y-94464000D01*
X130250000Y-94464000D01*
X130250000Y-90999250D01*
X130433070Y-90999250D01*
X130433070Y-92998230D01*
X130477348Y-93233547D01*
X130616420Y-93449671D01*
X130828620Y-93594661D01*
X131080510Y-93645670D01*
X133079490Y-93645670D01*
X133314807Y-93601392D01*
X133530931Y-93462320D01*
X133675921Y-93250120D01*
X133726930Y-92998230D01*
X133726930Y-90999250D01*
X134243070Y-90999250D01*
X134243070Y-92998230D01*
X134287348Y-93233547D01*
X134426420Y-93449671D01*
X134638620Y-93594661D01*
X134890510Y-93645670D01*
X136889490Y-93645670D01*
X137124807Y-93601392D01*
X137340931Y-93462320D01*
X137485921Y-93250120D01*
X137536930Y-92998230D01*
X137536930Y-90999250D01*
X137492652Y-90763933D01*
X137353580Y-90547809D01*
X137141380Y-90402819D01*
X136889490Y-90351810D01*
X136677400Y-90351810D01*
X136677400Y-89734152D01*
X137232152Y-89179400D01*
X138131903Y-89179400D01*
X137897871Y-89529654D01*
X137811474Y-89964000D01*
X137897871Y-90398346D01*
X138108784Y-90714000D01*
X137897871Y-91029654D01*
X137811474Y-91464000D01*
X137897871Y-91898346D01*
X138114915Y-92223175D01*
X138081632Y-92251237D01*
X137879881Y-92662126D01*
X138006046Y-92837000D01*
X139117000Y-92837000D01*
X139117000Y-92817000D01*
X139371000Y-92817000D01*
X139371000Y-92837000D01*
X140481954Y-92837000D01*
X140608119Y-92662126D01*
X140406368Y-92251237D01*
X140373085Y-92223175D01*
X140590129Y-91898346D01*
X140676526Y-91464000D01*
X140590129Y-91029654D01*
X140379216Y-90714000D01*
X140590129Y-90398346D01*
X140676526Y-89964000D01*
X140615959Y-89659511D01*
X140690600Y-89734152D01*
X140690600Y-101193836D01*
X140441371Y-101442630D01*
X140228243Y-101955900D01*
X140227758Y-102511661D01*
X140439990Y-103025303D01*
X140832630Y-103418629D01*
X141345900Y-103631757D01*
X141901661Y-103632242D01*
X142415303Y-103420010D01*
X142620457Y-103215213D01*
X143324392Y-103215213D01*
X143393857Y-103457397D01*
X143917302Y-103644144D01*
X144472368Y-103616362D01*
X144569296Y-103576213D01*
X149059392Y-103576213D01*
X149128857Y-103818397D01*
X149652302Y-104005144D01*
X150207368Y-103977362D01*
X150591143Y-103818397D01*
X150660608Y-103576213D01*
X149860000Y-102775605D01*
X149059392Y-103576213D01*
X144569296Y-103576213D01*
X144856143Y-103457397D01*
X144925608Y-103215213D01*
X144125000Y-102414605D01*
X143324392Y-103215213D01*
X142620457Y-103215213D01*
X142808629Y-103027370D01*
X142868370Y-102883497D01*
X142902603Y-102966143D01*
X143144787Y-103035608D01*
X143945395Y-102235000D01*
X144304605Y-102235000D01*
X145105213Y-103035608D01*
X145347397Y-102966143D01*
X145534144Y-102442698D01*
X145531422Y-102388302D01*
X148450856Y-102388302D01*
X148478638Y-102943368D01*
X148637603Y-103327143D01*
X148879787Y-103396608D01*
X149680395Y-102596000D01*
X150039605Y-102596000D01*
X150840213Y-103396608D01*
X151082397Y-103327143D01*
X151269144Y-102803698D01*
X151241362Y-102248632D01*
X151082397Y-101864857D01*
X150840213Y-101795392D01*
X150039605Y-102596000D01*
X149680395Y-102596000D01*
X148879787Y-101795392D01*
X148637603Y-101864857D01*
X148450856Y-102388302D01*
X145531422Y-102388302D01*
X145506362Y-101887632D01*
X145347397Y-101503857D01*
X145105213Y-101434392D01*
X144304605Y-102235000D01*
X143945395Y-102235000D01*
X143144787Y-101434392D01*
X142902603Y-101503857D01*
X142871026Y-101592367D01*
X142810010Y-101444697D01*
X142620432Y-101254787D01*
X143324392Y-101254787D01*
X144125000Y-102055395D01*
X144925608Y-101254787D01*
X144856143Y-101012603D01*
X144332698Y-100825856D01*
X143777632Y-100853638D01*
X143393857Y-101012603D01*
X143324392Y-101254787D01*
X142620432Y-101254787D01*
X142417370Y-101051371D01*
X142265400Y-100988268D01*
X142265400Y-93751400D01*
X144583795Y-93751400D01*
X144397871Y-94029654D01*
X144311474Y-94464000D01*
X144397871Y-94898346D01*
X144608784Y-95214000D01*
X144397871Y-95529654D01*
X144311474Y-95964000D01*
X144397871Y-96398346D01*
X144608784Y-96714000D01*
X144397871Y-97029654D01*
X144311474Y-97464000D01*
X144397871Y-97898346D01*
X144643908Y-98266566D01*
X145012128Y-98512603D01*
X145446474Y-98599000D01*
X146041526Y-98599000D01*
X146475872Y-98512603D01*
X146844092Y-98266566D01*
X147090129Y-97898346D01*
X147176526Y-97464000D01*
X147090129Y-97029654D01*
X146879216Y-96714000D01*
X147090129Y-96398346D01*
X147176526Y-95964000D01*
X147090129Y-95529654D01*
X146879216Y-95214000D01*
X147075238Y-94920632D01*
X147723303Y-95568697D01*
X147995235Y-95750396D01*
X148316000Y-95814200D01*
X148722803Y-95814200D01*
X149067630Y-96159629D01*
X149580900Y-96372757D01*
X150136661Y-96373242D01*
X150650303Y-96161010D01*
X150997719Y-95814200D01*
X151016806Y-95814200D01*
X151053800Y-95851194D01*
X151053800Y-99326970D01*
X151045010Y-99305697D01*
X150652370Y-98912371D01*
X150139100Y-98699243D01*
X149583339Y-98698758D01*
X149069697Y-98910990D01*
X148676371Y-99303630D01*
X148463243Y-99816900D01*
X148462758Y-100372661D01*
X148674990Y-100886303D01*
X149067630Y-101279629D01*
X149211503Y-101339370D01*
X149128857Y-101373603D01*
X149059392Y-101615787D01*
X149860000Y-102416395D01*
X150660608Y-101615787D01*
X150591143Y-101373603D01*
X150502633Y-101342026D01*
X150650303Y-101281010D01*
X151043629Y-100888370D01*
X151256757Y-100375100D01*
X151256778Y-100351054D01*
X151299303Y-100414697D01*
X151343200Y-100444028D01*
X152006560Y-101107388D01*
X152006560Y-101447600D01*
X152050838Y-101682917D01*
X152189910Y-101899041D01*
X152402110Y-102044031D01*
X152654000Y-102095040D01*
X154686000Y-102095040D01*
X154921317Y-102050762D01*
X155137441Y-101911690D01*
X155282431Y-101699490D01*
X155333440Y-101447600D01*
X155333440Y-99720400D01*
X155289162Y-99485083D01*
X155150090Y-99268959D01*
X154937890Y-99123969D01*
X154896561Y-99115600D01*
X154914415Y-99103670D01*
X155239271Y-98617489D01*
X155353345Y-98044000D01*
X155239271Y-97470511D01*
X154914415Y-96984330D01*
X154599634Y-96774000D01*
X154914415Y-96563670D01*
X155239271Y-96077489D01*
X155353345Y-95504000D01*
X155239271Y-94930511D01*
X154914415Y-94444330D01*
X154604931Y-94237539D01*
X155020732Y-93866036D01*
X155274709Y-93338791D01*
X155277358Y-93323026D01*
X155156217Y-93091000D01*
X153797000Y-93091000D01*
X153797000Y-93111000D01*
X153543000Y-93111000D01*
X153543000Y-93091000D01*
X152183783Y-93091000D01*
X152062642Y-93323026D01*
X152065291Y-93338791D01*
X152319268Y-93866036D01*
X152735069Y-94237539D01*
X152425585Y-94444330D01*
X152262219Y-94688825D01*
X151956697Y-94383303D01*
X151684766Y-94201604D01*
X151364000Y-94137800D01*
X150997197Y-94137800D01*
X150652370Y-93792371D01*
X150508497Y-93732630D01*
X150591143Y-93698397D01*
X150660608Y-93456213D01*
X149860000Y-92655605D01*
X149059392Y-93456213D01*
X149128857Y-93698397D01*
X149217367Y-93729974D01*
X149069697Y-93790990D01*
X148722281Y-94137800D01*
X148663194Y-94137800D01*
X148412200Y-93886806D01*
X148412200Y-93472000D01*
X148348396Y-93151235D01*
X148166697Y-92879303D01*
X147658697Y-92371303D01*
X147504546Y-92268302D01*
X148450856Y-92268302D01*
X148478638Y-92823368D01*
X148637603Y-93207143D01*
X148879787Y-93276608D01*
X149680395Y-92476000D01*
X150039605Y-92476000D01*
X150840213Y-93276608D01*
X151082397Y-93207143D01*
X151269144Y-92683698D01*
X151265204Y-92604974D01*
X152062642Y-92604974D01*
X152183783Y-92837000D01*
X153543000Y-92837000D01*
X153543000Y-91623076D01*
X153797000Y-91623076D01*
X153797000Y-92837000D01*
X155156217Y-92837000D01*
X155277358Y-92604974D01*
X155274709Y-92589209D01*
X155020732Y-92061964D01*
X154584320Y-91672046D01*
X154031913Y-91478816D01*
X153797000Y-91623076D01*
X153543000Y-91623076D01*
X153308087Y-91478816D01*
X152755680Y-91672046D01*
X152319268Y-92061964D01*
X152065291Y-92589209D01*
X152062642Y-92604974D01*
X151265204Y-92604974D01*
X151241362Y-92128632D01*
X151082397Y-91744857D01*
X150840213Y-91675392D01*
X150039605Y-92476000D01*
X149680395Y-92476000D01*
X148879787Y-91675392D01*
X148637603Y-91744857D01*
X148450856Y-92268302D01*
X147504546Y-92268302D01*
X147386766Y-92189604D01*
X147066000Y-92125800D01*
X146938149Y-92125800D01*
X147090129Y-91898346D01*
X147170203Y-91495787D01*
X149059392Y-91495787D01*
X149179886Y-91616281D01*
X149202937Y-91732165D01*
X149357106Y-91962894D01*
X149587835Y-92117063D01*
X149703719Y-92140114D01*
X149860000Y-92296395D01*
X150016281Y-92140114D01*
X150132165Y-92117063D01*
X150362894Y-91962894D01*
X150382894Y-91942895D01*
X150537063Y-91712165D01*
X150560113Y-91596282D01*
X150660608Y-91495787D01*
X150591143Y-91253603D01*
X150551295Y-91239387D01*
X150537063Y-91167835D01*
X150382894Y-90937106D01*
X150152165Y-90782937D01*
X149880000Y-90728801D01*
X149607835Y-90782937D01*
X149377105Y-90937106D01*
X149357106Y-90957106D01*
X149202937Y-91187835D01*
X149195332Y-91226068D01*
X149128857Y-91253603D01*
X149059392Y-91495787D01*
X147170203Y-91495787D01*
X147176526Y-91464000D01*
X147090129Y-91029654D01*
X146879216Y-90714000D01*
X147090129Y-90398346D01*
X147176526Y-89964000D01*
X147090129Y-89529654D01*
X146844092Y-89161434D01*
X146475872Y-88915397D01*
X146041526Y-88829000D01*
X145446474Y-88829000D01*
X145012128Y-88915397D01*
X144643908Y-89161434D01*
X144397871Y-89529654D01*
X144311474Y-89964000D01*
X144397871Y-90398346D01*
X144583795Y-90676600D01*
X144248000Y-90676600D01*
X143946675Y-90736537D01*
X143692158Y-90906600D01*
X143176061Y-90906600D01*
X143140890Y-90882569D01*
X142889000Y-90831560D01*
X142609000Y-90831560D01*
X142489778Y-90853993D01*
X142379000Y-90831560D01*
X142265400Y-90831560D01*
X142265400Y-89734152D01*
X144248152Y-87751400D01*
X144633774Y-87751400D01*
X144643908Y-87766566D01*
X145012128Y-88012603D01*
X145446474Y-88099000D01*
X146041526Y-88099000D01*
X146475872Y-88012603D01*
X146844092Y-87766566D01*
X147090129Y-87398346D01*
X147176526Y-86964000D01*
X147090129Y-86529654D01*
X146844092Y-86161434D01*
X146475872Y-85915397D01*
X146041526Y-85829000D01*
X145446474Y-85829000D01*
X145012128Y-85915397D01*
X144643908Y-86161434D01*
X144633774Y-86176600D01*
X143922000Y-86176600D01*
X143620675Y-86236537D01*
X143365224Y-86407224D01*
X141478000Y-88294448D01*
X141018776Y-87835224D01*
X140763325Y-87664537D01*
X140626348Y-87637291D01*
X140661440Y-87464000D01*
X140661440Y-86464000D01*
X140617162Y-86228683D01*
X140478090Y-86012559D01*
X140265890Y-85867569D01*
X140014000Y-85816560D01*
X138474000Y-85816560D01*
X138238683Y-85860838D01*
X138022559Y-85999910D01*
X137877569Y-86212110D01*
X137826560Y-86464000D01*
X137826560Y-87464000D01*
X137853016Y-87604600D01*
X136906000Y-87604600D01*
X136604675Y-87664537D01*
X136349224Y-87835224D01*
X135333224Y-88851224D01*
X135162537Y-89106675D01*
X135102600Y-89408000D01*
X135102600Y-90351810D01*
X134890510Y-90351810D01*
X134655193Y-90396088D01*
X134439069Y-90535160D01*
X134294079Y-90747360D01*
X134243070Y-90999250D01*
X133726930Y-90999250D01*
X133682652Y-90763933D01*
X133543580Y-90547809D01*
X133331380Y-90402819D01*
X133079490Y-90351810D01*
X131080510Y-90351810D01*
X130845193Y-90396088D01*
X130629069Y-90535160D01*
X130484079Y-90747360D01*
X130433070Y-90999250D01*
X130250000Y-90999250D01*
X130250000Y-89571807D01*
X130567293Y-89889655D01*
X131547173Y-90296536D01*
X132608172Y-90297462D01*
X133588761Y-89892291D01*
X134339655Y-89142707D01*
X134746536Y-88162827D01*
X134747462Y-87101828D01*
X134342291Y-86121239D01*
X134021612Y-85800000D01*
X151728193Y-85800000D01*
X151410345Y-86117293D01*
X151410345Y-86117293D01*
G37*
X151410345Y-86117293D02*
X151003464Y-87097173D01*
X151002538Y-88158172D01*
X151407709Y-89138761D01*
X152157293Y-89889655D01*
X153137173Y-90296536D01*
X154198172Y-90297462D01*
X155178761Y-89892291D01*
X155500000Y-89571612D01*
X155500000Y-104738193D01*
X155182707Y-104420345D01*
X154202827Y-104013464D01*
X153141828Y-104012538D01*
X152161239Y-104417709D01*
X151410345Y-105167293D01*
X151003464Y-106147173D01*
X151002538Y-107208172D01*
X151407709Y-108188761D01*
X151728388Y-108510000D01*
X134021807Y-108510000D01*
X134339655Y-108192707D01*
X134746536Y-107212827D01*
X134747462Y-106151828D01*
X134342291Y-105171239D01*
X133592707Y-104420345D01*
X132612827Y-104013464D01*
X131551828Y-104012538D01*
X130571239Y-104417709D01*
X130250000Y-104738388D01*
X130250000Y-102287010D01*
X130445510Y-102287010D01*
X130445510Y-103127059D01*
X130542183Y-103360448D01*
X130720811Y-103539077D01*
X130954200Y-103635750D01*
X131794250Y-103635750D01*
X131953000Y-103477000D01*
X131953000Y-102128260D01*
X132207000Y-102128260D01*
X132207000Y-103477000D01*
X132365750Y-103635750D01*
X133205800Y-103635750D01*
X133439189Y-103539077D01*
X133617817Y-103360448D01*
X133714490Y-103127059D01*
X133714490Y-102287010D01*
X133555740Y-102128260D01*
X132207000Y-102128260D01*
X131953000Y-102128260D01*
X130604260Y-102128260D01*
X130445510Y-102287010D01*
X130250000Y-102287010D01*
X130250000Y-100875461D01*
X130445510Y-100875461D01*
X130445510Y-101715510D01*
X130604260Y-101874260D01*
X131953000Y-101874260D01*
X131953000Y-100525520D01*
X132207000Y-100525520D01*
X132207000Y-101874260D01*
X133555740Y-101874260D01*
X133714490Y-101715510D01*
X133714490Y-101001770D01*
X134243070Y-101001770D01*
X134243070Y-103000750D01*
X134287348Y-103236067D01*
X134426420Y-103452191D01*
X134638620Y-103597181D01*
X134890510Y-103648190D01*
X135156344Y-103648190D01*
X135162537Y-103679325D01*
X135333224Y-103934776D01*
X138635224Y-107236776D01*
X138890675Y-107407463D01*
X139192000Y-107467400D01*
X140138791Y-107467400D01*
X140139990Y-107470303D01*
X140532630Y-107863629D01*
X141045900Y-108076757D01*
X141601661Y-108077242D01*
X142115303Y-107865010D01*
X142320457Y-107660213D01*
X143524392Y-107660213D01*
X143593857Y-107902397D01*
X144117302Y-108089144D01*
X144672368Y-108061362D01*
X145056143Y-107902397D01*
X145125608Y-107660213D01*
X144325000Y-106859605D01*
X143524392Y-107660213D01*
X142320457Y-107660213D01*
X142508629Y-107472370D01*
X142721757Y-106959100D01*
X142722181Y-106472302D01*
X142915856Y-106472302D01*
X142943638Y-107027368D01*
X143102603Y-107411143D01*
X143344787Y-107480608D01*
X144145395Y-106680000D01*
X144504605Y-106680000D01*
X145305213Y-107480608D01*
X145547397Y-107411143D01*
X145734144Y-106887698D01*
X145706362Y-106332632D01*
X145547397Y-105948857D01*
X145305213Y-105879392D01*
X144504605Y-106680000D01*
X144145395Y-106680000D01*
X143344787Y-105879392D01*
X143102603Y-105948857D01*
X142915856Y-106472302D01*
X142722181Y-106472302D01*
X142722242Y-106403339D01*
X142510010Y-105889697D01*
X142320432Y-105699787D01*
X143524392Y-105699787D01*
X144325000Y-106500395D01*
X145125608Y-105699787D01*
X145056143Y-105457603D01*
X144532698Y-105270856D01*
X143977632Y-105298638D01*
X143593857Y-105457603D01*
X143524392Y-105699787D01*
X142320432Y-105699787D01*
X142117370Y-105496371D01*
X141604100Y-105283243D01*
X141048339Y-105282758D01*
X140534697Y-105494990D01*
X140141371Y-105887630D01*
X140139307Y-105892600D01*
X139518152Y-105892600D01*
X137188487Y-103562935D01*
X137340931Y-103464840D01*
X137485921Y-103252640D01*
X137536930Y-103000750D01*
X137536930Y-101001770D01*
X137492652Y-100766453D01*
X137353580Y-100550329D01*
X137141380Y-100405339D01*
X136889490Y-100354330D01*
X134890510Y-100354330D01*
X134655193Y-100398608D01*
X134439069Y-100537680D01*
X134294079Y-100749880D01*
X134243070Y-101001770D01*
X133714490Y-101001770D01*
X133714490Y-100875461D01*
X133617817Y-100642072D01*
X133439189Y-100463443D01*
X133205800Y-100366770D01*
X132365750Y-100366770D01*
X132207000Y-100525520D01*
X131953000Y-100525520D01*
X131794250Y-100366770D01*
X130954200Y-100366770D01*
X130720811Y-100463443D01*
X130542183Y-100642072D01*
X130445510Y-100875461D01*
X130250000Y-100875461D01*
X130250000Y-94464000D01*
X137811474Y-94464000D01*
X137897871Y-94898346D01*
X138108784Y-95214000D01*
X137897871Y-95529654D01*
X137811474Y-95964000D01*
X137897871Y-96398346D01*
X138108784Y-96714000D01*
X137897871Y-97029654D01*
X137811474Y-97464000D01*
X137897871Y-97898346D01*
X138143908Y-98266566D01*
X138512128Y-98512603D01*
X138946474Y-98599000D01*
X139541526Y-98599000D01*
X139975872Y-98512603D01*
X140344092Y-98266566D01*
X140590129Y-97898346D01*
X140676526Y-97464000D01*
X140590129Y-97029654D01*
X140379216Y-96714000D01*
X140590129Y-96398346D01*
X140676526Y-95964000D01*
X140590129Y-95529654D01*
X140379216Y-95214000D01*
X140590129Y-94898346D01*
X140676526Y-94464000D01*
X140590129Y-94029654D01*
X140373085Y-93704825D01*
X140406368Y-93676763D01*
X140608119Y-93265874D01*
X140481954Y-93091000D01*
X139371000Y-93091000D01*
X139371000Y-93111000D01*
X139117000Y-93111000D01*
X139117000Y-93091000D01*
X138006046Y-93091000D01*
X137879881Y-93265874D01*
X138081632Y-93676763D01*
X138114915Y-93704825D01*
X137897871Y-94029654D01*
X137811474Y-94464000D01*
X130250000Y-94464000D01*
X130250000Y-90999250D01*
X130433070Y-90999250D01*
X130433070Y-92998230D01*
X130477348Y-93233547D01*
X130616420Y-93449671D01*
X130828620Y-93594661D01*
X131080510Y-93645670D01*
X133079490Y-93645670D01*
X133314807Y-93601392D01*
X133530931Y-93462320D01*
X133675921Y-93250120D01*
X133726930Y-92998230D01*
X133726930Y-90999250D01*
X134243070Y-90999250D01*
X134243070Y-92998230D01*
X134287348Y-93233547D01*
X134426420Y-93449671D01*
X134638620Y-93594661D01*
X134890510Y-93645670D01*
X136889490Y-93645670D01*
X137124807Y-93601392D01*
X137340931Y-93462320D01*
X137485921Y-93250120D01*
X137536930Y-92998230D01*
X137536930Y-90999250D01*
X137492652Y-90763933D01*
X137353580Y-90547809D01*
X137141380Y-90402819D01*
X136889490Y-90351810D01*
X136677400Y-90351810D01*
X136677400Y-89734152D01*
X137232152Y-89179400D01*
X138131903Y-89179400D01*
X137897871Y-89529654D01*
X137811474Y-89964000D01*
X137897871Y-90398346D01*
X138108784Y-90714000D01*
X137897871Y-91029654D01*
X137811474Y-91464000D01*
X137897871Y-91898346D01*
X138114915Y-92223175D01*
X138081632Y-92251237D01*
X137879881Y-92662126D01*
X138006046Y-92837000D01*
X139117000Y-92837000D01*
X139117000Y-92817000D01*
X139371000Y-92817000D01*
X139371000Y-92837000D01*
X140481954Y-92837000D01*
X140608119Y-92662126D01*
X140406368Y-92251237D01*
X140373085Y-92223175D01*
X140590129Y-91898346D01*
X140676526Y-91464000D01*
X140590129Y-91029654D01*
X140379216Y-90714000D01*
X140590129Y-90398346D01*
X140676526Y-89964000D01*
X140615959Y-89659511D01*
X140690600Y-89734152D01*
X140690600Y-101193836D01*
X140441371Y-101442630D01*
X140228243Y-101955900D01*
X140227758Y-102511661D01*
X140439990Y-103025303D01*
X140832630Y-103418629D01*
X141345900Y-103631757D01*
X141901661Y-103632242D01*
X142415303Y-103420010D01*
X142620457Y-103215213D01*
X143324392Y-103215213D01*
X143393857Y-103457397D01*
X143917302Y-103644144D01*
X144472368Y-103616362D01*
X144569296Y-103576213D01*
X149059392Y-103576213D01*
X149128857Y-103818397D01*
X149652302Y-104005144D01*
X150207368Y-103977362D01*
X150591143Y-103818397D01*
X150660608Y-103576213D01*
X149860000Y-102775605D01*
X149059392Y-103576213D01*
X144569296Y-103576213D01*
X144856143Y-103457397D01*
X144925608Y-103215213D01*
X144125000Y-102414605D01*
X143324392Y-103215213D01*
X142620457Y-103215213D01*
X142808629Y-103027370D01*
X142868370Y-102883497D01*
X142902603Y-102966143D01*
X143144787Y-103035608D01*
X143945395Y-102235000D01*
X144304605Y-102235000D01*
X145105213Y-103035608D01*
X145347397Y-102966143D01*
X145534144Y-102442698D01*
X145531422Y-102388302D01*
X148450856Y-102388302D01*
X148478638Y-102943368D01*
X148637603Y-103327143D01*
X148879787Y-103396608D01*
X149680395Y-102596000D01*
X150039605Y-102596000D01*
X150840213Y-103396608D01*
X151082397Y-103327143D01*
X151269144Y-102803698D01*
X151241362Y-102248632D01*
X151082397Y-101864857D01*
X150840213Y-101795392D01*
X150039605Y-102596000D01*
X149680395Y-102596000D01*
X148879787Y-101795392D01*
X148637603Y-101864857D01*
X148450856Y-102388302D01*
X145531422Y-102388302D01*
X145506362Y-101887632D01*
X145347397Y-101503857D01*
X145105213Y-101434392D01*
X144304605Y-102235000D01*
X143945395Y-102235000D01*
X143144787Y-101434392D01*
X142902603Y-101503857D01*
X142871026Y-101592367D01*
X142810010Y-101444697D01*
X142620432Y-101254787D01*
X143324392Y-101254787D01*
X144125000Y-102055395D01*
X144925608Y-101254787D01*
X144856143Y-101012603D01*
X144332698Y-100825856D01*
X143777632Y-100853638D01*
X143393857Y-101012603D01*
X143324392Y-101254787D01*
X142620432Y-101254787D01*
X142417370Y-101051371D01*
X142265400Y-100988268D01*
X142265400Y-93751400D01*
X144583795Y-93751400D01*
X144397871Y-94029654D01*
X144311474Y-94464000D01*
X144397871Y-94898346D01*
X144608784Y-95214000D01*
X144397871Y-95529654D01*
X144311474Y-95964000D01*
X144397871Y-96398346D01*
X144608784Y-96714000D01*
X144397871Y-97029654D01*
X144311474Y-97464000D01*
X144397871Y-97898346D01*
X144643908Y-98266566D01*
X145012128Y-98512603D01*
X145446474Y-98599000D01*
X146041526Y-98599000D01*
X146475872Y-98512603D01*
X146844092Y-98266566D01*
X147090129Y-97898346D01*
X147176526Y-97464000D01*
X147090129Y-97029654D01*
X146879216Y-96714000D01*
X147090129Y-96398346D01*
X147176526Y-95964000D01*
X147090129Y-95529654D01*
X146879216Y-95214000D01*
X147075238Y-94920632D01*
X147723303Y-95568697D01*
X147995235Y-95750396D01*
X148316000Y-95814200D01*
X148722803Y-95814200D01*
X149067630Y-96159629D01*
X149580900Y-96372757D01*
X150136661Y-96373242D01*
X150650303Y-96161010D01*
X150997719Y-95814200D01*
X151016806Y-95814200D01*
X151053800Y-95851194D01*
X151053800Y-99326970D01*
X151045010Y-99305697D01*
X150652370Y-98912371D01*
X150139100Y-98699243D01*
X149583339Y-98698758D01*
X149069697Y-98910990D01*
X148676371Y-99303630D01*
X148463243Y-99816900D01*
X148462758Y-100372661D01*
X148674990Y-100886303D01*
X149067630Y-101279629D01*
X149211503Y-101339370D01*
X149128857Y-101373603D01*
X149059392Y-101615787D01*
X149860000Y-102416395D01*
X150660608Y-101615787D01*
X150591143Y-101373603D01*
X150502633Y-101342026D01*
X150650303Y-101281010D01*
X151043629Y-100888370D01*
X151256757Y-100375100D01*
X151256778Y-100351054D01*
X151299303Y-100414697D01*
X151343200Y-100444028D01*
X152006560Y-101107388D01*
X152006560Y-101447600D01*
X152050838Y-101682917D01*
X152189910Y-101899041D01*
X152402110Y-102044031D01*
X152654000Y-102095040D01*
X154686000Y-102095040D01*
X154921317Y-102050762D01*
X155137441Y-101911690D01*
X155282431Y-101699490D01*
X155333440Y-101447600D01*
X155333440Y-99720400D01*
X155289162Y-99485083D01*
X155150090Y-99268959D01*
X154937890Y-99123969D01*
X154896561Y-99115600D01*
X154914415Y-99103670D01*
X155239271Y-98617489D01*
X155353345Y-98044000D01*
X155239271Y-97470511D01*
X154914415Y-96984330D01*
X154599634Y-96774000D01*
X154914415Y-96563670D01*
X155239271Y-96077489D01*
X155353345Y-95504000D01*
X155239271Y-94930511D01*
X154914415Y-94444330D01*
X154604931Y-94237539D01*
X155020732Y-93866036D01*
X155274709Y-93338791D01*
X155277358Y-93323026D01*
X155156217Y-93091000D01*
X153797000Y-93091000D01*
X153797000Y-93111000D01*
X153543000Y-93111000D01*
X153543000Y-93091000D01*
X152183783Y-93091000D01*
X152062642Y-93323026D01*
X152065291Y-93338791D01*
X152319268Y-93866036D01*
X152735069Y-94237539D01*
X152425585Y-94444330D01*
X152262219Y-94688825D01*
X151956697Y-94383303D01*
X151684766Y-94201604D01*
X151364000Y-94137800D01*
X150997197Y-94137800D01*
X150652370Y-93792371D01*
X150508497Y-93732630D01*
X150591143Y-93698397D01*
X150660608Y-93456213D01*
X149860000Y-92655605D01*
X149059392Y-93456213D01*
X149128857Y-93698397D01*
X149217367Y-93729974D01*
X149069697Y-93790990D01*
X148722281Y-94137800D01*
X148663194Y-94137800D01*
X148412200Y-93886806D01*
X148412200Y-93472000D01*
X148348396Y-93151235D01*
X148166697Y-92879303D01*
X147658697Y-92371303D01*
X147504546Y-92268302D01*
X148450856Y-92268302D01*
X148478638Y-92823368D01*
X148637603Y-93207143D01*
X148879787Y-93276608D01*
X149680395Y-92476000D01*
X150039605Y-92476000D01*
X150840213Y-93276608D01*
X151082397Y-93207143D01*
X151269144Y-92683698D01*
X151265204Y-92604974D01*
X152062642Y-92604974D01*
X152183783Y-92837000D01*
X153543000Y-92837000D01*
X153543000Y-91623076D01*
X153797000Y-91623076D01*
X153797000Y-92837000D01*
X155156217Y-92837000D01*
X155277358Y-92604974D01*
X155274709Y-92589209D01*
X155020732Y-92061964D01*
X154584320Y-91672046D01*
X154031913Y-91478816D01*
X153797000Y-91623076D01*
X153543000Y-91623076D01*
X153308087Y-91478816D01*
X152755680Y-91672046D01*
X152319268Y-92061964D01*
X152065291Y-92589209D01*
X152062642Y-92604974D01*
X151265204Y-92604974D01*
X151241362Y-92128632D01*
X151082397Y-91744857D01*
X150840213Y-91675392D01*
X150039605Y-92476000D01*
X149680395Y-92476000D01*
X148879787Y-91675392D01*
X148637603Y-91744857D01*
X148450856Y-92268302D01*
X147504546Y-92268302D01*
X147386766Y-92189604D01*
X147066000Y-92125800D01*
X146938149Y-92125800D01*
X147090129Y-91898346D01*
X147170203Y-91495787D01*
X149059392Y-91495787D01*
X149179886Y-91616281D01*
X149202937Y-91732165D01*
X149357106Y-91962894D01*
X149587835Y-92117063D01*
X149703719Y-92140114D01*
X149860000Y-92296395D01*
X150016281Y-92140114D01*
X150132165Y-92117063D01*
X150362894Y-91962894D01*
X150382894Y-91942895D01*
X150537063Y-91712165D01*
X150560113Y-91596282D01*
X150660608Y-91495787D01*
X150591143Y-91253603D01*
X150551295Y-91239387D01*
X150537063Y-91167835D01*
X150382894Y-90937106D01*
X150152165Y-90782937D01*
X149880000Y-90728801D01*
X149607835Y-90782937D01*
X149377105Y-90937106D01*
X149357106Y-90957106D01*
X149202937Y-91187835D01*
X149195332Y-91226068D01*
X149128857Y-91253603D01*
X149059392Y-91495787D01*
X147170203Y-91495787D01*
X147176526Y-91464000D01*
X147090129Y-91029654D01*
X146879216Y-90714000D01*
X147090129Y-90398346D01*
X147176526Y-89964000D01*
X147090129Y-89529654D01*
X146844092Y-89161434D01*
X146475872Y-88915397D01*
X146041526Y-88829000D01*
X145446474Y-88829000D01*
X145012128Y-88915397D01*
X144643908Y-89161434D01*
X144397871Y-89529654D01*
X144311474Y-89964000D01*
X144397871Y-90398346D01*
X144583795Y-90676600D01*
X144248000Y-90676600D01*
X143946675Y-90736537D01*
X143692158Y-90906600D01*
X143176061Y-90906600D01*
X143140890Y-90882569D01*
X142889000Y-90831560D01*
X142609000Y-90831560D01*
X142489778Y-90853993D01*
X142379000Y-90831560D01*
X142265400Y-90831560D01*
X142265400Y-89734152D01*
X144248152Y-87751400D01*
X144633774Y-87751400D01*
X144643908Y-87766566D01*
X145012128Y-88012603D01*
X145446474Y-88099000D01*
X146041526Y-88099000D01*
X146475872Y-88012603D01*
X146844092Y-87766566D01*
X147090129Y-87398346D01*
X147176526Y-86964000D01*
X147090129Y-86529654D01*
X146844092Y-86161434D01*
X146475872Y-85915397D01*
X146041526Y-85829000D01*
X145446474Y-85829000D01*
X145012128Y-85915397D01*
X144643908Y-86161434D01*
X144633774Y-86176600D01*
X143922000Y-86176600D01*
X143620675Y-86236537D01*
X143365224Y-86407224D01*
X141478000Y-88294448D01*
X141018776Y-87835224D01*
X140763325Y-87664537D01*
X140626348Y-87637291D01*
X140661440Y-87464000D01*
X140661440Y-86464000D01*
X140617162Y-86228683D01*
X140478090Y-86012559D01*
X140265890Y-85867569D01*
X140014000Y-85816560D01*
X138474000Y-85816560D01*
X138238683Y-85860838D01*
X138022559Y-85999910D01*
X137877569Y-86212110D01*
X137826560Y-86464000D01*
X137826560Y-87464000D01*
X137853016Y-87604600D01*
X136906000Y-87604600D01*
X136604675Y-87664537D01*
X136349224Y-87835224D01*
X135333224Y-88851224D01*
X135162537Y-89106675D01*
X135102600Y-89408000D01*
X135102600Y-90351810D01*
X134890510Y-90351810D01*
X134655193Y-90396088D01*
X134439069Y-90535160D01*
X134294079Y-90747360D01*
X134243070Y-90999250D01*
X133726930Y-90999250D01*
X133682652Y-90763933D01*
X133543580Y-90547809D01*
X133331380Y-90402819D01*
X133079490Y-90351810D01*
X131080510Y-90351810D01*
X130845193Y-90396088D01*
X130629069Y-90535160D01*
X130484079Y-90747360D01*
X130433070Y-90999250D01*
X130250000Y-90999250D01*
X130250000Y-89571807D01*
X130567293Y-89889655D01*
X131547173Y-90296536D01*
X132608172Y-90297462D01*
X133588761Y-89892291D01*
X134339655Y-89142707D01*
X134746536Y-88162827D01*
X134747462Y-87101828D01*
X134342291Y-86121239D01*
X134021612Y-85800000D01*
X151728193Y-85800000D01*
X151410345Y-86117293D01*
M02*
