G04 #@! TF.GenerationSoftware,KiCad,Pcbnew,(5.0.1)-4*
G04 #@! TF.CreationDate,2020-10-11T14:42:23+02:00*
G04 #@! TF.ProjectId,GP2Y0D8xxZ0F,4750325930443878785A30462E6B6963,1*
G04 #@! TF.SameCoordinates,Original*
G04 #@! TF.FileFunction,Legend,Bot*
G04 #@! TF.FilePolarity,Positive*
%FSLAX46Y46*%
G04 Gerber Fmt 4.6, Leading zero omitted, Abs format (unit mm)*
G04 Created by KiCad (PCBNEW (5.0.1)-4) date 10/11/2020 2:42:23 PM*
%MOMM*%
%LPD*%
G01*
G04 APERTURE LIST*
%ADD10C,0.250000*%
%ADD11C,0.150000*%
G04 APERTURE END LIST*
D10*
X79976190Y-78404761D02*
X79928571Y-78357142D01*
X79880952Y-78261904D01*
X79880952Y-78166666D01*
X79928571Y-78071428D01*
X79976190Y-78023809D01*
X80071428Y-77976190D01*
X80166666Y-77976190D01*
X80261904Y-78023809D01*
X80309523Y-78071428D01*
X80357142Y-78166666D01*
X80357142Y-78261904D01*
X80309523Y-78357142D01*
X80261904Y-78404761D01*
X79880952Y-78404761D02*
X80261904Y-78404761D01*
X80309523Y-78452380D01*
X80309523Y-78500000D01*
X80261904Y-78595238D01*
X80166666Y-78642857D01*
X79928571Y-78642857D01*
X79785714Y-78547619D01*
X79690476Y-78404761D01*
X79642857Y-78214285D01*
X79690476Y-78023809D01*
X79785714Y-77880952D01*
X79928571Y-77785714D01*
X80119047Y-77738095D01*
X80309523Y-77785714D01*
X80452380Y-77880952D01*
X80547619Y-78023809D01*
X80595238Y-78214285D01*
X80547619Y-78404761D01*
X80452380Y-78547619D01*
X80452380Y-79071428D02*
X79452380Y-79071428D01*
X79833333Y-79071428D02*
X79785714Y-79166666D01*
X79785714Y-79357142D01*
X79833333Y-79452380D01*
X79880952Y-79500000D01*
X79976190Y-79547619D01*
X80261904Y-79547619D01*
X80357142Y-79500000D01*
X80404761Y-79452380D01*
X80452380Y-79357142D01*
X80452380Y-79166666D01*
X80404761Y-79071428D01*
X80452380Y-80119047D02*
X80404761Y-80023809D01*
X80357142Y-79976190D01*
X80261904Y-79928571D01*
X79976190Y-79928571D01*
X79880952Y-79976190D01*
X79833333Y-80023809D01*
X79785714Y-80119047D01*
X79785714Y-80261904D01*
X79833333Y-80357142D01*
X79880952Y-80404761D01*
X79976190Y-80452380D01*
X80261904Y-80452380D01*
X80357142Y-80404761D01*
X80404761Y-80357142D01*
X80452380Y-80261904D01*
X80452380Y-80119047D01*
X80452380Y-80880952D02*
X79452380Y-80880952D01*
X79833333Y-80880952D02*
X79785714Y-80976190D01*
X79785714Y-81166666D01*
X79833333Y-81261904D01*
X79880952Y-81309523D01*
X79976190Y-81357142D01*
X80261904Y-81357142D01*
X80357142Y-81309523D01*
X80404761Y-81261904D01*
X80452380Y-81166666D01*
X80452380Y-80976190D01*
X80404761Y-80880952D01*
X80452380Y-81785714D02*
X79452380Y-81785714D01*
X79833333Y-81785714D02*
X79785714Y-81880952D01*
X79785714Y-82071428D01*
X79833333Y-82166666D01*
X79880952Y-82214285D01*
X79976190Y-82261904D01*
X80261904Y-82261904D01*
X80357142Y-82214285D01*
X80404761Y-82166666D01*
X80452380Y-82071428D01*
X80452380Y-81880952D01*
X80404761Y-81785714D01*
X80452380Y-82833333D02*
X80404761Y-82738095D01*
X80357142Y-82690476D01*
X80261904Y-82642857D01*
X79976190Y-82642857D01*
X79880952Y-82690476D01*
X79833333Y-82738095D01*
X79785714Y-82833333D01*
X79785714Y-82976190D01*
X79833333Y-83071428D01*
X79880952Y-83119047D01*
X79976190Y-83166666D01*
X80261904Y-83166666D01*
X80357142Y-83119047D01*
X80404761Y-83071428D01*
X80452380Y-82976190D01*
X80452380Y-82833333D01*
X79785714Y-83452380D02*
X79785714Y-83833333D01*
X79452380Y-83595238D02*
X80309523Y-83595238D01*
X80404761Y-83642857D01*
X80452380Y-83738095D01*
X80452380Y-83833333D01*
X80404761Y-84547619D02*
X80452380Y-84452380D01*
X80452380Y-84261904D01*
X80404761Y-84166666D01*
X80309523Y-84119047D01*
X79928571Y-84119047D01*
X79833333Y-84166666D01*
X79785714Y-84261904D01*
X79785714Y-84452380D01*
X79833333Y-84547619D01*
X79928571Y-84595238D01*
X80023809Y-84595238D01*
X80119047Y-84119047D01*
X80404761Y-85452380D02*
X80452380Y-85357142D01*
X80452380Y-85166666D01*
X80404761Y-85071428D01*
X80357142Y-85023809D01*
X80261904Y-84976190D01*
X79976190Y-84976190D01*
X79880952Y-85023809D01*
X79833333Y-85071428D01*
X79785714Y-85166666D01*
X79785714Y-85357142D01*
X79833333Y-85452380D01*
X80452380Y-85880952D02*
X79452380Y-85880952D01*
X80071428Y-85976190D02*
X80452380Y-86261904D01*
X79785714Y-86261904D02*
X80166666Y-85880952D01*
D11*
G04 #@! TO.C,JP1*
X82115000Y-82940000D02*
X81885000Y-82940000D01*
X81885000Y-82060000D02*
X82115000Y-82060000D01*
X81452380Y-79166666D02*
X82166666Y-79166666D01*
X82309523Y-79119047D01*
X82404761Y-79023809D01*
X82452380Y-78880952D01*
X82452380Y-78785714D01*
X82452380Y-79642857D02*
X81452380Y-79642857D01*
X81452380Y-80023809D01*
X81500000Y-80119047D01*
X81547619Y-80166666D01*
X81642857Y-80214285D01*
X81785714Y-80214285D01*
X81880952Y-80166666D01*
X81928571Y-80119047D01*
X81976190Y-80023809D01*
X81976190Y-79642857D01*
X82452380Y-81166666D02*
X82452380Y-80595238D01*
X82452380Y-80880952D02*
X81452380Y-80880952D01*
X81595238Y-80785714D01*
X81690476Y-80690476D01*
X81738095Y-80595238D01*
G04 #@! TD*
M02*
