M48
INCH,TZ
T1C0.0276
T2C0.0300
T3C0.0394
T4C0.0400
T5C0.1260
%
G90
G05
T1
X30610Y-30709
X30610Y-31890
X30610Y-32480
X30610Y-33071
X30610Y-33661
X30610Y-34252
X30610Y-34843
X33169Y-30709
X33169Y-31890
X33169Y-32480
X33169Y-33071
X33169Y-33661
X33169Y-34252
X33169Y-34843
T2
X33858Y-36319
X33858Y-37303
X29921Y-36319
X29921Y-37303
X31890Y-36319
X31890Y-37303
X34646Y-33071
X34646Y-34252
T3
X27756Y-32874
X27756Y-36812
X36024Y-32874
X36024Y-36812
T4
X30315Y-38976
X31315Y-38976
X32315Y-38976
X33315Y-38976
T5
X27953Y-38780
X35827Y-38780
X27953Y-30906
X35827Y-30906
T0
M30
