G04 #@! TF.FileFunction,Copper,L1,Top,Signal*
%FSLAX46Y46*%
G04 Gerber Fmt 4.6, Leading zero omitted, Abs format (unit mm)*
G04 Created by KiCad (PCBNEW 4.0.6) date 10/30/18 22:54:08*
%MOMM*%
%LPD*%
G01*
G04 APERTURE LIST*
%ADD10C,0.100000*%
%ADD11R,1.540000X1.000000*%
%ADD12O,1.540000X1.000000*%
%ADD13R,2.032000X1.727200*%
%ADD14O,2.032000X1.727200*%
%ADD15R,1.998980X1.998980*%
%ADD16R,1.597660X1.800860*%
%ADD17C,1.524000*%
%ADD18C,4.064000*%
%ADD19R,2.500000X2.000000*%
%ADD20R,2.000000X2.500000*%
%ADD21C,0.304800*%
%ADD22C,0.152400*%
%ADD23C,0.254000*%
G04 APERTURE END LIST*
D10*
D11*
X139244000Y-86964000D03*
D12*
X139244000Y-89964000D03*
X139244000Y-91464000D03*
X139244000Y-92964000D03*
X139244000Y-94464000D03*
X139244000Y-95964000D03*
X139244000Y-97464000D03*
X145744000Y-97464000D03*
X145744000Y-95964000D03*
X145744000Y-94464000D03*
X145744000Y-92964000D03*
X145744000Y-91464000D03*
X145744000Y-89964000D03*
X145744000Y-86964000D03*
D13*
X153670000Y-100584000D03*
D14*
X153670000Y-98044000D03*
X153670000Y-95504000D03*
X153670000Y-92964000D03*
D10*
G36*
X130881120Y-92836940D02*
X133278880Y-92836940D01*
X132880100Y-96337060D01*
X131279900Y-96337060D01*
X130881120Y-92836940D01*
X130881120Y-92836940D01*
G37*
G36*
X133278880Y-101163060D02*
X130881120Y-101163060D01*
X131279900Y-97662940D01*
X132880100Y-97662940D01*
X133278880Y-101163060D01*
X133278880Y-101163060D01*
G37*
D15*
X132080000Y-91998740D03*
X132080000Y-102001260D03*
D10*
G36*
X134691120Y-92836940D02*
X137088880Y-92836940D01*
X136690100Y-96337060D01*
X135089900Y-96337060D01*
X134691120Y-92836940D01*
X134691120Y-92836940D01*
G37*
G36*
X137088880Y-101163060D02*
X134691120Y-101163060D01*
X135089900Y-97662940D01*
X136690100Y-97662940D01*
X137088880Y-101163060D01*
X137088880Y-101163060D01*
G37*
D15*
X135890000Y-91998740D03*
X135890000Y-102001260D03*
D16*
X141405140Y-106680000D03*
X144244860Y-106680000D03*
D17*
X144325000Y-106680000D03*
X141325000Y-106680000D03*
D18*
X153670000Y-87630000D03*
X132080000Y-87630000D03*
X132080000Y-106680000D03*
X153670000Y-106680000D03*
D19*
X149860000Y-95726000D03*
X149860000Y-91726000D03*
D17*
X149860000Y-94976000D03*
X149860000Y-92476000D03*
D19*
X149860000Y-99346000D03*
X149860000Y-103346000D03*
D17*
X149860000Y-100096000D03*
X149860000Y-102596000D03*
D20*
X140875000Y-102235000D03*
X144875000Y-102235000D03*
D17*
X141625000Y-102235000D03*
X144125000Y-102235000D03*
D21*
X139244000Y-97464000D02*
X139244000Y-98604000D01*
X147340000Y-100096000D02*
X149860000Y-100096000D01*
X146812000Y-99568000D02*
X147340000Y-100096000D01*
X140208000Y-99568000D02*
X146812000Y-99568000D01*
X139244000Y-98604000D02*
X140208000Y-99568000D01*
X149860000Y-100096000D02*
X149860000Y-99346000D01*
D22*
X149840000Y-100076000D02*
X149860000Y-100096000D01*
X149860000Y-100096000D02*
X149860000Y-99346000D01*
X139244000Y-97464000D02*
X139244000Y-97842000D01*
X149860000Y-99080000D02*
X149860000Y-98330000D01*
X132080000Y-102001260D02*
X132080000Y-99413000D01*
X135890000Y-91998740D02*
X135890000Y-94587000D01*
X135890000Y-102001260D02*
X135890000Y-99413000D01*
D21*
X153670000Y-98044000D02*
X152400000Y-98044000D01*
X147090000Y-91464000D02*
X145744000Y-91464000D01*
X147574000Y-91948000D02*
X147090000Y-91464000D01*
X147574000Y-97282000D02*
X147574000Y-91948000D01*
X147828000Y-97536000D02*
X147574000Y-97282000D01*
X151892000Y-97536000D02*
X147828000Y-97536000D01*
X152400000Y-98044000D02*
X151892000Y-97536000D01*
D22*
X153670000Y-97790000D02*
X152908000Y-97790000D01*
D21*
X145744000Y-89964000D02*
X151686000Y-89964000D01*
X154940000Y-95504000D02*
X153670000Y-95504000D01*
X155448000Y-94996000D02*
X154940000Y-95504000D01*
X155448000Y-91186000D02*
X155448000Y-94996000D01*
X154940000Y-90678000D02*
X155448000Y-91186000D01*
X152400000Y-90678000D02*
X154940000Y-90678000D01*
X151686000Y-89964000D02*
X152400000Y-90678000D01*
X139244000Y-89964000D02*
X134114740Y-89964000D01*
X134114740Y-89964000D02*
X132080000Y-91998740D01*
D22*
X132080000Y-94587000D02*
X132080000Y-91998740D01*
D21*
X139244000Y-91464000D02*
X140438000Y-91464000D01*
X140304000Y-86964000D02*
X139244000Y-86964000D01*
X140970000Y-87630000D02*
X140304000Y-86964000D01*
X140970000Y-90932000D02*
X140970000Y-87630000D01*
X140438000Y-91464000D02*
X140970000Y-90932000D01*
D22*
X139244000Y-91464000D02*
X139930000Y-91464000D01*
D23*
G36*
X151410345Y-86117293D02*
X151003464Y-87097173D01*
X151002538Y-88158172D01*
X151407709Y-89138761D01*
X151445482Y-89176600D01*
X146854226Y-89176600D01*
X146844092Y-89161434D01*
X146475872Y-88915397D01*
X146041526Y-88829000D01*
X145446474Y-88829000D01*
X145012128Y-88915397D01*
X144643908Y-89161434D01*
X144397871Y-89529654D01*
X144311474Y-89964000D01*
X144397871Y-90398346D01*
X144608784Y-90714000D01*
X144397871Y-91029654D01*
X144311474Y-91464000D01*
X144397871Y-91898346D01*
X144608784Y-92214000D01*
X144397871Y-92529654D01*
X144311474Y-92964000D01*
X144397871Y-93398346D01*
X144608784Y-93714000D01*
X144397871Y-94029654D01*
X144311474Y-94464000D01*
X144397871Y-94898346D01*
X144608784Y-95214000D01*
X144397871Y-95529654D01*
X144311474Y-95964000D01*
X144397871Y-96398346D01*
X144608784Y-96714000D01*
X144397871Y-97029654D01*
X144311474Y-97464000D01*
X144397871Y-97898346D01*
X144643908Y-98266566D01*
X145012128Y-98512603D01*
X145446474Y-98599000D01*
X146041526Y-98599000D01*
X146475872Y-98512603D01*
X146844092Y-98266566D01*
X147084788Y-97906340D01*
X147271224Y-98092776D01*
X147526675Y-98263463D01*
X147828000Y-98323400D01*
X147967137Y-98323400D01*
X147962560Y-98346000D01*
X147962560Y-99308600D01*
X147666152Y-99308600D01*
X147368776Y-99011224D01*
X147113325Y-98840537D01*
X146812000Y-98780600D01*
X140534152Y-98780600D01*
X140149884Y-98396332D01*
X140344092Y-98266566D01*
X140590129Y-97898346D01*
X140676526Y-97464000D01*
X140590129Y-97029654D01*
X140379216Y-96714000D01*
X140590129Y-96398346D01*
X140676526Y-95964000D01*
X140590129Y-95529654D01*
X140379216Y-95214000D01*
X140590129Y-94898346D01*
X140676526Y-94464000D01*
X140590129Y-94029654D01*
X140373085Y-93704825D01*
X140406368Y-93676763D01*
X140608119Y-93265874D01*
X140481954Y-93091000D01*
X139371000Y-93091000D01*
X139371000Y-93111000D01*
X139117000Y-93111000D01*
X139117000Y-93091000D01*
X138006046Y-93091000D01*
X137879881Y-93265874D01*
X138081632Y-93676763D01*
X138114915Y-93704825D01*
X137897871Y-94029654D01*
X137811474Y-94464000D01*
X137897871Y-94898346D01*
X138108784Y-95214000D01*
X137897871Y-95529654D01*
X137811474Y-95964000D01*
X137897871Y-96398346D01*
X138108784Y-96714000D01*
X137897871Y-97029654D01*
X137811474Y-97464000D01*
X137897871Y-97898346D01*
X138143908Y-98266566D01*
X138456600Y-98475500D01*
X138456600Y-98604000D01*
X138516537Y-98905325D01*
X138687224Y-99160776D01*
X139651224Y-100124776D01*
X139906675Y-100295463D01*
X140118312Y-100337560D01*
X139875000Y-100337560D01*
X139639683Y-100381838D01*
X139423559Y-100520910D01*
X139278569Y-100733110D01*
X139227560Y-100985000D01*
X139227560Y-103485000D01*
X139271838Y-103720317D01*
X139410910Y-103936441D01*
X139623110Y-104081431D01*
X139875000Y-104132440D01*
X141875000Y-104132440D01*
X142110317Y-104088162D01*
X142326441Y-103949090D01*
X142471431Y-103736890D01*
X142522440Y-103485000D01*
X142522440Y-103313060D01*
X142808629Y-103027370D01*
X142868370Y-102883497D01*
X142902603Y-102966143D01*
X143144787Y-103035608D01*
X143240000Y-102940395D01*
X143240000Y-103611310D01*
X143336673Y-103844699D01*
X143515302Y-104023327D01*
X143748691Y-104120000D01*
X144589250Y-104120000D01*
X144748000Y-103961250D01*
X144748000Y-103502191D01*
X144856143Y-103457397D01*
X144925607Y-103215215D01*
X145002000Y-103291608D01*
X145002000Y-103961250D01*
X145160750Y-104120000D01*
X146001309Y-104120000D01*
X146234698Y-104023327D01*
X146413327Y-103844699D01*
X146510000Y-103611310D01*
X146510000Y-102520750D01*
X146351250Y-102362000D01*
X145530105Y-102362000D01*
X145517392Y-102108000D01*
X146351250Y-102108000D01*
X146510000Y-101949250D01*
X146510000Y-100858690D01*
X146413327Y-100625301D01*
X146234698Y-100446673D01*
X146014346Y-100355400D01*
X146485848Y-100355400D01*
X146783224Y-100652776D01*
X147038675Y-100823463D01*
X147340000Y-100883400D01*
X148271715Y-100883400D01*
X148358110Y-100942431D01*
X148610000Y-100993440D01*
X148781940Y-100993440D01*
X149067630Y-101279629D01*
X149211503Y-101339370D01*
X149128857Y-101373603D01*
X149059392Y-101615787D01*
X149154605Y-101711000D01*
X148483690Y-101711000D01*
X148250301Y-101807673D01*
X148071673Y-101986302D01*
X147975000Y-102219691D01*
X147975000Y-103060250D01*
X148133750Y-103219000D01*
X148592809Y-103219000D01*
X148637603Y-103327143D01*
X148879785Y-103396607D01*
X148803392Y-103473000D01*
X148133750Y-103473000D01*
X147975000Y-103631750D01*
X147975000Y-104472309D01*
X148071673Y-104705698D01*
X148250301Y-104884327D01*
X148483690Y-104981000D01*
X149574250Y-104981000D01*
X149733000Y-104822250D01*
X149733000Y-104001105D01*
X149987000Y-103988392D01*
X149987000Y-104822250D01*
X150145750Y-104981000D01*
X151236310Y-104981000D01*
X151469699Y-104884327D01*
X151648327Y-104705698D01*
X151745000Y-104472309D01*
X151745000Y-103631750D01*
X151586250Y-103473000D01*
X150916608Y-103473000D01*
X150840215Y-103396607D01*
X151082397Y-103327143D01*
X151120979Y-103219000D01*
X151586250Y-103219000D01*
X151745000Y-103060250D01*
X151745000Y-102219691D01*
X151648327Y-101986302D01*
X151469699Y-101807673D01*
X151236310Y-101711000D01*
X150565395Y-101711000D01*
X150660608Y-101615787D01*
X150591143Y-101373603D01*
X150502633Y-101342026D01*
X150650303Y-101281010D01*
X150938375Y-100993440D01*
X151110000Y-100993440D01*
X151345317Y-100949162D01*
X151561441Y-100810090D01*
X151706431Y-100597890D01*
X151757440Y-100346000D01*
X151757440Y-98514992D01*
X151843224Y-98600776D01*
X152098675Y-98771463D01*
X152219696Y-98795535D01*
X152425585Y-99103670D01*
X152439913Y-99113243D01*
X152418683Y-99117238D01*
X152202559Y-99256310D01*
X152057569Y-99468510D01*
X152006560Y-99720400D01*
X152006560Y-101447600D01*
X152050838Y-101682917D01*
X152189910Y-101899041D01*
X152402110Y-102044031D01*
X152654000Y-102095040D01*
X154686000Y-102095040D01*
X154921317Y-102050762D01*
X155137441Y-101911690D01*
X155282431Y-101699490D01*
X155333440Y-101447600D01*
X155333440Y-99720400D01*
X155289162Y-99485083D01*
X155150090Y-99268959D01*
X154937890Y-99123969D01*
X154896561Y-99115600D01*
X154914415Y-99103670D01*
X155239271Y-98617489D01*
X155353345Y-98044000D01*
X155239271Y-97470511D01*
X154914415Y-96984330D01*
X154599634Y-96774000D01*
X154914415Y-96563670D01*
X155120304Y-96255535D01*
X155241325Y-96231463D01*
X155496776Y-96060776D01*
X155500000Y-96057552D01*
X155500000Y-104738193D01*
X155182707Y-104420345D01*
X154202827Y-104013464D01*
X153141828Y-104012538D01*
X152161239Y-104417709D01*
X151410345Y-105167293D01*
X151003464Y-106147173D01*
X151002538Y-107208172D01*
X151407709Y-108188761D01*
X151728388Y-108510000D01*
X134021807Y-108510000D01*
X134339655Y-108192707D01*
X134746536Y-107212827D01*
X134746759Y-106956661D01*
X139927758Y-106956661D01*
X139958870Y-107031958D01*
X139958870Y-107580430D01*
X140003148Y-107815747D01*
X140142220Y-108031871D01*
X140354420Y-108176861D01*
X140606310Y-108227870D01*
X142203970Y-108227870D01*
X142439287Y-108183592D01*
X142655411Y-108044520D01*
X142800401Y-107832320D01*
X142820971Y-107730741D01*
X142907703Y-107940129D01*
X143086332Y-108118757D01*
X143319721Y-108215430D01*
X143959110Y-108215430D01*
X144093786Y-108080754D01*
X144117302Y-108089144D01*
X144390643Y-108075463D01*
X144530610Y-108215430D01*
X145169999Y-108215430D01*
X145403388Y-108118757D01*
X145582017Y-107940129D01*
X145678690Y-107706740D01*
X145678690Y-107043134D01*
X145734144Y-106887698D01*
X145706362Y-106332632D01*
X145678690Y-106265826D01*
X145678690Y-105653260D01*
X145582017Y-105419871D01*
X145403388Y-105241243D01*
X145169999Y-105144570D01*
X144530610Y-105144570D01*
X144397560Y-105277620D01*
X144106717Y-105292177D01*
X143959110Y-105144570D01*
X143319721Y-105144570D01*
X143086332Y-105241243D01*
X142907703Y-105419871D01*
X142822454Y-105625681D01*
X142807132Y-105544253D01*
X142668060Y-105328129D01*
X142455860Y-105183139D01*
X142203970Y-105132130D01*
X140606310Y-105132130D01*
X140370993Y-105176408D01*
X140154869Y-105315480D01*
X140009879Y-105527680D01*
X139958870Y-105779570D01*
X139958870Y-106327142D01*
X139928243Y-106400900D01*
X139927758Y-106956661D01*
X134746759Y-106956661D01*
X134747462Y-106151828D01*
X134342291Y-105171239D01*
X133592707Y-104420345D01*
X132612827Y-104013464D01*
X131551828Y-104012538D01*
X130571239Y-104417709D01*
X130250000Y-104738388D01*
X130250000Y-102287010D01*
X130445510Y-102287010D01*
X130445510Y-103127059D01*
X130542183Y-103360448D01*
X130720811Y-103539077D01*
X130954200Y-103635750D01*
X131794250Y-103635750D01*
X131953000Y-103477000D01*
X131953000Y-102128260D01*
X132207000Y-102128260D01*
X132207000Y-103477000D01*
X132365750Y-103635750D01*
X133205800Y-103635750D01*
X133439189Y-103539077D01*
X133617817Y-103360448D01*
X133714490Y-103127059D01*
X133714490Y-102287010D01*
X133555740Y-102128260D01*
X132207000Y-102128260D01*
X131953000Y-102128260D01*
X130604260Y-102128260D01*
X130445510Y-102287010D01*
X130250000Y-102287010D01*
X130250000Y-101183299D01*
X130277958Y-101398377D01*
X130417030Y-101614501D01*
X130445510Y-101633961D01*
X130445510Y-101715510D01*
X130604260Y-101874260D01*
X131953000Y-101874260D01*
X131953000Y-99540000D01*
X132207000Y-99540000D01*
X132207000Y-101874260D01*
X133555740Y-101874260D01*
X133714490Y-101715510D01*
X133714490Y-101626570D01*
X133779955Y-101573063D01*
X133899991Y-101345815D01*
X133922158Y-101089769D01*
X134047842Y-101089769D01*
X134087958Y-101398377D01*
X134227030Y-101614501D01*
X134243070Y-101625461D01*
X134243070Y-103000750D01*
X134287348Y-103236067D01*
X134426420Y-103452191D01*
X134638620Y-103597181D01*
X134890510Y-103648190D01*
X136889490Y-103648190D01*
X137124807Y-103603912D01*
X137340931Y-103464840D01*
X137485921Y-103252640D01*
X137536930Y-103000750D01*
X137536930Y-101616402D01*
X137589955Y-101573063D01*
X137709991Y-101345815D01*
X137732158Y-101089769D01*
X137333378Y-97589649D01*
X137293262Y-97427623D01*
X137154190Y-97211499D01*
X136941990Y-97066509D01*
X136690100Y-97015500D01*
X135089900Y-97015500D01*
X134924374Y-97037017D01*
X134693896Y-97150730D01*
X134525817Y-97345152D01*
X134446622Y-97589649D01*
X134047842Y-101089769D01*
X133922158Y-101089769D01*
X133745588Y-99540000D01*
X132207000Y-99540000D01*
X131953000Y-99540000D01*
X130414412Y-99540000D01*
X130250000Y-100983057D01*
X130250000Y-99286000D01*
X130443351Y-99286000D01*
X131953000Y-99286000D01*
X131953000Y-97015500D01*
X132207000Y-97015500D01*
X132207000Y-99286000D01*
X133716649Y-99286000D01*
X133523378Y-97589649D01*
X133483262Y-97427623D01*
X133344190Y-97211499D01*
X133131990Y-97066509D01*
X132880100Y-97015500D01*
X132207000Y-97015500D01*
X131953000Y-97015500D01*
X131279900Y-97015500D01*
X131114374Y-97037017D01*
X130883896Y-97150730D01*
X130715817Y-97345152D01*
X130636622Y-97589649D01*
X130443351Y-99286000D01*
X130250000Y-99286000D01*
X130250000Y-93016943D01*
X130636622Y-96410351D01*
X130676738Y-96572377D01*
X130815810Y-96788501D01*
X131028010Y-96933491D01*
X131279900Y-96984500D01*
X132880100Y-96984500D01*
X133045626Y-96962983D01*
X133276104Y-96849270D01*
X133444183Y-96654848D01*
X133523378Y-96410351D01*
X133922158Y-92910231D01*
X133882042Y-92601623D01*
X133742970Y-92385499D01*
X133726930Y-92374539D01*
X133726930Y-91465362D01*
X134255773Y-90936519D01*
X134243070Y-90999250D01*
X134243070Y-92383598D01*
X134190045Y-92426937D01*
X134070009Y-92654185D01*
X134047842Y-92910231D01*
X134446622Y-96410351D01*
X134486738Y-96572377D01*
X134625810Y-96788501D01*
X134838010Y-96933491D01*
X135089900Y-96984500D01*
X136690100Y-96984500D01*
X136855626Y-96962983D01*
X137086104Y-96849270D01*
X137254183Y-96654848D01*
X137333378Y-96410351D01*
X137732158Y-92910231D01*
X137692042Y-92601623D01*
X137552970Y-92385499D01*
X137536930Y-92374539D01*
X137536930Y-90999250D01*
X137492652Y-90763933D01*
X137484587Y-90751400D01*
X138083795Y-90751400D01*
X137897871Y-91029654D01*
X137811474Y-91464000D01*
X137897871Y-91898346D01*
X138114915Y-92223175D01*
X138081632Y-92251237D01*
X137879881Y-92662126D01*
X138006046Y-92837000D01*
X139117000Y-92837000D01*
X139117000Y-92817000D01*
X139371000Y-92817000D01*
X139371000Y-92837000D01*
X140481954Y-92837000D01*
X140608119Y-92662126D01*
X140406448Y-92251400D01*
X140438000Y-92251400D01*
X140739325Y-92191463D01*
X140994776Y-92020776D01*
X141526776Y-91488776D01*
X141697463Y-91233325D01*
X141757400Y-90932000D01*
X141757400Y-87630000D01*
X141697463Y-87328675D01*
X141526776Y-87073224D01*
X141417552Y-86964000D01*
X144311474Y-86964000D01*
X144397871Y-87398346D01*
X144643908Y-87766566D01*
X145012128Y-88012603D01*
X145446474Y-88099000D01*
X146041526Y-88099000D01*
X146475872Y-88012603D01*
X146844092Y-87766566D01*
X147090129Y-87398346D01*
X147176526Y-86964000D01*
X147090129Y-86529654D01*
X146844092Y-86161434D01*
X146475872Y-85915397D01*
X146041526Y-85829000D01*
X145446474Y-85829000D01*
X145012128Y-85915397D01*
X144643908Y-86161434D01*
X144397871Y-86529654D01*
X144311474Y-86964000D01*
X141417552Y-86964000D01*
X140860776Y-86407224D01*
X140620555Y-86246713D01*
X140617162Y-86228683D01*
X140478090Y-86012559D01*
X140265890Y-85867569D01*
X140014000Y-85816560D01*
X138474000Y-85816560D01*
X138238683Y-85860838D01*
X138022559Y-85999910D01*
X137877569Y-86212110D01*
X137826560Y-86464000D01*
X137826560Y-87464000D01*
X137870838Y-87699317D01*
X138009910Y-87915441D01*
X138222110Y-88060431D01*
X138474000Y-88111440D01*
X140014000Y-88111440D01*
X140182600Y-88079716D01*
X140182600Y-89053528D01*
X139975872Y-88915397D01*
X139541526Y-88829000D01*
X138946474Y-88829000D01*
X138512128Y-88915397D01*
X138143908Y-89161434D01*
X138133774Y-89176600D01*
X134305703Y-89176600D01*
X134339655Y-89142707D01*
X134746536Y-88162827D01*
X134747462Y-87101828D01*
X134342291Y-86121239D01*
X134021612Y-85800000D01*
X151728193Y-85800000D01*
X151410345Y-86117293D01*
X151410345Y-86117293D01*
G37*
X151410345Y-86117293D02*
X151003464Y-87097173D01*
X151002538Y-88158172D01*
X151407709Y-89138761D01*
X151445482Y-89176600D01*
X146854226Y-89176600D01*
X146844092Y-89161434D01*
X146475872Y-88915397D01*
X146041526Y-88829000D01*
X145446474Y-88829000D01*
X145012128Y-88915397D01*
X144643908Y-89161434D01*
X144397871Y-89529654D01*
X144311474Y-89964000D01*
X144397871Y-90398346D01*
X144608784Y-90714000D01*
X144397871Y-91029654D01*
X144311474Y-91464000D01*
X144397871Y-91898346D01*
X144608784Y-92214000D01*
X144397871Y-92529654D01*
X144311474Y-92964000D01*
X144397871Y-93398346D01*
X144608784Y-93714000D01*
X144397871Y-94029654D01*
X144311474Y-94464000D01*
X144397871Y-94898346D01*
X144608784Y-95214000D01*
X144397871Y-95529654D01*
X144311474Y-95964000D01*
X144397871Y-96398346D01*
X144608784Y-96714000D01*
X144397871Y-97029654D01*
X144311474Y-97464000D01*
X144397871Y-97898346D01*
X144643908Y-98266566D01*
X145012128Y-98512603D01*
X145446474Y-98599000D01*
X146041526Y-98599000D01*
X146475872Y-98512603D01*
X146844092Y-98266566D01*
X147084788Y-97906340D01*
X147271224Y-98092776D01*
X147526675Y-98263463D01*
X147828000Y-98323400D01*
X147967137Y-98323400D01*
X147962560Y-98346000D01*
X147962560Y-99308600D01*
X147666152Y-99308600D01*
X147368776Y-99011224D01*
X147113325Y-98840537D01*
X146812000Y-98780600D01*
X140534152Y-98780600D01*
X140149884Y-98396332D01*
X140344092Y-98266566D01*
X140590129Y-97898346D01*
X140676526Y-97464000D01*
X140590129Y-97029654D01*
X140379216Y-96714000D01*
X140590129Y-96398346D01*
X140676526Y-95964000D01*
X140590129Y-95529654D01*
X140379216Y-95214000D01*
X140590129Y-94898346D01*
X140676526Y-94464000D01*
X140590129Y-94029654D01*
X140373085Y-93704825D01*
X140406368Y-93676763D01*
X140608119Y-93265874D01*
X140481954Y-93091000D01*
X139371000Y-93091000D01*
X139371000Y-93111000D01*
X139117000Y-93111000D01*
X139117000Y-93091000D01*
X138006046Y-93091000D01*
X137879881Y-93265874D01*
X138081632Y-93676763D01*
X138114915Y-93704825D01*
X137897871Y-94029654D01*
X137811474Y-94464000D01*
X137897871Y-94898346D01*
X138108784Y-95214000D01*
X137897871Y-95529654D01*
X137811474Y-95964000D01*
X137897871Y-96398346D01*
X138108784Y-96714000D01*
X137897871Y-97029654D01*
X137811474Y-97464000D01*
X137897871Y-97898346D01*
X138143908Y-98266566D01*
X138456600Y-98475500D01*
X138456600Y-98604000D01*
X138516537Y-98905325D01*
X138687224Y-99160776D01*
X139651224Y-100124776D01*
X139906675Y-100295463D01*
X140118312Y-100337560D01*
X139875000Y-100337560D01*
X139639683Y-100381838D01*
X139423559Y-100520910D01*
X139278569Y-100733110D01*
X139227560Y-100985000D01*
X139227560Y-103485000D01*
X139271838Y-103720317D01*
X139410910Y-103936441D01*
X139623110Y-104081431D01*
X139875000Y-104132440D01*
X141875000Y-104132440D01*
X142110317Y-104088162D01*
X142326441Y-103949090D01*
X142471431Y-103736890D01*
X142522440Y-103485000D01*
X142522440Y-103313060D01*
X142808629Y-103027370D01*
X142868370Y-102883497D01*
X142902603Y-102966143D01*
X143144787Y-103035608D01*
X143240000Y-102940395D01*
X143240000Y-103611310D01*
X143336673Y-103844699D01*
X143515302Y-104023327D01*
X143748691Y-104120000D01*
X144589250Y-104120000D01*
X144748000Y-103961250D01*
X144748000Y-103502191D01*
X144856143Y-103457397D01*
X144925607Y-103215215D01*
X145002000Y-103291608D01*
X145002000Y-103961250D01*
X145160750Y-104120000D01*
X146001309Y-104120000D01*
X146234698Y-104023327D01*
X146413327Y-103844699D01*
X146510000Y-103611310D01*
X146510000Y-102520750D01*
X146351250Y-102362000D01*
X145530105Y-102362000D01*
X145517392Y-102108000D01*
X146351250Y-102108000D01*
X146510000Y-101949250D01*
X146510000Y-100858690D01*
X146413327Y-100625301D01*
X146234698Y-100446673D01*
X146014346Y-100355400D01*
X146485848Y-100355400D01*
X146783224Y-100652776D01*
X147038675Y-100823463D01*
X147340000Y-100883400D01*
X148271715Y-100883400D01*
X148358110Y-100942431D01*
X148610000Y-100993440D01*
X148781940Y-100993440D01*
X149067630Y-101279629D01*
X149211503Y-101339370D01*
X149128857Y-101373603D01*
X149059392Y-101615787D01*
X149154605Y-101711000D01*
X148483690Y-101711000D01*
X148250301Y-101807673D01*
X148071673Y-101986302D01*
X147975000Y-102219691D01*
X147975000Y-103060250D01*
X148133750Y-103219000D01*
X148592809Y-103219000D01*
X148637603Y-103327143D01*
X148879785Y-103396607D01*
X148803392Y-103473000D01*
X148133750Y-103473000D01*
X147975000Y-103631750D01*
X147975000Y-104472309D01*
X148071673Y-104705698D01*
X148250301Y-104884327D01*
X148483690Y-104981000D01*
X149574250Y-104981000D01*
X149733000Y-104822250D01*
X149733000Y-104001105D01*
X149987000Y-103988392D01*
X149987000Y-104822250D01*
X150145750Y-104981000D01*
X151236310Y-104981000D01*
X151469699Y-104884327D01*
X151648327Y-104705698D01*
X151745000Y-104472309D01*
X151745000Y-103631750D01*
X151586250Y-103473000D01*
X150916608Y-103473000D01*
X150840215Y-103396607D01*
X151082397Y-103327143D01*
X151120979Y-103219000D01*
X151586250Y-103219000D01*
X151745000Y-103060250D01*
X151745000Y-102219691D01*
X151648327Y-101986302D01*
X151469699Y-101807673D01*
X151236310Y-101711000D01*
X150565395Y-101711000D01*
X150660608Y-101615787D01*
X150591143Y-101373603D01*
X150502633Y-101342026D01*
X150650303Y-101281010D01*
X150938375Y-100993440D01*
X151110000Y-100993440D01*
X151345317Y-100949162D01*
X151561441Y-100810090D01*
X151706431Y-100597890D01*
X151757440Y-100346000D01*
X151757440Y-98514992D01*
X151843224Y-98600776D01*
X152098675Y-98771463D01*
X152219696Y-98795535D01*
X152425585Y-99103670D01*
X152439913Y-99113243D01*
X152418683Y-99117238D01*
X152202559Y-99256310D01*
X152057569Y-99468510D01*
X152006560Y-99720400D01*
X152006560Y-101447600D01*
X152050838Y-101682917D01*
X152189910Y-101899041D01*
X152402110Y-102044031D01*
X152654000Y-102095040D01*
X154686000Y-102095040D01*
X154921317Y-102050762D01*
X155137441Y-101911690D01*
X155282431Y-101699490D01*
X155333440Y-101447600D01*
X155333440Y-99720400D01*
X155289162Y-99485083D01*
X155150090Y-99268959D01*
X154937890Y-99123969D01*
X154896561Y-99115600D01*
X154914415Y-99103670D01*
X155239271Y-98617489D01*
X155353345Y-98044000D01*
X155239271Y-97470511D01*
X154914415Y-96984330D01*
X154599634Y-96774000D01*
X154914415Y-96563670D01*
X155120304Y-96255535D01*
X155241325Y-96231463D01*
X155496776Y-96060776D01*
X155500000Y-96057552D01*
X155500000Y-104738193D01*
X155182707Y-104420345D01*
X154202827Y-104013464D01*
X153141828Y-104012538D01*
X152161239Y-104417709D01*
X151410345Y-105167293D01*
X151003464Y-106147173D01*
X151002538Y-107208172D01*
X151407709Y-108188761D01*
X151728388Y-108510000D01*
X134021807Y-108510000D01*
X134339655Y-108192707D01*
X134746536Y-107212827D01*
X134746759Y-106956661D01*
X139927758Y-106956661D01*
X139958870Y-107031958D01*
X139958870Y-107580430D01*
X140003148Y-107815747D01*
X140142220Y-108031871D01*
X140354420Y-108176861D01*
X140606310Y-108227870D01*
X142203970Y-108227870D01*
X142439287Y-108183592D01*
X142655411Y-108044520D01*
X142800401Y-107832320D01*
X142820971Y-107730741D01*
X142907703Y-107940129D01*
X143086332Y-108118757D01*
X143319721Y-108215430D01*
X143959110Y-108215430D01*
X144093786Y-108080754D01*
X144117302Y-108089144D01*
X144390643Y-108075463D01*
X144530610Y-108215430D01*
X145169999Y-108215430D01*
X145403388Y-108118757D01*
X145582017Y-107940129D01*
X145678690Y-107706740D01*
X145678690Y-107043134D01*
X145734144Y-106887698D01*
X145706362Y-106332632D01*
X145678690Y-106265826D01*
X145678690Y-105653260D01*
X145582017Y-105419871D01*
X145403388Y-105241243D01*
X145169999Y-105144570D01*
X144530610Y-105144570D01*
X144397560Y-105277620D01*
X144106717Y-105292177D01*
X143959110Y-105144570D01*
X143319721Y-105144570D01*
X143086332Y-105241243D01*
X142907703Y-105419871D01*
X142822454Y-105625681D01*
X142807132Y-105544253D01*
X142668060Y-105328129D01*
X142455860Y-105183139D01*
X142203970Y-105132130D01*
X140606310Y-105132130D01*
X140370993Y-105176408D01*
X140154869Y-105315480D01*
X140009879Y-105527680D01*
X139958870Y-105779570D01*
X139958870Y-106327142D01*
X139928243Y-106400900D01*
X139927758Y-106956661D01*
X134746759Y-106956661D01*
X134747462Y-106151828D01*
X134342291Y-105171239D01*
X133592707Y-104420345D01*
X132612827Y-104013464D01*
X131551828Y-104012538D01*
X130571239Y-104417709D01*
X130250000Y-104738388D01*
X130250000Y-102287010D01*
X130445510Y-102287010D01*
X130445510Y-103127059D01*
X130542183Y-103360448D01*
X130720811Y-103539077D01*
X130954200Y-103635750D01*
X131794250Y-103635750D01*
X131953000Y-103477000D01*
X131953000Y-102128260D01*
X132207000Y-102128260D01*
X132207000Y-103477000D01*
X132365750Y-103635750D01*
X133205800Y-103635750D01*
X133439189Y-103539077D01*
X133617817Y-103360448D01*
X133714490Y-103127059D01*
X133714490Y-102287010D01*
X133555740Y-102128260D01*
X132207000Y-102128260D01*
X131953000Y-102128260D01*
X130604260Y-102128260D01*
X130445510Y-102287010D01*
X130250000Y-102287010D01*
X130250000Y-101183299D01*
X130277958Y-101398377D01*
X130417030Y-101614501D01*
X130445510Y-101633961D01*
X130445510Y-101715510D01*
X130604260Y-101874260D01*
X131953000Y-101874260D01*
X131953000Y-99540000D01*
X132207000Y-99540000D01*
X132207000Y-101874260D01*
X133555740Y-101874260D01*
X133714490Y-101715510D01*
X133714490Y-101626570D01*
X133779955Y-101573063D01*
X133899991Y-101345815D01*
X133922158Y-101089769D01*
X134047842Y-101089769D01*
X134087958Y-101398377D01*
X134227030Y-101614501D01*
X134243070Y-101625461D01*
X134243070Y-103000750D01*
X134287348Y-103236067D01*
X134426420Y-103452191D01*
X134638620Y-103597181D01*
X134890510Y-103648190D01*
X136889490Y-103648190D01*
X137124807Y-103603912D01*
X137340931Y-103464840D01*
X137485921Y-103252640D01*
X137536930Y-103000750D01*
X137536930Y-101616402D01*
X137589955Y-101573063D01*
X137709991Y-101345815D01*
X137732158Y-101089769D01*
X137333378Y-97589649D01*
X137293262Y-97427623D01*
X137154190Y-97211499D01*
X136941990Y-97066509D01*
X136690100Y-97015500D01*
X135089900Y-97015500D01*
X134924374Y-97037017D01*
X134693896Y-97150730D01*
X134525817Y-97345152D01*
X134446622Y-97589649D01*
X134047842Y-101089769D01*
X133922158Y-101089769D01*
X133745588Y-99540000D01*
X132207000Y-99540000D01*
X131953000Y-99540000D01*
X130414412Y-99540000D01*
X130250000Y-100983057D01*
X130250000Y-99286000D01*
X130443351Y-99286000D01*
X131953000Y-99286000D01*
X131953000Y-97015500D01*
X132207000Y-97015500D01*
X132207000Y-99286000D01*
X133716649Y-99286000D01*
X133523378Y-97589649D01*
X133483262Y-97427623D01*
X133344190Y-97211499D01*
X133131990Y-97066509D01*
X132880100Y-97015500D01*
X132207000Y-97015500D01*
X131953000Y-97015500D01*
X131279900Y-97015500D01*
X131114374Y-97037017D01*
X130883896Y-97150730D01*
X130715817Y-97345152D01*
X130636622Y-97589649D01*
X130443351Y-99286000D01*
X130250000Y-99286000D01*
X130250000Y-93016943D01*
X130636622Y-96410351D01*
X130676738Y-96572377D01*
X130815810Y-96788501D01*
X131028010Y-96933491D01*
X131279900Y-96984500D01*
X132880100Y-96984500D01*
X133045626Y-96962983D01*
X133276104Y-96849270D01*
X133444183Y-96654848D01*
X133523378Y-96410351D01*
X133922158Y-92910231D01*
X133882042Y-92601623D01*
X133742970Y-92385499D01*
X133726930Y-92374539D01*
X133726930Y-91465362D01*
X134255773Y-90936519D01*
X134243070Y-90999250D01*
X134243070Y-92383598D01*
X134190045Y-92426937D01*
X134070009Y-92654185D01*
X134047842Y-92910231D01*
X134446622Y-96410351D01*
X134486738Y-96572377D01*
X134625810Y-96788501D01*
X134838010Y-96933491D01*
X135089900Y-96984500D01*
X136690100Y-96984500D01*
X136855626Y-96962983D01*
X137086104Y-96849270D01*
X137254183Y-96654848D01*
X137333378Y-96410351D01*
X137732158Y-92910231D01*
X137692042Y-92601623D01*
X137552970Y-92385499D01*
X137536930Y-92374539D01*
X137536930Y-90999250D01*
X137492652Y-90763933D01*
X137484587Y-90751400D01*
X138083795Y-90751400D01*
X137897871Y-91029654D01*
X137811474Y-91464000D01*
X137897871Y-91898346D01*
X138114915Y-92223175D01*
X138081632Y-92251237D01*
X137879881Y-92662126D01*
X138006046Y-92837000D01*
X139117000Y-92837000D01*
X139117000Y-92817000D01*
X139371000Y-92817000D01*
X139371000Y-92837000D01*
X140481954Y-92837000D01*
X140608119Y-92662126D01*
X140406448Y-92251400D01*
X140438000Y-92251400D01*
X140739325Y-92191463D01*
X140994776Y-92020776D01*
X141526776Y-91488776D01*
X141697463Y-91233325D01*
X141757400Y-90932000D01*
X141757400Y-87630000D01*
X141697463Y-87328675D01*
X141526776Y-87073224D01*
X141417552Y-86964000D01*
X144311474Y-86964000D01*
X144397871Y-87398346D01*
X144643908Y-87766566D01*
X145012128Y-88012603D01*
X145446474Y-88099000D01*
X146041526Y-88099000D01*
X146475872Y-88012603D01*
X146844092Y-87766566D01*
X147090129Y-87398346D01*
X147176526Y-86964000D01*
X147090129Y-86529654D01*
X146844092Y-86161434D01*
X146475872Y-85915397D01*
X146041526Y-85829000D01*
X145446474Y-85829000D01*
X145012128Y-85915397D01*
X144643908Y-86161434D01*
X144397871Y-86529654D01*
X144311474Y-86964000D01*
X141417552Y-86964000D01*
X140860776Y-86407224D01*
X140620555Y-86246713D01*
X140617162Y-86228683D01*
X140478090Y-86012559D01*
X140265890Y-85867569D01*
X140014000Y-85816560D01*
X138474000Y-85816560D01*
X138238683Y-85860838D01*
X138022559Y-85999910D01*
X137877569Y-86212110D01*
X137826560Y-86464000D01*
X137826560Y-87464000D01*
X137870838Y-87699317D01*
X138009910Y-87915441D01*
X138222110Y-88060431D01*
X138474000Y-88111440D01*
X140014000Y-88111440D01*
X140182600Y-88079716D01*
X140182600Y-89053528D01*
X139975872Y-88915397D01*
X139541526Y-88829000D01*
X138946474Y-88829000D01*
X138512128Y-88915397D01*
X138143908Y-89161434D01*
X138133774Y-89176600D01*
X134305703Y-89176600D01*
X134339655Y-89142707D01*
X134746536Y-88162827D01*
X134747462Y-87101828D01*
X134342291Y-86121239D01*
X134021612Y-85800000D01*
X151728193Y-85800000D01*
X151410345Y-86117293D01*
G36*
X144371860Y-106518970D02*
X144371860Y-106553000D01*
X144391860Y-106553000D01*
X144391860Y-106807000D01*
X144371860Y-106807000D01*
X144371860Y-106841030D01*
X144339143Y-106873748D01*
X144325000Y-106859605D01*
X144310858Y-106873748D01*
X144131253Y-106694143D01*
X144145395Y-106680000D01*
X144131253Y-106665858D01*
X144310858Y-106486253D01*
X144325000Y-106500395D01*
X144339143Y-106486253D01*
X144371860Y-106518970D01*
X144371860Y-106518970D01*
G37*
X144371860Y-106518970D02*
X144371860Y-106553000D01*
X144391860Y-106553000D01*
X144391860Y-106807000D01*
X144371860Y-106807000D01*
X144371860Y-106841030D01*
X144339143Y-106873748D01*
X144325000Y-106859605D01*
X144310858Y-106873748D01*
X144131253Y-106694143D01*
X144145395Y-106680000D01*
X144131253Y-106665858D01*
X144310858Y-106486253D01*
X144325000Y-106500395D01*
X144339143Y-106486253D01*
X144371860Y-106518970D01*
G36*
X151843224Y-91234776D02*
X152098675Y-91405463D01*
X152400000Y-91465400D01*
X154613848Y-91465400D01*
X154660600Y-91512152D01*
X154660600Y-91740199D01*
X154584320Y-91672046D01*
X154031913Y-91478816D01*
X153797000Y-91623076D01*
X153797000Y-92837000D01*
X153817000Y-92837000D01*
X153817000Y-93091000D01*
X153797000Y-93091000D01*
X153797000Y-93111000D01*
X153543000Y-93111000D01*
X153543000Y-93091000D01*
X152183783Y-93091000D01*
X152062642Y-93323026D01*
X152065291Y-93338791D01*
X152319268Y-93866036D01*
X152735069Y-94237539D01*
X152425585Y-94444330D01*
X152100729Y-94930511D01*
X151986655Y-95504000D01*
X152100729Y-96077489D01*
X152425585Y-96563670D01*
X152740366Y-96774000D01*
X152441001Y-96974029D01*
X152193325Y-96808537D01*
X151892000Y-96748600D01*
X151752863Y-96748600D01*
X151757440Y-96726000D01*
X151757440Y-94726000D01*
X151713162Y-94490683D01*
X151574090Y-94274559D01*
X151361890Y-94129569D01*
X151110000Y-94078560D01*
X150938060Y-94078560D01*
X150652370Y-93792371D01*
X150508497Y-93732630D01*
X150591143Y-93698397D01*
X150660608Y-93456213D01*
X150565395Y-93361000D01*
X151236310Y-93361000D01*
X151469699Y-93264327D01*
X151648327Y-93085698D01*
X151745000Y-92852309D01*
X151745000Y-92604974D01*
X152062642Y-92604974D01*
X152183783Y-92837000D01*
X153543000Y-92837000D01*
X153543000Y-91623076D01*
X153308087Y-91478816D01*
X152755680Y-91672046D01*
X152319268Y-92061964D01*
X152065291Y-92589209D01*
X152062642Y-92604974D01*
X151745000Y-92604974D01*
X151745000Y-92011750D01*
X151586250Y-91853000D01*
X151127191Y-91853000D01*
X151082397Y-91744857D01*
X150840215Y-91675393D01*
X150916608Y-91599000D01*
X151586250Y-91599000D01*
X151745000Y-91440250D01*
X151745000Y-91136552D01*
X151843224Y-91234776D01*
X151843224Y-91234776D01*
G37*
X151843224Y-91234776D02*
X152098675Y-91405463D01*
X152400000Y-91465400D01*
X154613848Y-91465400D01*
X154660600Y-91512152D01*
X154660600Y-91740199D01*
X154584320Y-91672046D01*
X154031913Y-91478816D01*
X153797000Y-91623076D01*
X153797000Y-92837000D01*
X153817000Y-92837000D01*
X153817000Y-93091000D01*
X153797000Y-93091000D01*
X153797000Y-93111000D01*
X153543000Y-93111000D01*
X153543000Y-93091000D01*
X152183783Y-93091000D01*
X152062642Y-93323026D01*
X152065291Y-93338791D01*
X152319268Y-93866036D01*
X152735069Y-94237539D01*
X152425585Y-94444330D01*
X152100729Y-94930511D01*
X151986655Y-95504000D01*
X152100729Y-96077489D01*
X152425585Y-96563670D01*
X152740366Y-96774000D01*
X152441001Y-96974029D01*
X152193325Y-96808537D01*
X151892000Y-96748600D01*
X151752863Y-96748600D01*
X151757440Y-96726000D01*
X151757440Y-94726000D01*
X151713162Y-94490683D01*
X151574090Y-94274559D01*
X151361890Y-94129569D01*
X151110000Y-94078560D01*
X150938060Y-94078560D01*
X150652370Y-93792371D01*
X150508497Y-93732630D01*
X150591143Y-93698397D01*
X150660608Y-93456213D01*
X150565395Y-93361000D01*
X151236310Y-93361000D01*
X151469699Y-93264327D01*
X151648327Y-93085698D01*
X151745000Y-92852309D01*
X151745000Y-92604974D01*
X152062642Y-92604974D01*
X152183783Y-92837000D01*
X153543000Y-92837000D01*
X153543000Y-91623076D01*
X153308087Y-91478816D01*
X152755680Y-91672046D01*
X152319268Y-92061964D01*
X152065291Y-92589209D01*
X152062642Y-92604974D01*
X151745000Y-92604974D01*
X151745000Y-92011750D01*
X151586250Y-91853000D01*
X151127191Y-91853000D01*
X151082397Y-91744857D01*
X150840215Y-91675393D01*
X150916608Y-91599000D01*
X151586250Y-91599000D01*
X151745000Y-91440250D01*
X151745000Y-91136552D01*
X151843224Y-91234776D01*
M02*
