G04 #@! TF.GenerationSoftware,KiCad,Pcbnew,(5.0.1)-4*
G04 #@! TF.CreationDate,2020-10-11T14:42:23+02:00*
G04 #@! TF.ProjectId,GP2Y0D8xxZ0F,4750325930443878785A30462E6B6963,1*
G04 #@! TF.SameCoordinates,Original*
G04 #@! TF.FileFunction,Legend,Top*
G04 #@! TF.FilePolarity,Positive*
%FSLAX46Y46*%
G04 Gerber Fmt 4.6, Leading zero omitted, Abs format (unit mm)*
G04 Created by KiCad (PCBNEW (5.0.1)-4) date 10/11/2020 2:42:23 PM*
%MOMM*%
%LPD*%
G01*
G04 APERTURE LIST*
%ADD10C,0.250000*%
%ADD11C,0.150000*%
G04 APERTURE END LIST*
D10*
X74904761Y-89357142D02*
X74952380Y-89214285D01*
X74952380Y-88976190D01*
X74904761Y-88880952D01*
X74857142Y-88833333D01*
X74761904Y-88785714D01*
X74666666Y-88785714D01*
X74571428Y-88833333D01*
X74523809Y-88880952D01*
X74476190Y-88976190D01*
X74428571Y-89166666D01*
X74380952Y-89261904D01*
X74333333Y-89309523D01*
X74238095Y-89357142D01*
X74142857Y-89357142D01*
X74047619Y-89309523D01*
X74000000Y-89261904D01*
X73952380Y-89166666D01*
X73952380Y-88928571D01*
X74000000Y-88785714D01*
X74904761Y-87976190D02*
X74952380Y-88071428D01*
X74952380Y-88261904D01*
X74904761Y-88357142D01*
X74809523Y-88404761D01*
X74428571Y-88404761D01*
X74333333Y-88357142D01*
X74285714Y-88261904D01*
X74285714Y-88071428D01*
X74333333Y-87976190D01*
X74428571Y-87928571D01*
X74523809Y-87928571D01*
X74619047Y-88404761D01*
X74285714Y-87642857D02*
X74285714Y-87261904D01*
X73952380Y-87500000D02*
X74809523Y-87500000D01*
X74904761Y-87452380D01*
X74952380Y-87357142D01*
X74952380Y-87261904D01*
X74285714Y-87071428D02*
X74285714Y-86690476D01*
X73952380Y-86928571D02*
X74809523Y-86928571D01*
X74904761Y-86880952D01*
X74952380Y-86785714D01*
X74952380Y-86690476D01*
X74952380Y-86214285D02*
X74904761Y-86309523D01*
X74857142Y-86357142D01*
X74761904Y-86404761D01*
X74476190Y-86404761D01*
X74380952Y-86357142D01*
X74333333Y-86309523D01*
X74285714Y-86214285D01*
X74285714Y-86071428D01*
X74333333Y-85976190D01*
X74380952Y-85928571D01*
X74476190Y-85880952D01*
X74761904Y-85880952D01*
X74857142Y-85928571D01*
X74904761Y-85976190D01*
X74952380Y-86071428D01*
X74952380Y-86214285D01*
X74952380Y-85452380D02*
X74285714Y-85452380D01*
X74476190Y-85452380D02*
X74380952Y-85404761D01*
X74333333Y-85357142D01*
X74285714Y-85261904D01*
X74285714Y-85166666D01*
X74904761Y-84452380D02*
X74952380Y-84547619D01*
X74952380Y-84738095D01*
X74904761Y-84833333D01*
X74809523Y-84880952D01*
X74428571Y-84880952D01*
X74333333Y-84833333D01*
X74285714Y-84738095D01*
X74285714Y-84547619D01*
X74333333Y-84452380D01*
X74428571Y-84404761D01*
X74523809Y-84404761D01*
X74619047Y-84880952D01*
X74285714Y-84071428D02*
X74285714Y-83547619D01*
X74952380Y-84071428D01*
X74952380Y-83547619D01*
X74904761Y-82785714D02*
X74952380Y-82880952D01*
X74952380Y-83071428D01*
X74904761Y-83166666D01*
X74809523Y-83214285D01*
X74428571Y-83214285D01*
X74333333Y-83166666D01*
X74285714Y-83071428D01*
X74285714Y-82880952D01*
X74333333Y-82785714D01*
X74428571Y-82738095D01*
X74523809Y-82738095D01*
X74619047Y-83214285D01*
X74952380Y-82309523D02*
X74285714Y-82309523D01*
X74476190Y-82309523D02*
X74380952Y-82261904D01*
X74333333Y-82214285D01*
X74285714Y-82119047D01*
X74285714Y-82023809D01*
X74952380Y-81547619D02*
X74904761Y-81642857D01*
X74857142Y-81690476D01*
X74761904Y-81738095D01*
X74476190Y-81738095D01*
X74380952Y-81690476D01*
X74333333Y-81642857D01*
X74285714Y-81547619D01*
X74285714Y-81404761D01*
X74333333Y-81309523D01*
X74380952Y-81261904D01*
X74476190Y-81214285D01*
X74761904Y-81214285D01*
X74857142Y-81261904D01*
X74904761Y-81309523D01*
X74952380Y-81404761D01*
X74952380Y-81547619D01*
X74857142Y-80785714D02*
X74904761Y-80738095D01*
X74952380Y-80785714D01*
X74904761Y-80833333D01*
X74857142Y-80785714D01*
X74952380Y-80785714D01*
X74904761Y-79880952D02*
X74952380Y-79976190D01*
X74952380Y-80166666D01*
X74904761Y-80261904D01*
X74857142Y-80309523D01*
X74761904Y-80357142D01*
X74476190Y-80357142D01*
X74380952Y-80309523D01*
X74333333Y-80261904D01*
X74285714Y-80166666D01*
X74285714Y-79976190D01*
X74333333Y-79880952D01*
X74952380Y-79309523D02*
X74904761Y-79404761D01*
X74857142Y-79452380D01*
X74761904Y-79500000D01*
X74476190Y-79500000D01*
X74380952Y-79452380D01*
X74333333Y-79404761D01*
X74285714Y-79309523D01*
X74285714Y-79166666D01*
X74333333Y-79071428D01*
X74380952Y-79023809D01*
X74476190Y-78976190D01*
X74761904Y-78976190D01*
X74857142Y-79023809D01*
X74904761Y-79071428D01*
X74952380Y-79166666D01*
X74952380Y-79309523D01*
X74952380Y-78547619D02*
X74285714Y-78547619D01*
X74380952Y-78547619D02*
X74333333Y-78500000D01*
X74285714Y-78404761D01*
X74285714Y-78261904D01*
X74333333Y-78166666D01*
X74428571Y-78119047D01*
X74952380Y-78119047D01*
X74428571Y-78119047D02*
X74333333Y-78071428D01*
X74285714Y-77976190D01*
X74285714Y-77833333D01*
X74333333Y-77738095D01*
X74428571Y-77690476D01*
X74952380Y-77690476D01*
D11*
G04 #@! TO.C,U1*
X76500000Y-77000000D02*
X85500000Y-77000000D01*
X85500000Y-77000000D02*
X85500000Y-89500000D01*
X85500000Y-89500000D02*
X76500000Y-89500000D01*
X76500000Y-89500000D02*
X76500000Y-77000000D01*
G04 #@! TO.C,P1*
X78270000Y-100270000D02*
X85890000Y-100270000D01*
X78270000Y-97730000D02*
X85890000Y-97730000D01*
X75450000Y-97450000D02*
X77000000Y-97450000D01*
X85890000Y-100270000D02*
X85890000Y-97730000D01*
X78270000Y-97730000D02*
X78270000Y-100270000D01*
X77000000Y-100550000D02*
X75450000Y-100550000D01*
X75450000Y-100550000D02*
X75450000Y-97450000D01*
G04 #@! TO.C,R1*
X69699900Y-88500000D02*
X69699900Y-88700660D01*
X69699900Y-88500000D02*
X69699900Y-88299340D01*
X71300100Y-88400940D02*
X71300100Y-88299340D01*
X71300100Y-88299340D02*
X71300100Y-88700660D01*
G04 #@! TO.C,R2*
X90699900Y-88500000D02*
X90699900Y-88700660D01*
X90699900Y-88500000D02*
X90699900Y-88299340D01*
X92300100Y-88400940D02*
X92300100Y-88299340D01*
X92300100Y-88299340D02*
X92300100Y-88700660D01*
G04 #@! TO.C,D1*
X86500000Y-84500000D02*
G75*
G03X86500000Y-86500000I1000000J-1000000D01*
G01*
X89500000Y-86500000D02*
G75*
G03X89500000Y-84500000I-1000000J1000000D01*
G01*
X86950000Y-83350000D02*
X86950000Y-86950000D01*
X89050000Y-83350000D02*
X89050000Y-86950000D01*
X88300000Y-85400000D02*
X87700000Y-85400000D01*
X87700000Y-85400000D02*
X88000000Y-85100000D01*
X88000000Y-85100000D02*
X88200000Y-85300000D01*
X88200000Y-85300000D02*
X87950000Y-85300000D01*
X87950000Y-85300000D02*
X88000000Y-85250000D01*
X88500000Y-85000000D02*
X87500000Y-85000000D01*
X88000000Y-85500000D02*
X88000000Y-86000000D01*
X88000000Y-85000000D02*
X88500000Y-85500000D01*
X88500000Y-85500000D02*
X87500000Y-85500000D01*
X87500000Y-85500000D02*
X88000000Y-85000000D01*
G04 #@! TO.C,REF\002A\002A*
X93286000Y-78500000D02*
G75*
G03X93286000Y-78500000I-2286000J0D01*
G01*
X73286000Y-78500000D02*
G75*
G03X73286000Y-78500000I-2286000J0D01*
G01*
X73286000Y-98500000D02*
G75*
G03X73286000Y-98500000I-2286000J0D01*
G01*
X93286000Y-98500000D02*
G75*
G03X93286000Y-98500000I-2286000J0D01*
G01*
G04 #@! TO.C,C2*
X84525000Y-92500000D02*
X84525000Y-94500000D01*
X87475000Y-94500000D02*
X87475000Y-92500000D01*
G04 #@! TO.C,C1*
X77475000Y-94500000D02*
X77475000Y-92500000D01*
X74525000Y-92500000D02*
X74525000Y-94500000D01*
G04 #@! TO.C,C3*
X79525000Y-92500000D02*
X79525000Y-94500000D01*
X82475000Y-94500000D02*
X82475000Y-92500000D01*
G04 #@! TO.C,U1*
X85952380Y-78411904D02*
X86761904Y-78411904D01*
X86857142Y-78364285D01*
X86904761Y-78316666D01*
X86952380Y-78221428D01*
X86952380Y-78030952D01*
X86904761Y-77935714D01*
X86857142Y-77888095D01*
X86761904Y-77840476D01*
X85952380Y-77840476D01*
X86952380Y-76840476D02*
X86952380Y-77411904D01*
X86952380Y-77126190D02*
X85952380Y-77126190D01*
X86095238Y-77221428D01*
X86190476Y-77316666D01*
X86238095Y-77411904D01*
G04 #@! TO.C,P1*
X74952380Y-99238095D02*
X73952380Y-99238095D01*
X73952380Y-98857142D01*
X74000000Y-98761904D01*
X74047619Y-98714285D01*
X74142857Y-98666666D01*
X74285714Y-98666666D01*
X74380952Y-98714285D01*
X74428571Y-98761904D01*
X74476190Y-98857142D01*
X74476190Y-99238095D01*
X74952380Y-97714285D02*
X74952380Y-98285714D01*
X74952380Y-98000000D02*
X73952380Y-98000000D01*
X74095238Y-98095238D01*
X74190476Y-98190476D01*
X74238095Y-98285714D01*
G04 #@! TO.C,R1*
X72952380Y-88666666D02*
X72476190Y-89000000D01*
X72952380Y-89238095D02*
X71952380Y-89238095D01*
X71952380Y-88857142D01*
X72000000Y-88761904D01*
X72047619Y-88714285D01*
X72142857Y-88666666D01*
X72285714Y-88666666D01*
X72380952Y-88714285D01*
X72428571Y-88761904D01*
X72476190Y-88857142D01*
X72476190Y-89238095D01*
X72952380Y-87714285D02*
X72952380Y-88285714D01*
X72952380Y-88000000D02*
X71952380Y-88000000D01*
X72095238Y-88095238D01*
X72190476Y-88190476D01*
X72238095Y-88285714D01*
G04 #@! TO.C,R2*
X89452380Y-93666666D02*
X88976190Y-94000000D01*
X89452380Y-94238095D02*
X88452380Y-94238095D01*
X88452380Y-93857142D01*
X88500000Y-93761904D01*
X88547619Y-93714285D01*
X88642857Y-93666666D01*
X88785714Y-93666666D01*
X88880952Y-93714285D01*
X88928571Y-93761904D01*
X88976190Y-93857142D01*
X88976190Y-94238095D01*
X88547619Y-93285714D02*
X88500000Y-93238095D01*
X88452380Y-93142857D01*
X88452380Y-92904761D01*
X88500000Y-92809523D01*
X88547619Y-92761904D01*
X88642857Y-92714285D01*
X88738095Y-92714285D01*
X88880952Y-92761904D01*
X89452380Y-93333333D01*
X89452380Y-92714285D01*
G04 #@! TO.C,D1*
X88452380Y-81988095D02*
X87452380Y-81988095D01*
X87452380Y-81750000D01*
X87500000Y-81607142D01*
X87595238Y-81511904D01*
X87690476Y-81464285D01*
X87880952Y-81416666D01*
X88023809Y-81416666D01*
X88214285Y-81464285D01*
X88309523Y-81511904D01*
X88404761Y-81607142D01*
X88452380Y-81750000D01*
X88452380Y-81988095D01*
X88452380Y-80464285D02*
X88452380Y-81035714D01*
X88452380Y-80750000D02*
X87452380Y-80750000D01*
X87595238Y-80845238D01*
X87690476Y-80940476D01*
X87738095Y-81035714D01*
G04 #@! TO.C,C2*
X83857142Y-93666666D02*
X83904761Y-93714285D01*
X83952380Y-93857142D01*
X83952380Y-93952380D01*
X83904761Y-94095238D01*
X83809523Y-94190476D01*
X83714285Y-94238095D01*
X83523809Y-94285714D01*
X83380952Y-94285714D01*
X83190476Y-94238095D01*
X83095238Y-94190476D01*
X83000000Y-94095238D01*
X82952380Y-93952380D01*
X82952380Y-93857142D01*
X83000000Y-93714285D01*
X83047619Y-93666666D01*
X83047619Y-93285714D02*
X83000000Y-93238095D01*
X82952380Y-93142857D01*
X82952380Y-92904761D01*
X83000000Y-92809523D01*
X83047619Y-92761904D01*
X83142857Y-92714285D01*
X83238095Y-92714285D01*
X83380952Y-92761904D01*
X83952380Y-93333333D01*
X83952380Y-92714285D01*
G04 #@! TO.C,C1*
X73857142Y-93666666D02*
X73904761Y-93714285D01*
X73952380Y-93857142D01*
X73952380Y-93952380D01*
X73904761Y-94095238D01*
X73809523Y-94190476D01*
X73714285Y-94238095D01*
X73523809Y-94285714D01*
X73380952Y-94285714D01*
X73190476Y-94238095D01*
X73095238Y-94190476D01*
X73000000Y-94095238D01*
X72952380Y-93952380D01*
X72952380Y-93857142D01*
X73000000Y-93714285D01*
X73047619Y-93666666D01*
X73952380Y-92714285D02*
X73952380Y-93285714D01*
X73952380Y-93000000D02*
X72952380Y-93000000D01*
X73095238Y-93095238D01*
X73190476Y-93190476D01*
X73238095Y-93285714D01*
G04 #@! TO.C,C3*
X78944142Y-93539666D02*
X78991761Y-93587285D01*
X79039380Y-93730142D01*
X79039380Y-93825380D01*
X78991761Y-93968238D01*
X78896523Y-94063476D01*
X78801285Y-94111095D01*
X78610809Y-94158714D01*
X78467952Y-94158714D01*
X78277476Y-94111095D01*
X78182238Y-94063476D01*
X78087000Y-93968238D01*
X78039380Y-93825380D01*
X78039380Y-93730142D01*
X78087000Y-93587285D01*
X78134619Y-93539666D01*
X78039380Y-93206333D02*
X78039380Y-92587285D01*
X78420333Y-92920619D01*
X78420333Y-92777761D01*
X78467952Y-92682523D01*
X78515571Y-92634904D01*
X78610809Y-92587285D01*
X78848904Y-92587285D01*
X78944142Y-92634904D01*
X78991761Y-92682523D01*
X79039380Y-92777761D01*
X79039380Y-93063476D01*
X78991761Y-93158714D01*
X78944142Y-93206333D01*
G04 #@! TD*
M02*
