M48
;DRILL file {KiCad 4.0.6} date 10/30/18 22:54:38
;FORMAT={3:3/ absolute / metric / suppress leading zeros}
FMAT,2
METRIC,TZ
T1C0.700
T2C0.762
T3C1.001
T4C1.016
T5C3.200
%
G90
G05
M71
T1
X139244Y-86964
X139244Y-89964
X139244Y-91464
X139244Y-92964
X139244Y-94464
X139244Y-95964
X139244Y-97464
X145744Y-86964
X145744Y-89964
X145744Y-91464
X145744Y-92964
X145744Y-94464
X145744Y-95964
X145744Y-97464
T2
X141325Y-106680
X141625Y-102235
X144125Y-102235
X144325Y-106680
X149860Y-92476
X149860Y-94976
X149860Y-100096
X149860Y-102596
T3
X132080Y-91999
X132080Y-102001
X135890Y-91999
X135890Y-102001
T4
X153670Y-92964
X153670Y-95504
X153670Y-98044
X153670Y-100584
T5
X132080Y-87630
X132080Y-106680
X153670Y-87630
X153670Y-106680
T0
M30
